<mxfile host="app.diagrams.net" agent="Mozilla/5.0 (Windows NT 10.0; Win64; x64) AppleWebKit/537.36 (KHTML, like Gecko) Chrome/135.0.0.0 Safari/537.36" version="26.2.9">
  <diagram name="Page-1" id="JuwGpoFDmnUk1nRRtlYG">
    <mxGraphModel dx="1599" dy="2271" grid="1" gridSize="10" guides="1" tooltips="1" connect="1" arrows="1" fold="1" page="1" pageScale="1" pageWidth="827" pageHeight="1169" math="0" shadow="0">
      <root>
        <mxCell id="0" />
        <mxCell id="1" parent="0" />
        <mxCell id="Du5RT7D7e3bNgw9wHyrM-1" value="classes" style="shape=table;startSize=30;container=1;collapsible=1;childLayout=tableLayout;fixedRows=1;rowLines=0;fontStyle=1;align=center;resizeLast=1;" vertex="1" parent="1">
          <mxGeometry x="4690" y="1290" width="290" height="180" as="geometry" />
        </mxCell>
        <mxCell id="Du5RT7D7e3bNgw9wHyrM-2" value="" style="shape=partialRectangle;collapsible=0;dropTarget=0;pointerEvents=0;fillColor=none;points=[[0,0.5],[1,0.5]];portConstraint=eastwest;top=0;left=0;right=0;bottom=1;" vertex="1" parent="Du5RT7D7e3bNgw9wHyrM-1">
          <mxGeometry y="30" width="290" height="30" as="geometry" />
        </mxCell>
        <mxCell id="Du5RT7D7e3bNgw9wHyrM-3" value="PK" style="shape=partialRectangle;overflow=hidden;connectable=0;fillColor=none;top=0;left=0;bottom=0;right=0;fontStyle=1;" vertex="1" parent="Du5RT7D7e3bNgw9wHyrM-2">
          <mxGeometry width="30" height="30" as="geometry">
            <mxRectangle width="30" height="30" as="alternateBounds" />
          </mxGeometry>
        </mxCell>
        <mxCell id="Du5RT7D7e3bNgw9wHyrM-4" value="class_id BIGINT AUTO_INCREMENTÂ " style="shape=partialRectangle;overflow=hidden;connectable=0;fillColor=none;top=0;left=0;bottom=0;right=0;align=left;spacingLeft=6;fontStyle=1;" vertex="1" parent="Du5RT7D7e3bNgw9wHyrM-2">
          <mxGeometry x="30" width="260" height="30" as="geometry">
            <mxRectangle width="260" height="30" as="alternateBounds" />
          </mxGeometry>
        </mxCell>
        <mxCell id="Du5RT7D7e3bNgw9wHyrM-5" value="" style="shape=partialRectangle;collapsible=0;dropTarget=0;pointerEvents=0;fillColor=none;points=[[0,0.5],[1,0.5]];portConstraint=eastwest;top=0;left=0;right=0;bottom=0;" vertex="1" parent="Du5RT7D7e3bNgw9wHyrM-1">
          <mxGeometry y="60" width="290" height="30" as="geometry" />
        </mxCell>
        <mxCell id="Du5RT7D7e3bNgw9wHyrM-6" value="" style="shape=partialRectangle;overflow=hidden;connectable=0;fillColor=none;top=0;left=0;bottom=0;right=0;" vertex="1" parent="Du5RT7D7e3bNgw9wHyrM-5">
          <mxGeometry width="30" height="30" as="geometry">
            <mxRectangle width="30" height="30" as="alternateBounds" />
          </mxGeometry>
        </mxCell>
        <mxCell id="Du5RT7D7e3bNgw9wHyrM-7" value="class_schedule DATETIME NOT NULL" style="shape=partialRectangle;overflow=hidden;connectable=0;fillColor=none;top=0;left=0;bottom=0;right=0;align=left;spacingLeft=6;" vertex="1" parent="Du5RT7D7e3bNgw9wHyrM-5">
          <mxGeometry x="30" width="260" height="30" as="geometry">
            <mxRectangle width="260" height="30" as="alternateBounds" />
          </mxGeometry>
        </mxCell>
        <mxCell id="Du5RT7D7e3bNgw9wHyrM-8" style="shape=partialRectangle;collapsible=0;dropTarget=0;pointerEvents=0;fillColor=none;points=[[0,0.5],[1,0.5]];portConstraint=eastwest;top=0;left=0;right=0;bottom=0;" vertex="1" parent="Du5RT7D7e3bNgw9wHyrM-1">
          <mxGeometry y="90" width="290" height="30" as="geometry" />
        </mxCell>
        <mxCell id="Du5RT7D7e3bNgw9wHyrM-9" style="shape=partialRectangle;overflow=hidden;connectable=0;fillColor=none;top=0;left=0;bottom=0;right=0;" vertex="1" parent="Du5RT7D7e3bNgw9wHyrM-8">
          <mxGeometry width="30" height="30" as="geometry">
            <mxRectangle width="30" height="30" as="alternateBounds" />
          </mxGeometry>
        </mxCell>
        <mxCell id="Du5RT7D7e3bNgw9wHyrM-10" value="learning_content TEXT NOT NULL" style="shape=partialRectangle;overflow=hidden;connectable=0;fillColor=none;top=0;left=0;bottom=0;right=0;align=left;spacingLeft=6;" vertex="1" parent="Du5RT7D7e3bNgw9wHyrM-8">
          <mxGeometry x="30" width="260" height="30" as="geometry">
            <mxRectangle width="260" height="30" as="alternateBounds" />
          </mxGeometry>
        </mxCell>
        <mxCell id="Du5RT7D7e3bNgw9wHyrM-11" style="shape=partialRectangle;collapsible=0;dropTarget=0;pointerEvents=0;fillColor=none;points=[[0,0.5],[1,0.5]];portConstraint=eastwest;top=0;left=0;right=0;bottom=0;" vertex="1" parent="Du5RT7D7e3bNgw9wHyrM-1">
          <mxGeometry y="120" width="290" height="30" as="geometry" />
        </mxCell>
        <mxCell id="Du5RT7D7e3bNgw9wHyrM-12" style="shape=partialRectangle;overflow=hidden;connectable=0;fillColor=none;top=0;left=0;bottom=0;right=0;" vertex="1" parent="Du5RT7D7e3bNgw9wHyrM-11">
          <mxGeometry width="30" height="30" as="geometry">
            <mxRectangle width="30" height="30" as="alternateBounds" />
          </mxGeometry>
        </mxCell>
        <mxCell id="Du5RT7D7e3bNgw9wHyrM-13" value="average_grade DECIMAL(5,2) DEFAULT 0.00" style="shape=partialRectangle;overflow=hidden;connectable=0;fillColor=none;top=0;left=0;bottom=0;right=0;align=left;spacingLeft=6;" vertex="1" parent="Du5RT7D7e3bNgw9wHyrM-11">
          <mxGeometry x="30" width="260" height="30" as="geometry">
            <mxRectangle width="260" height="30" as="alternateBounds" />
          </mxGeometry>
        </mxCell>
        <mxCell id="Du5RT7D7e3bNgw9wHyrM-14" style="shape=partialRectangle;collapsible=0;dropTarget=0;pointerEvents=0;fillColor=none;points=[[0,0.5],[1,0.5]];portConstraint=eastwest;top=0;left=0;right=0;bottom=0;" vertex="1" parent="Du5RT7D7e3bNgw9wHyrM-1">
          <mxGeometry y="150" width="290" height="30" as="geometry" />
        </mxCell>
        <mxCell id="Du5RT7D7e3bNgw9wHyrM-15" style="shape=partialRectangle;overflow=hidden;connectable=0;fillColor=none;top=0;left=0;bottom=0;right=0;" vertex="1" parent="Du5RT7D7e3bNgw9wHyrM-14">
          <mxGeometry width="30" height="30" as="geometry">
            <mxRectangle width="30" height="30" as="alternateBounds" />
          </mxGeometry>
        </mxCell>
        <mxCell id="Du5RT7D7e3bNgw9wHyrM-16" value="student_count BIT NOT NULL" style="shape=partialRectangle;overflow=hidden;connectable=0;fillColor=none;top=0;left=0;bottom=0;right=0;align=left;spacingLeft=6;" vertex="1" parent="Du5RT7D7e3bNgw9wHyrM-14">
          <mxGeometry x="30" width="260" height="30" as="geometry">
            <mxRectangle width="260" height="30" as="alternateBounds" />
          </mxGeometry>
        </mxCell>
        <mxCell id="Du5RT7D7e3bNgw9wHyrM-17" value="users_class_schools&amp;nbsp;" style="shape=table;startSize=30;container=1;collapsible=1;childLayout=tableLayout;fixedRows=1;rowLines=0;fontStyle=1;align=center;resizeLast=1;html=1;whiteSpace=wrap;verticalAlign=middle;spacingLeft=4;spacingRight=4;fontFamily=Helvetica;fontSize=12;fontColor=default;fillColor=none;gradientColor=none;" vertex="1" parent="1">
          <mxGeometry x="4270" y="1340" width="200" height="120" as="geometry" />
        </mxCell>
        <mxCell id="Du5RT7D7e3bNgw9wHyrM-18" value="" style="shape=tableRow;horizontal=0;startSize=0;swimlaneHead=0;swimlaneBody=0;fillColor=none;collapsible=0;dropTarget=0;points=[[0,0.5],[1,0.5]];portConstraint=eastwest;top=0;left=0;right=0;bottom=0;align=left;verticalAlign=middle;spacingLeft=4;spacingRight=4;fontFamily=Helvetica;fontSize=12;fontColor=default;" vertex="1" parent="Du5RT7D7e3bNgw9wHyrM-17">
          <mxGeometry y="30" width="200" height="30" as="geometry" />
        </mxCell>
        <mxCell id="Du5RT7D7e3bNgw9wHyrM-19" value="&lt;b&gt;PK,FK1&lt;/b&gt;" style="shape=partialRectangle;connectable=0;fillColor=none;top=0;left=0;bottom=0;right=0;fontStyle=0;overflow=hidden;whiteSpace=wrap;html=1;align=left;verticalAlign=middle;spacingLeft=4;spacingRight=4;fontFamily=Helvetica;fontSize=12;fontColor=default;" vertex="1" parent="Du5RT7D7e3bNgw9wHyrM-18">
          <mxGeometry width="60" height="30" as="geometry">
            <mxRectangle width="60" height="30" as="alternateBounds" />
          </mxGeometry>
        </mxCell>
        <mxCell id="Du5RT7D7e3bNgw9wHyrM-20" value="user_id BIGINT" style="shape=partialRectangle;connectable=0;fillColor=none;top=0;left=0;bottom=0;right=0;align=left;spacingLeft=6;fontStyle=1;overflow=hidden;whiteSpace=wrap;html=1;verticalAlign=middle;spacingRight=4;fontFamily=Helvetica;fontSize=12;fontColor=default;" vertex="1" parent="Du5RT7D7e3bNgw9wHyrM-18">
          <mxGeometry x="60" width="140" height="30" as="geometry">
            <mxRectangle width="140" height="30" as="alternateBounds" />
          </mxGeometry>
        </mxCell>
        <mxCell id="Du5RT7D7e3bNgw9wHyrM-21" style="shape=tableRow;horizontal=0;startSize=0;swimlaneHead=0;swimlaneBody=0;fillColor=none;collapsible=0;dropTarget=0;points=[[0,0.5],[1,0.5]];portConstraint=eastwest;top=0;left=0;right=0;bottom=0;align=left;verticalAlign=middle;spacingLeft=4;spacingRight=4;fontFamily=Helvetica;fontSize=12;fontColor=default;" vertex="1" parent="Du5RT7D7e3bNgw9wHyrM-17">
          <mxGeometry y="60" width="200" height="30" as="geometry" />
        </mxCell>
        <mxCell id="Du5RT7D7e3bNgw9wHyrM-22" value="&lt;b style=&quot;&quot;&gt;PK,FK2&lt;/b&gt;" style="shape=partialRectangle;connectable=0;fillColor=none;top=0;left=0;bottom=0;right=0;fontStyle=0;overflow=hidden;whiteSpace=wrap;html=1;align=left;verticalAlign=middle;spacingLeft=4;spacingRight=4;fontFamily=Helvetica;fontSize=12;fontColor=default;" vertex="1" parent="Du5RT7D7e3bNgw9wHyrM-21">
          <mxGeometry width="60" height="30" as="geometry">
            <mxRectangle width="60" height="30" as="alternateBounds" />
          </mxGeometry>
        </mxCell>
        <mxCell id="Du5RT7D7e3bNgw9wHyrM-23" value="&lt;span style=&quot;text-wrap-mode: nowrap;&quot;&gt;&lt;b&gt;class_id BIGINT&lt;/b&gt;&lt;/span&gt;" style="shape=partialRectangle;connectable=0;fillColor=none;top=0;left=0;bottom=0;right=0;align=left;spacingLeft=6;fontStyle=0;overflow=hidden;whiteSpace=wrap;html=1;verticalAlign=middle;spacingRight=4;fontFamily=Helvetica;fontSize=12;fontColor=default;" vertex="1" parent="Du5RT7D7e3bNgw9wHyrM-21">
          <mxGeometry x="60" width="140" height="30" as="geometry">
            <mxRectangle width="140" height="30" as="alternateBounds" />
          </mxGeometry>
        </mxCell>
        <mxCell id="Du5RT7D7e3bNgw9wHyrM-24" style="shape=tableRow;horizontal=0;startSize=0;swimlaneHead=0;swimlaneBody=0;fillColor=none;collapsible=0;dropTarget=0;points=[[0,0.5],[1,0.5]];portConstraint=eastwest;top=0;left=0;right=0;bottom=0;align=left;verticalAlign=middle;spacingLeft=4;spacingRight=4;fontFamily=Helvetica;fontSize=12;fontColor=default;" vertex="1" parent="Du5RT7D7e3bNgw9wHyrM-17">
          <mxGeometry y="90" width="200" height="30" as="geometry" />
        </mxCell>
        <mxCell id="Du5RT7D7e3bNgw9wHyrM-25" value="&lt;b&gt;PK,FK3&lt;/b&gt;" style="shape=partialRectangle;connectable=0;fillColor=none;top=0;left=0;bottom=0;right=0;fontStyle=0;overflow=hidden;whiteSpace=wrap;html=1;align=left;verticalAlign=middle;spacingLeft=4;spacingRight=4;fontFamily=Helvetica;fontSize=12;fontColor=default;" vertex="1" parent="Du5RT7D7e3bNgw9wHyrM-24">
          <mxGeometry width="60" height="30" as="geometry">
            <mxRectangle width="60" height="30" as="alternateBounds" />
          </mxGeometry>
        </mxCell>
        <mxCell id="Du5RT7D7e3bNgw9wHyrM-26" value="&lt;b&gt;organisation_id INT&lt;/b&gt;" style="shape=partialRectangle;connectable=0;fillColor=none;top=0;left=0;bottom=0;right=0;align=left;spacingLeft=6;fontStyle=0;overflow=hidden;whiteSpace=wrap;html=1;verticalAlign=middle;spacingRight=4;fontFamily=Helvetica;fontSize=12;fontColor=default;" vertex="1" parent="Du5RT7D7e3bNgw9wHyrM-24">
          <mxGeometry x="60" width="140" height="30" as="geometry">
            <mxRectangle width="140" height="30" as="alternateBounds" />
          </mxGeometry>
        </mxCell>
        <mxCell id="Du5RT7D7e3bNgw9wHyrM-27" value="students" style="shape=table;startSize=30;container=1;collapsible=1;childLayout=tableLayout;fixedRows=1;rowLines=0;fontStyle=1;align=center;resizeLast=1;" vertex="1" parent="1">
          <mxGeometry x="4580" y="1590" width="340" height="150" as="geometry" />
        </mxCell>
        <mxCell id="Du5RT7D7e3bNgw9wHyrM-28" value="" style="shape=partialRectangle;collapsible=0;dropTarget=0;pointerEvents=0;fillColor=none;points=[[0,0.5],[1,0.5]];portConstraint=eastwest;top=0;left=0;right=0;bottom=1;" vertex="1" parent="Du5RT7D7e3bNgw9wHyrM-27">
          <mxGeometry y="30" width="340" height="30" as="geometry" />
        </mxCell>
        <mxCell id="Du5RT7D7e3bNgw9wHyrM-29" value="PK, FK" style="shape=partialRectangle;overflow=hidden;connectable=0;fillColor=none;top=0;left=0;bottom=0;right=0;fontStyle=1;" vertex="1" parent="Du5RT7D7e3bNgw9wHyrM-28">
          <mxGeometry width="50" height="30" as="geometry">
            <mxRectangle width="50" height="30" as="alternateBounds" />
          </mxGeometry>
        </mxCell>
        <mxCell id="Du5RT7D7e3bNgw9wHyrM-30" value="user_id BIGINT AUTO_INCREMENT" style="shape=partialRectangle;overflow=hidden;connectable=0;fillColor=none;top=0;left=0;bottom=0;right=0;align=left;spacingLeft=6;fontStyle=1;" vertex="1" parent="Du5RT7D7e3bNgw9wHyrM-28">
          <mxGeometry x="50" width="290" height="30" as="geometry">
            <mxRectangle width="290" height="30" as="alternateBounds" />
          </mxGeometry>
        </mxCell>
        <mxCell id="Du5RT7D7e3bNgw9wHyrM-31" style="shape=partialRectangle;collapsible=0;dropTarget=0;pointerEvents=0;fillColor=none;points=[[0,0.5],[1,0.5]];portConstraint=eastwest;top=0;left=0;right=0;bottom=0;" vertex="1" parent="Du5RT7D7e3bNgw9wHyrM-27">
          <mxGeometry y="60" width="340" height="30" as="geometry" />
        </mxCell>
        <mxCell id="Du5RT7D7e3bNgw9wHyrM-32" style="shape=partialRectangle;overflow=hidden;connectable=0;fillColor=none;top=0;left=0;bottom=0;right=0;" vertex="1" parent="Du5RT7D7e3bNgw9wHyrM-31">
          <mxGeometry width="50" height="30" as="geometry">
            <mxRectangle width="50" height="30" as="alternateBounds" />
          </mxGeometry>
        </mxCell>
        <mxCell id="Du5RT7D7e3bNgw9wHyrM-33" value="access_code MEDIUMINT NOT NULL UNIQUE" style="shape=partialRectangle;overflow=hidden;connectable=0;fillColor=none;top=0;left=0;bottom=0;right=0;align=left;spacingLeft=6;" vertex="1" parent="Du5RT7D7e3bNgw9wHyrM-31">
          <mxGeometry x="50" width="290" height="30" as="geometry">
            <mxRectangle width="290" height="30" as="alternateBounds" />
          </mxGeometry>
        </mxCell>
        <mxCell id="Du5RT7D7e3bNgw9wHyrM-34" style="shape=partialRectangle;collapsible=0;dropTarget=0;pointerEvents=0;fillColor=none;points=[[0,0.5],[1,0.5]];portConstraint=eastwest;top=0;left=0;right=0;bottom=0;" vertex="1" parent="Du5RT7D7e3bNgw9wHyrM-27">
          <mxGeometry y="90" width="340" height="30" as="geometry" />
        </mxCell>
        <mxCell id="Du5RT7D7e3bNgw9wHyrM-35" style="shape=partialRectangle;overflow=hidden;connectable=0;fillColor=none;top=0;left=0;bottom=0;right=0;" vertex="1" parent="Du5RT7D7e3bNgw9wHyrM-34">
          <mxGeometry width="50" height="30" as="geometry">
            <mxRectangle width="50" height="30" as="alternateBounds" />
          </mxGeometry>
        </mxCell>
        <mxCell id="Du5RT7D7e3bNgw9wHyrM-36" value="enrolled_date DATE NOT NULL" style="shape=partialRectangle;overflow=hidden;connectable=0;fillColor=none;top=0;left=0;bottom=0;right=0;align=left;spacingLeft=6;" vertex="1" parent="Du5RT7D7e3bNgw9wHyrM-34">
          <mxGeometry x="50" width="290" height="30" as="geometry">
            <mxRectangle width="290" height="30" as="alternateBounds" />
          </mxGeometry>
        </mxCell>
        <mxCell id="Du5RT7D7e3bNgw9wHyrM-37" style="shape=partialRectangle;collapsible=0;dropTarget=0;pointerEvents=0;fillColor=none;points=[[0,0.5],[1,0.5]];portConstraint=eastwest;top=0;left=0;right=0;bottom=0;" vertex="1" parent="Du5RT7D7e3bNgw9wHyrM-27">
          <mxGeometry y="120" width="340" height="30" as="geometry" />
        </mxCell>
        <mxCell id="Du5RT7D7e3bNgw9wHyrM-38" style="shape=partialRectangle;overflow=hidden;connectable=0;fillColor=none;top=0;left=0;bottom=0;right=0;" vertex="1" parent="Du5RT7D7e3bNgw9wHyrM-37">
          <mxGeometry width="50" height="30" as="geometry">
            <mxRectangle width="50" height="30" as="alternateBounds" />
          </mxGeometry>
        </mxCell>
        <mxCell id="Du5RT7D7e3bNgw9wHyrM-39" value="disability VARCHAR(100)" style="shape=partialRectangle;overflow=hidden;connectable=0;fillColor=none;top=0;left=0;bottom=0;right=0;align=left;spacingLeft=6;" vertex="1" parent="Du5RT7D7e3bNgw9wHyrM-37">
          <mxGeometry x="50" width="290" height="30" as="geometry">
            <mxRectangle width="290" height="30" as="alternateBounds" />
          </mxGeometry>
        </mxCell>
        <mxCell id="Du5RT7D7e3bNgw9wHyrM-40" value="" style="fontSize=12;html=1;endArrow=ERmany;startArrow=ERmandOne;rounded=0;exitX=0.778;exitY=-0.003;exitDx=0;exitDy=0;exitPerimeter=0;endFill=0;elbow=vertical;entryX=0.38;entryY=1.033;entryDx=0;entryDy=0;entryPerimeter=0;edgeStyle=orthogonalEdgeStyle;" edge="1" parent="1" source="Du5RT7D7e3bNgw9wHyrM-70" target="Du5RT7D7e3bNgw9wHyrM-24">
          <mxGeometry width="100" height="100" relative="1" as="geometry">
            <mxPoint x="4386" y="1590" as="sourcePoint" />
            <mxPoint x="4416" y="1360" as="targetPoint" />
          </mxGeometry>
        </mxCell>
        <mxCell id="Du5RT7D7e3bNgw9wHyrM-41" value="" style="fontSize=12;html=1;endArrow=ERmany;startArrow=ERmandOne;rounded=0;endFill=0;entryX=1;entryY=0.5;entryDx=0;entryDy=0;edgeStyle=orthogonalEdgeStyle;exitX=-0.013;exitY=0.145;exitDx=0;exitDy=0;exitPerimeter=0;" edge="1" parent="1" source="Du5RT7D7e3bNgw9wHyrM-8" target="Du5RT7D7e3bNgw9wHyrM-18">
          <mxGeometry width="100" height="100" relative="1" as="geometry">
            <mxPoint x="4770" y="1385" as="sourcePoint" />
            <mxPoint x="4656" y="1380" as="targetPoint" />
          </mxGeometry>
        </mxCell>
        <mxCell id="Du5RT7D7e3bNgw9wHyrM-42" value="assignment" style="shape=table;startSize=30;container=1;collapsible=1;childLayout=tableLayout;fixedRows=1;rowLines=0;fontStyle=1;align=center;resizeLast=1;" vertex="1" parent="1">
          <mxGeometry x="3530" y="1680" width="290" height="150" as="geometry" />
        </mxCell>
        <mxCell id="Du5RT7D7e3bNgw9wHyrM-43" value="" style="shape=partialRectangle;collapsible=0;dropTarget=0;pointerEvents=0;fillColor=none;points=[[0,0.5],[1,0.5]];portConstraint=eastwest;top=0;left=0;right=0;bottom=1;" vertex="1" parent="Du5RT7D7e3bNgw9wHyrM-42">
          <mxGeometry y="30" width="290" height="30" as="geometry" />
        </mxCell>
        <mxCell id="Du5RT7D7e3bNgw9wHyrM-44" value="PK" style="shape=partialRectangle;overflow=hidden;connectable=0;fillColor=none;top=0;left=0;bottom=0;right=0;fontStyle=1;" vertex="1" parent="Du5RT7D7e3bNgw9wHyrM-43">
          <mxGeometry width="30" height="30" as="geometry">
            <mxRectangle width="30" height="30" as="alternateBounds" />
          </mxGeometry>
        </mxCell>
        <mxCell id="Du5RT7D7e3bNgw9wHyrM-45" value="assignment_id BIGINT AUTO_INCREMENTÂ " style="shape=partialRectangle;overflow=hidden;connectable=0;fillColor=none;top=0;left=0;bottom=0;right=0;align=left;spacingLeft=6;fontStyle=1;" vertex="1" parent="Du5RT7D7e3bNgw9wHyrM-43">
          <mxGeometry x="30" width="260" height="30" as="geometry">
            <mxRectangle width="260" height="30" as="alternateBounds" />
          </mxGeometry>
        </mxCell>
        <mxCell id="Du5RT7D7e3bNgw9wHyrM-46" style="shape=partialRectangle;collapsible=0;dropTarget=0;pointerEvents=0;fillColor=none;points=[[0,0.5],[1,0.5]];portConstraint=eastwest;top=0;left=0;right=0;bottom=0;" vertex="1" parent="Du5RT7D7e3bNgw9wHyrM-42">
          <mxGeometry y="60" width="290" height="30" as="geometry" />
        </mxCell>
        <mxCell id="Du5RT7D7e3bNgw9wHyrM-47" style="shape=partialRectangle;overflow=hidden;connectable=0;fillColor=none;top=0;left=0;bottom=0;right=0;" vertex="1" parent="Du5RT7D7e3bNgw9wHyrM-46">
          <mxGeometry width="30" height="30" as="geometry">
            <mxRectangle width="30" height="30" as="alternateBounds" />
          </mxGeometry>
        </mxCell>
        <mxCell id="Du5RT7D7e3bNgw9wHyrM-48" value="assignment_name VARCHAR(20) NOT NULL" style="shape=partialRectangle;overflow=hidden;connectable=0;fillColor=none;top=0;left=0;bottom=0;right=0;align=left;spacingLeft=6;" vertex="1" parent="Du5RT7D7e3bNgw9wHyrM-46">
          <mxGeometry x="30" width="260" height="30" as="geometry">
            <mxRectangle width="260" height="30" as="alternateBounds" />
          </mxGeometry>
        </mxCell>
        <mxCell id="Du5RT7D7e3bNgw9wHyrM-49" style="shape=partialRectangle;collapsible=0;dropTarget=0;pointerEvents=0;fillColor=none;points=[[0,0.5],[1,0.5]];portConstraint=eastwest;top=0;left=0;right=0;bottom=0;" vertex="1" parent="Du5RT7D7e3bNgw9wHyrM-42">
          <mxGeometry y="90" width="290" height="30" as="geometry" />
        </mxCell>
        <mxCell id="Du5RT7D7e3bNgw9wHyrM-50" value="FK" style="shape=partialRectangle;overflow=hidden;connectable=0;fillColor=none;top=0;left=0;bottom=0;right=0;" vertex="1" parent="Du5RT7D7e3bNgw9wHyrM-49">
          <mxGeometry width="30" height="30" as="geometry">
            <mxRectangle width="30" height="30" as="alternateBounds" />
          </mxGeometry>
        </mxCell>
        <mxCell id="Du5RT7D7e3bNgw9wHyrM-51" value="user_id BIGINT NOT NULL" style="shape=partialRectangle;overflow=hidden;connectable=0;fillColor=none;top=0;left=0;bottom=0;right=0;align=left;spacingLeft=6;" vertex="1" parent="Du5RT7D7e3bNgw9wHyrM-49">
          <mxGeometry x="30" width="260" height="30" as="geometry">
            <mxRectangle width="260" height="30" as="alternateBounds" />
          </mxGeometry>
        </mxCell>
        <mxCell id="Du5RT7D7e3bNgw9wHyrM-52" style="shape=partialRectangle;collapsible=0;dropTarget=0;pointerEvents=0;fillColor=none;points=[[0,0.5],[1,0.5]];portConstraint=eastwest;top=0;left=0;right=0;bottom=0;" vertex="1" parent="Du5RT7D7e3bNgw9wHyrM-42">
          <mxGeometry y="120" width="290" height="30" as="geometry" />
        </mxCell>
        <mxCell id="Du5RT7D7e3bNgw9wHyrM-53" style="shape=partialRectangle;overflow=hidden;connectable=0;fillColor=none;top=0;left=0;bottom=0;right=0;" vertex="1" parent="Du5RT7D7e3bNgw9wHyrM-52">
          <mxGeometry width="30" height="30" as="geometry">
            <mxRectangle width="30" height="30" as="alternateBounds" />
          </mxGeometry>
        </mxCell>
        <mxCell id="Du5RT7D7e3bNgw9wHyrM-54" value="submitted_date DATETIME NOT NULL" style="shape=partialRectangle;overflow=hidden;connectable=0;fillColor=none;top=0;left=0;bottom=0;right=0;align=left;spacingLeft=6;" vertex="1" parent="Du5RT7D7e3bNgw9wHyrM-52">
          <mxGeometry x="30" width="260" height="30" as="geometry">
            <mxRectangle width="260" height="30" as="alternateBounds" />
          </mxGeometry>
        </mxCell>
        <mxCell id="Du5RT7D7e3bNgw9wHyrM-55" value="" style="fontSize=12;html=1;endArrow=ERmany;startArrow=ERmandOne;rounded=0;edgeStyle=elbowEdgeStyle;endFill=0;entryX=0.25;entryY=0;entryDx=0;entryDy=0;elbow=vertical;exitX=0.432;exitY=1.033;exitDx=0;exitDy=0;exitPerimeter=0;" edge="1" parent="1" source="Du5RT7D7e3bNgw9wHyrM-52" target="Du5RT7D7e3bNgw9wHyrM-57">
          <mxGeometry width="100" height="100" relative="1" as="geometry">
            <mxPoint x="4846" y="1516" as="sourcePoint" />
            <mxPoint x="4536" y="1480" as="targetPoint" />
          </mxGeometry>
        </mxCell>
        <mxCell id="Du5RT7D7e3bNgw9wHyrM-56" value="" style="fontSize=12;html=1;endArrow=ERmany;startArrow=ERmandOne;rounded=0;edgeStyle=elbowEdgeStyle;endFill=0;exitX=-0.005;exitY=0.183;exitDx=0;exitDy=0;exitPerimeter=0;entryX=1;entryY=0.25;entryDx=0;entryDy=0;" edge="1" parent="1" source="Du5RT7D7e3bNgw9wHyrM-86" target="Du5RT7D7e3bNgw9wHyrM-60">
          <mxGeometry width="100" height="100" relative="1" as="geometry">
            <mxPoint x="4874" y="1537" as="sourcePoint" />
            <mxPoint x="4766" y="1670" as="targetPoint" />
          </mxGeometry>
        </mxCell>
        <mxCell id="Du5RT7D7e3bNgw9wHyrM-57" value="assignment_students" style="shape=table;startSize=30;container=1;collapsible=1;childLayout=tableLayout;fixedRows=1;rowLines=0;fontStyle=1;align=center;resizeLast=1;html=1;whiteSpace=wrap;movable=1;resizable=1;rotatable=1;deletable=1;editable=1;locked=0;connectable=1;" vertex="1" parent="1">
          <mxGeometry x="3470" y="1930" width="290" height="150" as="geometry" />
        </mxCell>
        <mxCell id="Du5RT7D7e3bNgw9wHyrM-58" value="" style="shape=tableRow;horizontal=0;startSize=0;swimlaneHead=0;swimlaneBody=0;fillColor=none;collapsible=0;dropTarget=0;points=[[0,0.5],[1,0.5]];portConstraint=eastwest;top=0;left=0;right=0;bottom=0;html=1;movable=1;resizable=1;rotatable=1;deletable=1;editable=1;locked=0;connectable=1;" vertex="1" parent="Du5RT7D7e3bNgw9wHyrM-57">
          <mxGeometry y="30" width="290" height="30" as="geometry" />
        </mxCell>
        <mxCell id="Du5RT7D7e3bNgw9wHyrM-59" value="PK,FK1" style="shape=partialRectangle;connectable=1;fillColor=none;top=0;left=0;bottom=0;right=0;fontStyle=1;overflow=hidden;html=1;whiteSpace=wrap;movable=1;resizable=1;rotatable=1;deletable=1;editable=1;locked=0;" vertex="1" parent="Du5RT7D7e3bNgw9wHyrM-58">
          <mxGeometry width="60" height="30" as="geometry">
            <mxRectangle width="60" height="30" as="alternateBounds" />
          </mxGeometry>
        </mxCell>
        <mxCell id="Du5RT7D7e3bNgw9wHyrM-60" value="assignment_id BIGINT" style="shape=partialRectangle;connectable=1;fillColor=none;top=0;left=0;bottom=0;right=0;align=left;spacingLeft=6;fontStyle=1;overflow=hidden;html=1;whiteSpace=wrap;movable=1;resizable=1;rotatable=1;deletable=1;editable=1;locked=0;" vertex="1" parent="Du5RT7D7e3bNgw9wHyrM-58">
          <mxGeometry x="60" width="230" height="30" as="geometry">
            <mxRectangle width="230" height="30" as="alternateBounds" />
          </mxGeometry>
        </mxCell>
        <mxCell id="Du5RT7D7e3bNgw9wHyrM-61" value="" style="shape=tableRow;horizontal=0;startSize=0;swimlaneHead=0;swimlaneBody=0;fillColor=none;collapsible=0;dropTarget=0;points=[[0,0.5],[1,0.5]];portConstraint=eastwest;top=0;left=0;right=0;bottom=1;html=1;movable=1;resizable=1;rotatable=1;deletable=1;editable=1;locked=0;connectable=1;" vertex="1" parent="Du5RT7D7e3bNgw9wHyrM-57">
          <mxGeometry y="60" width="290" height="30" as="geometry" />
        </mxCell>
        <mxCell id="Du5RT7D7e3bNgw9wHyrM-62" value="PK,FK2" style="shape=partialRectangle;connectable=1;fillColor=none;top=0;left=0;bottom=0;right=0;fontStyle=1;overflow=hidden;html=1;whiteSpace=wrap;movable=1;resizable=1;rotatable=1;deletable=1;editable=1;locked=0;" vertex="1" parent="Du5RT7D7e3bNgw9wHyrM-61">
          <mxGeometry width="60" height="30" as="geometry">
            <mxRectangle width="60" height="30" as="alternateBounds" />
          </mxGeometry>
        </mxCell>
        <mxCell id="Du5RT7D7e3bNgw9wHyrM-63" value="user_id BIGINT" style="shape=partialRectangle;connectable=1;fillColor=none;top=0;left=0;bottom=0;right=0;align=left;spacingLeft=6;fontStyle=1;overflow=hidden;html=1;whiteSpace=wrap;movable=1;resizable=1;rotatable=1;deletable=1;editable=1;locked=0;" vertex="1" parent="Du5RT7D7e3bNgw9wHyrM-61">
          <mxGeometry x="60" width="230" height="30" as="geometry">
            <mxRectangle width="230" height="30" as="alternateBounds" />
          </mxGeometry>
        </mxCell>
        <mxCell id="Du5RT7D7e3bNgw9wHyrM-64" value="" style="shape=tableRow;horizontal=0;startSize=0;swimlaneHead=0;swimlaneBody=0;fillColor=none;collapsible=0;dropTarget=0;points=[[0,0.5],[1,0.5]];portConstraint=eastwest;top=0;left=0;right=0;bottom=0;html=1;movable=1;resizable=1;rotatable=1;deletable=1;editable=1;locked=0;connectable=1;" vertex="1" parent="Du5RT7D7e3bNgw9wHyrM-57">
          <mxGeometry y="90" width="290" height="30" as="geometry" />
        </mxCell>
        <mxCell id="Du5RT7D7e3bNgw9wHyrM-65" value="" style="shape=partialRectangle;connectable=1;fillColor=none;top=0;left=0;bottom=0;right=0;editable=1;overflow=hidden;html=1;whiteSpace=wrap;movable=1;resizable=1;rotatable=1;deletable=1;locked=0;" vertex="1" parent="Du5RT7D7e3bNgw9wHyrM-64">
          <mxGeometry width="60" height="30" as="geometry">
            <mxRectangle width="60" height="30" as="alternateBounds" />
          </mxGeometry>
        </mxCell>
        <mxCell id="Du5RT7D7e3bNgw9wHyrM-66" value="grade DECIMAL(5,2) DEFAULT 0.00" style="shape=partialRectangle;connectable=1;fillColor=none;top=0;left=0;bottom=0;right=0;align=left;spacingLeft=6;overflow=hidden;html=1;whiteSpace=wrap;movable=1;resizable=1;rotatable=1;deletable=1;editable=1;locked=0;" vertex="1" parent="Du5RT7D7e3bNgw9wHyrM-64">
          <mxGeometry x="60" width="230" height="30" as="geometry">
            <mxRectangle width="230" height="30" as="alternateBounds" />
          </mxGeometry>
        </mxCell>
        <mxCell id="Du5RT7D7e3bNgw9wHyrM-67" value="" style="shape=tableRow;horizontal=0;startSize=0;swimlaneHead=0;swimlaneBody=0;fillColor=none;collapsible=0;dropTarget=0;points=[[0,0.5],[1,0.5]];portConstraint=eastwest;top=0;left=0;right=0;bottom=0;html=1;movable=1;resizable=1;rotatable=1;deletable=1;editable=1;locked=0;connectable=1;" vertex="1" parent="Du5RT7D7e3bNgw9wHyrM-57">
          <mxGeometry y="120" width="290" height="30" as="geometry" />
        </mxCell>
        <mxCell id="Du5RT7D7e3bNgw9wHyrM-68" value="" style="shape=partialRectangle;connectable=1;fillColor=none;top=0;left=0;bottom=0;right=0;editable=1;overflow=hidden;html=1;whiteSpace=wrap;movable=1;resizable=1;rotatable=1;deletable=1;locked=0;" vertex="1" parent="Du5RT7D7e3bNgw9wHyrM-67">
          <mxGeometry width="60" height="30" as="geometry">
            <mxRectangle width="60" height="30" as="alternateBounds" />
          </mxGeometry>
        </mxCell>
        <mxCell id="Du5RT7D7e3bNgw9wHyrM-69" value="feedback TEXT NOT NULL" style="shape=partialRectangle;connectable=1;fillColor=none;top=0;left=0;bottom=0;right=0;align=left;spacingLeft=6;overflow=hidden;html=1;whiteSpace=wrap;movable=1;resizable=1;rotatable=1;deletable=1;editable=1;locked=0;" vertex="1" parent="Du5RT7D7e3bNgw9wHyrM-67">
          <mxGeometry x="60" width="230" height="30" as="geometry">
            <mxRectangle width="230" height="30" as="alternateBounds" />
          </mxGeometry>
        </mxCell>
        <mxCell id="Du5RT7D7e3bNgw9wHyrM-70" value="users" style="shape=table;startSize=30;container=1;collapsible=1;childLayout=tableLayout;fixedRows=1;rowLines=0;fontStyle=1;align=center;resizeLast=1;" vertex="1" parent="1">
          <mxGeometry x="3946" y="1670" width="514" height="370" as="geometry" />
        </mxCell>
        <mxCell id="Du5RT7D7e3bNgw9wHyrM-71" value="" style="shape=partialRectangle;collapsible=0;dropTarget=0;pointerEvents=0;fillColor=none;points=[[0,0.5],[1,0.5]];portConstraint=eastwest;top=0;left=0;right=0;bottom=1;" vertex="1" parent="Du5RT7D7e3bNgw9wHyrM-70">
          <mxGeometry y="30" width="514" height="30" as="geometry" />
        </mxCell>
        <mxCell id="Du5RT7D7e3bNgw9wHyrM-72" value="PK" style="shape=partialRectangle;overflow=hidden;connectable=0;fillColor=none;top=0;left=0;bottom=0;right=0;fontStyle=1;" vertex="1" parent="Du5RT7D7e3bNgw9wHyrM-71">
          <mxGeometry width="30" height="30" as="geometry">
            <mxRectangle width="30" height="30" as="alternateBounds" />
          </mxGeometry>
        </mxCell>
        <mxCell id="Du5RT7D7e3bNgw9wHyrM-73" value="user_id BIGINT AUTO_INCREMENT" style="shape=partialRectangle;overflow=hidden;connectable=0;fillColor=none;top=0;left=0;bottom=0;right=0;align=left;spacingLeft=6;fontStyle=1;" vertex="1" parent="Du5RT7D7e3bNgw9wHyrM-71">
          <mxGeometry x="30" width="484" height="30" as="geometry">
            <mxRectangle width="484" height="30" as="alternateBounds" />
          </mxGeometry>
        </mxCell>
        <mxCell id="Du5RT7D7e3bNgw9wHyrM-74" value="" style="shape=partialRectangle;collapsible=0;dropTarget=0;pointerEvents=0;fillColor=none;points=[[0,0.5],[1,0.5]];portConstraint=eastwest;top=0;left=0;right=0;bottom=0;" vertex="1" parent="Du5RT7D7e3bNgw9wHyrM-70">
          <mxGeometry y="60" width="514" height="30" as="geometry" />
        </mxCell>
        <mxCell id="Du5RT7D7e3bNgw9wHyrM-75" value="" style="shape=partialRectangle;overflow=hidden;connectable=0;fillColor=none;top=0;left=0;bottom=0;right=0;" vertex="1" parent="Du5RT7D7e3bNgw9wHyrM-74">
          <mxGeometry width="30" height="30" as="geometry">
            <mxRectangle width="30" height="30" as="alternateBounds" />
          </mxGeometry>
        </mxCell>
        <mxCell id="Du5RT7D7e3bNgw9wHyrM-76" value="forename VARCHAR(30) NOT NULL" style="shape=partialRectangle;overflow=hidden;connectable=0;fillColor=none;top=0;left=0;bottom=0;right=0;align=left;spacingLeft=6;" vertex="1" parent="Du5RT7D7e3bNgw9wHyrM-74">
          <mxGeometry x="30" width="484" height="30" as="geometry">
            <mxRectangle width="484" height="30" as="alternateBounds" />
          </mxGeometry>
        </mxCell>
        <mxCell id="Du5RT7D7e3bNgw9wHyrM-77" style="shape=partialRectangle;collapsible=0;dropTarget=0;pointerEvents=0;fillColor=none;points=[[0,0.5],[1,0.5]];portConstraint=eastwest;top=0;left=0;right=0;bottom=0;" vertex="1" parent="Du5RT7D7e3bNgw9wHyrM-70">
          <mxGeometry y="90" width="514" height="30" as="geometry" />
        </mxCell>
        <mxCell id="Du5RT7D7e3bNgw9wHyrM-78" style="shape=partialRectangle;overflow=hidden;connectable=0;fillColor=none;top=0;left=0;bottom=0;right=0;" vertex="1" parent="Du5RT7D7e3bNgw9wHyrM-77">
          <mxGeometry width="30" height="30" as="geometry">
            <mxRectangle width="30" height="30" as="alternateBounds" />
          </mxGeometry>
        </mxCell>
        <mxCell id="Du5RT7D7e3bNgw9wHyrM-79" value="surname VARCHAR(30) NOT NULL" style="shape=partialRectangle;overflow=hidden;connectable=0;fillColor=none;top=0;left=0;bottom=0;right=0;align=left;spacingLeft=6;" vertex="1" parent="Du5RT7D7e3bNgw9wHyrM-77">
          <mxGeometry x="30" width="484" height="30" as="geometry">
            <mxRectangle width="484" height="30" as="alternateBounds" />
          </mxGeometry>
        </mxCell>
        <mxCell id="Du5RT7D7e3bNgw9wHyrM-80" style="shape=partialRectangle;collapsible=0;dropTarget=0;pointerEvents=0;fillColor=none;points=[[0,0.5],[1,0.5]];portConstraint=eastwest;top=0;left=0;right=0;bottom=0;" vertex="1" parent="Du5RT7D7e3bNgw9wHyrM-70">
          <mxGeometry y="120" width="514" height="30" as="geometry" />
        </mxCell>
        <mxCell id="Du5RT7D7e3bNgw9wHyrM-81" value="FK" style="shape=partialRectangle;overflow=hidden;connectable=0;fillColor=none;top=0;left=0;bottom=0;right=0;" vertex="1" parent="Du5RT7D7e3bNgw9wHyrM-80">
          <mxGeometry width="30" height="30" as="geometry">
            <mxRectangle width="30" height="30" as="alternateBounds" />
          </mxGeometry>
        </mxCell>
        <mxCell id="Du5RT7D7e3bNgw9wHyrM-82" value="organisation_id INT NOT NULL" style="shape=partialRectangle;overflow=hidden;connectable=0;fillColor=none;top=0;left=0;bottom=0;right=0;align=left;spacingLeft=6;" vertex="1" parent="Du5RT7D7e3bNgw9wHyrM-80">
          <mxGeometry x="30" width="484" height="30" as="geometry">
            <mxRectangle width="484" height="30" as="alternateBounds" />
          </mxGeometry>
        </mxCell>
        <mxCell id="Du5RT7D7e3bNgw9wHyrM-83" style="shape=partialRectangle;collapsible=0;dropTarget=0;pointerEvents=0;fillColor=none;points=[[0,0.5],[1,0.5]];portConstraint=eastwest;top=0;left=0;right=0;bottom=0;" vertex="1" parent="Du5RT7D7e3bNgw9wHyrM-70">
          <mxGeometry y="150" width="514" height="30" as="geometry" />
        </mxCell>
        <mxCell id="Du5RT7D7e3bNgw9wHyrM-84" style="shape=partialRectangle;overflow=hidden;connectable=0;fillColor=none;top=0;left=0;bottom=0;right=0;" vertex="1" parent="Du5RT7D7e3bNgw9wHyrM-83">
          <mxGeometry width="30" height="30" as="geometry">
            <mxRectangle width="30" height="30" as="alternateBounds" />
          </mxGeometry>
        </mxCell>
        <mxCell id="Du5RT7D7e3bNgw9wHyrM-85" value="roles ENUM(&#39;Student&#39;, &#39;Teacher&#39;, &#39;Admin&#39;, &#39;Principal&#39;, &#39;Developer&#39;, &#39;Member&#39;) NOT NULL" style="shape=partialRectangle;overflow=hidden;connectable=0;fillColor=none;top=0;left=0;bottom=0;right=0;align=left;spacingLeft=6;" vertex="1" parent="Du5RT7D7e3bNgw9wHyrM-83">
          <mxGeometry x="30" width="484" height="30" as="geometry">
            <mxRectangle width="484" height="30" as="alternateBounds" />
          </mxGeometry>
        </mxCell>
        <mxCell id="Du5RT7D7e3bNgw9wHyrM-86" style="shape=partialRectangle;collapsible=0;dropTarget=0;pointerEvents=0;fillColor=none;points=[[0,0.5],[1,0.5]];portConstraint=eastwest;top=0;left=0;right=0;bottom=0;" vertex="1" parent="Du5RT7D7e3bNgw9wHyrM-70">
          <mxGeometry y="180" width="514" height="30" as="geometry" />
        </mxCell>
        <mxCell id="Du5RT7D7e3bNgw9wHyrM-87" style="shape=partialRectangle;overflow=hidden;connectable=0;fillColor=none;top=0;left=0;bottom=0;right=0;" vertex="1" parent="Du5RT7D7e3bNgw9wHyrM-86">
          <mxGeometry width="30" height="30" as="geometry">
            <mxRectangle width="30" height="30" as="alternateBounds" />
          </mxGeometry>
        </mxCell>
        <mxCell id="Du5RT7D7e3bNgw9wHyrM-88" value="hashed_password VARCHAR(50) NOT NULL" style="shape=partialRectangle;overflow=hidden;connectable=0;fillColor=none;top=0;left=0;bottom=0;right=0;align=left;spacingLeft=6;" vertex="1" parent="Du5RT7D7e3bNgw9wHyrM-86">
          <mxGeometry x="30" width="484" height="30" as="geometry">
            <mxRectangle width="484" height="30" as="alternateBounds" />
          </mxGeometry>
        </mxCell>
        <mxCell id="Du5RT7D7e3bNgw9wHyrM-89" style="shape=partialRectangle;collapsible=0;dropTarget=0;pointerEvents=0;fillColor=none;points=[[0,0.5],[1,0.5]];portConstraint=eastwest;top=0;left=0;right=0;bottom=0;" vertex="1" parent="Du5RT7D7e3bNgw9wHyrM-70">
          <mxGeometry y="210" width="514" height="30" as="geometry" />
        </mxCell>
        <mxCell id="Du5RT7D7e3bNgw9wHyrM-90" style="shape=partialRectangle;overflow=hidden;connectable=0;fillColor=none;top=0;left=0;bottom=0;right=0;" vertex="1" parent="Du5RT7D7e3bNgw9wHyrM-89">
          <mxGeometry width="30" height="30" as="geometry">
            <mxRectangle width="30" height="30" as="alternateBounds" />
          </mxGeometry>
        </mxCell>
        <mxCell id="Du5RT7D7e3bNgw9wHyrM-91" value="dob DATE NOT NULL" style="shape=partialRectangle;overflow=hidden;connectable=0;fillColor=none;top=0;left=0;bottom=0;right=0;align=left;spacingLeft=6;" vertex="1" parent="Du5RT7D7e3bNgw9wHyrM-89">
          <mxGeometry x="30" width="484" height="30" as="geometry">
            <mxRectangle width="484" height="30" as="alternateBounds" />
          </mxGeometry>
        </mxCell>
        <mxCell id="Du5RT7D7e3bNgw9wHyrM-92" style="shape=partialRectangle;collapsible=0;dropTarget=0;pointerEvents=0;fillColor=none;points=[[0,0.5],[1,0.5]];portConstraint=eastwest;top=0;left=0;right=0;bottom=0;" vertex="1" parent="Du5RT7D7e3bNgw9wHyrM-70">
          <mxGeometry y="240" width="514" height="30" as="geometry" />
        </mxCell>
        <mxCell id="Du5RT7D7e3bNgw9wHyrM-93" style="shape=partialRectangle;overflow=hidden;connectable=0;fillColor=none;top=0;left=0;bottom=0;right=0;" vertex="1" parent="Du5RT7D7e3bNgw9wHyrM-92">
          <mxGeometry width="30" height="30" as="geometry">
            <mxRectangle width="30" height="30" as="alternateBounds" />
          </mxGeometry>
        </mxCell>
        <mxCell id="Du5RT7D7e3bNgw9wHyrM-94" value="email VARCHAR(255) NOT NULL UNIQUE" style="shape=partialRectangle;overflow=hidden;connectable=0;fillColor=none;top=0;left=0;bottom=0;right=0;align=left;spacingLeft=6;" vertex="1" parent="Du5RT7D7e3bNgw9wHyrM-92">
          <mxGeometry x="30" width="484" height="30" as="geometry">
            <mxRectangle width="484" height="30" as="alternateBounds" />
          </mxGeometry>
        </mxCell>
        <mxCell id="Du5RT7D7e3bNgw9wHyrM-95" style="shape=partialRectangle;collapsible=0;dropTarget=0;pointerEvents=0;fillColor=none;points=[[0,0.5],[1,0.5]];portConstraint=eastwest;top=0;left=0;right=0;bottom=0;" vertex="1" parent="Du5RT7D7e3bNgw9wHyrM-70">
          <mxGeometry y="270" width="514" height="30" as="geometry" />
        </mxCell>
        <mxCell id="Du5RT7D7e3bNgw9wHyrM-96" style="shape=partialRectangle;overflow=hidden;connectable=0;fillColor=none;top=0;left=0;bottom=0;right=0;" vertex="1" parent="Du5RT7D7e3bNgw9wHyrM-95">
          <mxGeometry width="30" height="30" as="geometry">
            <mxRectangle width="30" height="30" as="alternateBounds" />
          </mxGeometry>
        </mxCell>
        <mxCell id="Du5RT7D7e3bNgw9wHyrM-97" value="profile_pic BLOB" style="shape=partialRectangle;overflow=hidden;connectable=0;fillColor=none;top=0;left=0;bottom=0;right=0;align=left;spacingLeft=6;" vertex="1" parent="Du5RT7D7e3bNgw9wHyrM-95">
          <mxGeometry x="30" width="484" height="30" as="geometry">
            <mxRectangle width="484" height="30" as="alternateBounds" />
          </mxGeometry>
        </mxCell>
        <mxCell id="Du5RT7D7e3bNgw9wHyrM-98" style="shape=partialRectangle;collapsible=0;dropTarget=0;pointerEvents=0;fillColor=none;points=[[0,0.5],[1,0.5]];portConstraint=eastwest;top=0;left=0;right=0;bottom=0;" vertex="1" parent="Du5RT7D7e3bNgw9wHyrM-70">
          <mxGeometry y="300" width="514" height="30" as="geometry" />
        </mxCell>
        <mxCell id="Du5RT7D7e3bNgw9wHyrM-99" style="shape=partialRectangle;overflow=hidden;connectable=0;fillColor=none;top=0;left=0;bottom=0;right=0;" vertex="1" parent="Du5RT7D7e3bNgw9wHyrM-98">
          <mxGeometry width="30" height="30" as="geometry">
            <mxRectangle width="30" height="30" as="alternateBounds" />
          </mxGeometry>
        </mxCell>
        <mxCell id="Du5RT7D7e3bNgw9wHyrM-100" value="profile_background_image MEDIUMBLOB" style="shape=partialRectangle;overflow=hidden;connectable=0;fillColor=none;top=0;left=0;bottom=0;right=0;align=left;spacingLeft=6;" vertex="1" parent="Du5RT7D7e3bNgw9wHyrM-98">
          <mxGeometry x="30" width="484" height="30" as="geometry">
            <mxRectangle width="484" height="30" as="alternateBounds" />
          </mxGeometry>
        </mxCell>
        <mxCell id="Du5RT7D7e3bNgw9wHyrM-101" style="shape=partialRectangle;collapsible=0;dropTarget=0;pointerEvents=0;fillColor=none;points=[[0,0.5],[1,0.5]];portConstraint=eastwest;top=0;left=0;right=0;bottom=0;" vertex="1" parent="Du5RT7D7e3bNgw9wHyrM-70">
          <mxGeometry y="330" width="514" height="30" as="geometry" />
        </mxCell>
        <mxCell id="Du5RT7D7e3bNgw9wHyrM-102" style="shape=partialRectangle;overflow=hidden;connectable=0;fillColor=none;top=0;left=0;bottom=0;right=0;" vertex="1" parent="Du5RT7D7e3bNgw9wHyrM-101">
          <mxGeometry width="30" height="30" as="geometry">
            <mxRectangle width="30" height="30" as="alternateBounds" />
          </mxGeometry>
        </mxCell>
        <mxCell id="Du5RT7D7e3bNgw9wHyrM-103" value="profile_bio VARCHAR(625)" style="shape=partialRectangle;overflow=hidden;connectable=0;fillColor=none;top=0;left=0;bottom=0;right=0;align=left;spacingLeft=6;" vertex="1" parent="Du5RT7D7e3bNgw9wHyrM-101">
          <mxGeometry x="30" width="484" height="30" as="geometry">
            <mxRectangle width="484" height="30" as="alternateBounds" />
          </mxGeometry>
        </mxCell>
        <mxCell id="Du5RT7D7e3bNgw9wHyrM-104" value="" style="fontSize=12;html=1;endArrow=ERmany;startArrow=ERmandOne;rounded=0;edgeStyle=elbowEdgeStyle;endFill=0;entryX=1;entryY=0.5;entryDx=0;entryDy=0;exitX=-0.004;exitY=-0.029;exitDx=0;exitDy=0;exitPerimeter=0;" edge="1" parent="1" source="Du5RT7D7e3bNgw9wHyrM-162" target="Du5RT7D7e3bNgw9wHyrM-24">
          <mxGeometry width="100" height="100" relative="1" as="geometry">
            <mxPoint x="4926" y="1725" as="sourcePoint" />
            <mxPoint x="4626" y="1330" as="targetPoint" />
            <Array as="points">
              <mxPoint x="4550" y="1510" />
            </Array>
          </mxGeometry>
        </mxCell>
        <mxCell id="Du5RT7D7e3bNgw9wHyrM-105" value="digital_library_storage" style="shape=table;startSize=30;container=1;collapsible=1;childLayout=tableLayout;fixedRows=1;rowLines=0;fontStyle=1;align=center;resizeLast=1;" vertex="1" parent="1">
          <mxGeometry x="4710" y="1880" width="310" height="270" as="geometry" />
        </mxCell>
        <mxCell id="Du5RT7D7e3bNgw9wHyrM-106" value="" style="shape=partialRectangle;collapsible=0;dropTarget=0;pointerEvents=0;fillColor=none;points=[[0,0.5],[1,0.5]];portConstraint=eastwest;top=0;left=0;right=0;bottom=1;" vertex="1" parent="Du5RT7D7e3bNgw9wHyrM-105">
          <mxGeometry y="30" width="310" height="30" as="geometry" />
        </mxCell>
        <mxCell id="Du5RT7D7e3bNgw9wHyrM-107" value="PK" style="shape=partialRectangle;overflow=hidden;connectable=0;fillColor=none;top=0;left=0;bottom=0;right=0;fontStyle=1;" vertex="1" parent="Du5RT7D7e3bNgw9wHyrM-106">
          <mxGeometry width="30" height="30" as="geometry">
            <mxRectangle width="30" height="30" as="alternateBounds" />
          </mxGeometry>
        </mxCell>
        <mxCell id="Du5RT7D7e3bNgw9wHyrM-108" value="content_id BIGINT AUTO_INCREMENT" style="shape=partialRectangle;overflow=hidden;connectable=0;fillColor=none;top=0;left=0;bottom=0;right=0;align=left;spacingLeft=6;fontStyle=1;" vertex="1" parent="Du5RT7D7e3bNgw9wHyrM-106">
          <mxGeometry x="30" width="280" height="30" as="geometry">
            <mxRectangle width="280" height="30" as="alternateBounds" />
          </mxGeometry>
        </mxCell>
        <mxCell id="Du5RT7D7e3bNgw9wHyrM-109" style="shape=partialRectangle;collapsible=0;dropTarget=0;pointerEvents=0;fillColor=none;points=[[0,0.5],[1,0.5]];portConstraint=eastwest;top=0;left=0;right=0;bottom=0;" vertex="1" parent="Du5RT7D7e3bNgw9wHyrM-105">
          <mxGeometry y="60" width="310" height="30" as="geometry" />
        </mxCell>
        <mxCell id="Du5RT7D7e3bNgw9wHyrM-110" value="FK" style="shape=partialRectangle;overflow=hidden;connectable=0;fillColor=none;top=0;left=0;bottom=0;right=0;" vertex="1" parent="Du5RT7D7e3bNgw9wHyrM-109">
          <mxGeometry width="30" height="30" as="geometry">
            <mxRectangle width="30" height="30" as="alternateBounds" />
          </mxGeometry>
        </mxCell>
        <mxCell id="Du5RT7D7e3bNgw9wHyrM-111" value="user_id BIGINT NOT NULL" style="shape=partialRectangle;overflow=hidden;connectable=0;fillColor=none;top=0;left=0;bottom=0;right=0;align=left;spacingLeft=6;" vertex="1" parent="Du5RT7D7e3bNgw9wHyrM-109">
          <mxGeometry x="30" width="280" height="30" as="geometry">
            <mxRectangle width="280" height="30" as="alternateBounds" />
          </mxGeometry>
        </mxCell>
        <mxCell id="Du5RT7D7e3bNgw9wHyrM-112" style="shape=partialRectangle;collapsible=0;dropTarget=0;pointerEvents=0;fillColor=none;points=[[0,0.5],[1,0.5]];portConstraint=eastwest;top=0;left=0;right=0;bottom=0;" vertex="1" parent="Du5RT7D7e3bNgw9wHyrM-105">
          <mxGeometry y="90" width="310" height="30" as="geometry" />
        </mxCell>
        <mxCell id="Du5RT7D7e3bNgw9wHyrM-113" value="FK" style="shape=partialRectangle;overflow=hidden;connectable=0;fillColor=none;top=0;left=0;bottom=0;right=0;" vertex="1" parent="Du5RT7D7e3bNgw9wHyrM-112">
          <mxGeometry width="30" height="30" as="geometry">
            <mxRectangle width="30" height="30" as="alternateBounds" />
          </mxGeometry>
        </mxCell>
        <mxCell id="Du5RT7D7e3bNgw9wHyrM-114" value="organisation_id INT NOT NULL" style="shape=partialRectangle;overflow=hidden;connectable=0;fillColor=none;top=0;left=0;bottom=0;right=0;align=left;spacingLeft=6;" vertex="1" parent="Du5RT7D7e3bNgw9wHyrM-112">
          <mxGeometry x="30" width="280" height="30" as="geometry">
            <mxRectangle width="280" height="30" as="alternateBounds" />
          </mxGeometry>
        </mxCell>
        <mxCell id="Du5RT7D7e3bNgw9wHyrM-115" value="" style="shape=partialRectangle;collapsible=0;dropTarget=0;pointerEvents=0;fillColor=none;points=[[0,0.5],[1,0.5]];portConstraint=eastwest;top=0;left=0;right=0;bottom=0;" vertex="1" parent="Du5RT7D7e3bNgw9wHyrM-105">
          <mxGeometry y="120" width="310" height="30" as="geometry" />
        </mxCell>
        <mxCell id="Du5RT7D7e3bNgw9wHyrM-116" value="" style="shape=partialRectangle;overflow=hidden;connectable=0;fillColor=none;top=0;left=0;bottom=0;right=0;" vertex="1" parent="Du5RT7D7e3bNgw9wHyrM-115">
          <mxGeometry width="30" height="30" as="geometry">
            <mxRectangle width="30" height="30" as="alternateBounds" />
          </mxGeometry>
        </mxCell>
        <mxCell id="Du5RT7D7e3bNgw9wHyrM-117" value="uploaded_date DATETIME NOT NULL" style="shape=partialRectangle;overflow=hidden;connectable=0;fillColor=none;top=0;left=0;bottom=0;right=0;align=left;spacingLeft=6;" vertex="1" parent="Du5RT7D7e3bNgw9wHyrM-115">
          <mxGeometry x="30" width="280" height="30" as="geometry">
            <mxRectangle width="280" height="30" as="alternateBounds" />
          </mxGeometry>
        </mxCell>
        <mxCell id="Du5RT7D7e3bNgw9wHyrM-118" value="" style="shape=partialRectangle;collapsible=0;dropTarget=0;pointerEvents=0;fillColor=none;points=[[0,0.5],[1,0.5]];portConstraint=eastwest;top=0;left=0;right=0;bottom=0;" vertex="1" parent="Du5RT7D7e3bNgw9wHyrM-105">
          <mxGeometry y="150" width="310" height="30" as="geometry" />
        </mxCell>
        <mxCell id="Du5RT7D7e3bNgw9wHyrM-119" value="" style="shape=partialRectangle;overflow=hidden;connectable=0;fillColor=none;top=0;left=0;bottom=0;right=0;" vertex="1" parent="Du5RT7D7e3bNgw9wHyrM-118">
          <mxGeometry width="30" height="30" as="geometry">
            <mxRectangle width="30" height="30" as="alternateBounds" />
          </mxGeometry>
        </mxCell>
        <mxCell id="Du5RT7D7e3bNgw9wHyrM-120" value="file_name VARCHAR(100) NOT NULL" style="shape=partialRectangle;overflow=hidden;connectable=0;fillColor=none;top=0;left=0;bottom=0;right=0;align=left;spacingLeft=6;" vertex="1" parent="Du5RT7D7e3bNgw9wHyrM-118">
          <mxGeometry x="30" width="280" height="30" as="geometry">
            <mxRectangle width="280" height="30" as="alternateBounds" />
          </mxGeometry>
        </mxCell>
        <mxCell id="Du5RT7D7e3bNgw9wHyrM-121" style="shape=partialRectangle;collapsible=0;dropTarget=0;pointerEvents=0;fillColor=none;points=[[0,0.5],[1,0.5]];portConstraint=eastwest;top=0;left=0;right=0;bottom=0;" vertex="1" parent="Du5RT7D7e3bNgw9wHyrM-105">
          <mxGeometry y="180" width="310" height="30" as="geometry" />
        </mxCell>
        <mxCell id="Du5RT7D7e3bNgw9wHyrM-122" style="shape=partialRectangle;overflow=hidden;connectable=0;fillColor=none;top=0;left=0;bottom=0;right=0;" vertex="1" parent="Du5RT7D7e3bNgw9wHyrM-121">
          <mxGeometry width="30" height="30" as="geometry">
            <mxRectangle width="30" height="30" as="alternateBounds" />
          </mxGeometry>
        </mxCell>
        <mxCell id="Du5RT7D7e3bNgw9wHyrM-123" value="file_link TEXT NOT NULL" style="shape=partialRectangle;overflow=hidden;connectable=0;fillColor=none;top=0;left=0;bottom=0;right=0;align=left;spacingLeft=6;" vertex="1" parent="Du5RT7D7e3bNgw9wHyrM-121">
          <mxGeometry x="30" width="280" height="30" as="geometry">
            <mxRectangle width="280" height="30" as="alternateBounds" />
          </mxGeometry>
        </mxCell>
        <mxCell id="Du5RT7D7e3bNgw9wHyrM-124" style="shape=partialRectangle;collapsible=0;dropTarget=0;pointerEvents=0;fillColor=none;points=[[0,0.5],[1,0.5]];portConstraint=eastwest;top=0;left=0;right=0;bottom=0;" vertex="1" parent="Du5RT7D7e3bNgw9wHyrM-105">
          <mxGeometry y="210" width="310" height="30" as="geometry" />
        </mxCell>
        <mxCell id="Du5RT7D7e3bNgw9wHyrM-125" style="shape=partialRectangle;overflow=hidden;connectable=0;fillColor=none;top=0;left=0;bottom=0;right=0;" vertex="1" parent="Du5RT7D7e3bNgw9wHyrM-124">
          <mxGeometry width="30" height="30" as="geometry">
            <mxRectangle width="30" height="30" as="alternateBounds" />
          </mxGeometry>
        </mxCell>
        <mxCell id="Du5RT7D7e3bNgw9wHyrM-126" value="file_info TEXT NOT NULL" style="shape=partialRectangle;overflow=hidden;connectable=0;fillColor=none;top=0;left=0;bottom=0;right=0;align=left;spacingLeft=6;" vertex="1" parent="Du5RT7D7e3bNgw9wHyrM-124">
          <mxGeometry x="30" width="280" height="30" as="geometry">
            <mxRectangle width="280" height="30" as="alternateBounds" />
          </mxGeometry>
        </mxCell>
        <mxCell id="Du5RT7D7e3bNgw9wHyrM-127" style="shape=partialRectangle;collapsible=0;dropTarget=0;pointerEvents=0;fillColor=none;points=[[0,0.5],[1,0.5]];portConstraint=eastwest;top=0;left=0;right=0;bottom=0;" vertex="1" parent="Du5RT7D7e3bNgw9wHyrM-105">
          <mxGeometry y="240" width="310" height="30" as="geometry" />
        </mxCell>
        <mxCell id="Du5RT7D7e3bNgw9wHyrM-128" style="shape=partialRectangle;overflow=hidden;connectable=0;fillColor=none;top=0;left=0;bottom=0;right=0;" vertex="1" parent="Du5RT7D7e3bNgw9wHyrM-127">
          <mxGeometry width="30" height="30" as="geometry">
            <mxRectangle width="30" height="30" as="alternateBounds" />
          </mxGeometry>
        </mxCell>
        <mxCell id="Du5RT7D7e3bNgw9wHyrM-129" value="views BIGINT NOT NULL" style="shape=partialRectangle;overflow=hidden;connectable=0;fillColor=none;top=0;left=0;bottom=0;right=0;align=left;spacingLeft=6;" vertex="1" parent="Du5RT7D7e3bNgw9wHyrM-127">
          <mxGeometry x="30" width="280" height="30" as="geometry">
            <mxRectangle width="280" height="30" as="alternateBounds" />
          </mxGeometry>
        </mxCell>
        <mxCell id="Du5RT7D7e3bNgw9wHyrM-130" value="user_analytics_table" style="shape=table;startSize=30;container=1;collapsible=1;childLayout=tableLayout;fixedRows=1;rowLines=0;fontStyle=1;align=center;resizeLast=1;" vertex="1" parent="1">
          <mxGeometry x="4200" y="2535.5" width="360" height="330" as="geometry" />
        </mxCell>
        <mxCell id="Du5RT7D7e3bNgw9wHyrM-131" value="" style="shape=partialRectangle;collapsible=0;dropTarget=0;pointerEvents=0;fillColor=none;points=[[0,0.5],[1,0.5]];portConstraint=eastwest;top=0;left=0;right=0;bottom=1;" vertex="1" parent="Du5RT7D7e3bNgw9wHyrM-130">
          <mxGeometry y="30" width="360" height="30" as="geometry" />
        </mxCell>
        <mxCell id="Du5RT7D7e3bNgw9wHyrM-132" value="PK, FK" style="shape=partialRectangle;overflow=hidden;connectable=0;fillColor=none;top=0;left=0;bottom=0;right=0;fontStyle=1;" vertex="1" parent="Du5RT7D7e3bNgw9wHyrM-131">
          <mxGeometry width="50" height="30" as="geometry">
            <mxRectangle width="50" height="30" as="alternateBounds" />
          </mxGeometry>
        </mxCell>
        <mxCell id="Du5RT7D7e3bNgw9wHyrM-133" value="user_id BIGINT AUTO_INCREMENT PRIMARY KEY" style="shape=partialRectangle;overflow=hidden;connectable=0;fillColor=none;top=0;left=0;bottom=0;right=0;align=left;spacingLeft=6;fontStyle=1;" vertex="1" parent="Du5RT7D7e3bNgw9wHyrM-131">
          <mxGeometry x="50" width="310" height="30" as="geometry">
            <mxRectangle width="310" height="30" as="alternateBounds" />
          </mxGeometry>
        </mxCell>
        <mxCell id="Du5RT7D7e3bNgw9wHyrM-134" value="" style="shape=partialRectangle;collapsible=0;dropTarget=0;pointerEvents=0;fillColor=none;points=[[0,0.5],[1,0.5]];portConstraint=eastwest;top=0;left=0;right=0;bottom=0;" vertex="1" parent="Du5RT7D7e3bNgw9wHyrM-130">
          <mxGeometry y="60" width="360" height="30" as="geometry" />
        </mxCell>
        <mxCell id="Du5RT7D7e3bNgw9wHyrM-135" value="" style="shape=partialRectangle;overflow=hidden;connectable=0;fillColor=none;top=0;left=0;bottom=0;right=0;" vertex="1" parent="Du5RT7D7e3bNgw9wHyrM-134">
          <mxGeometry width="50" height="30" as="geometry">
            <mxRectangle width="50" height="30" as="alternateBounds" />
          </mxGeometry>
        </mxCell>
        <mxCell id="Du5RT7D7e3bNgw9wHyrM-136" value="age&#x9;TINYINT UNSIGNED NOT NULL" style="shape=partialRectangle;overflow=hidden;connectable=0;fillColor=none;top=0;left=0;bottom=0;right=0;align=left;spacingLeft=6;fontStyle=0" vertex="1" parent="Du5RT7D7e3bNgw9wHyrM-134">
          <mxGeometry x="50" width="310" height="30" as="geometry">
            <mxRectangle width="310" height="30" as="alternateBounds" />
          </mxGeometry>
        </mxCell>
        <mxCell id="Du5RT7D7e3bNgw9wHyrM-137" value="" style="shape=partialRectangle;collapsible=0;dropTarget=0;pointerEvents=0;fillColor=none;points=[[0,0.5],[1,0.5]];portConstraint=eastwest;top=0;left=0;right=0;bottom=0;" vertex="1" parent="Du5RT7D7e3bNgw9wHyrM-130">
          <mxGeometry y="90" width="360" height="30" as="geometry" />
        </mxCell>
        <mxCell id="Du5RT7D7e3bNgw9wHyrM-138" value="" style="shape=partialRectangle;overflow=hidden;connectable=0;fillColor=none;top=0;left=0;bottom=0;right=0;" vertex="1" parent="Du5RT7D7e3bNgw9wHyrM-137">
          <mxGeometry width="50" height="30" as="geometry">
            <mxRectangle width="50" height="30" as="alternateBounds" />
          </mxGeometry>
        </mxCell>
        <mxCell id="Du5RT7D7e3bNgw9wHyrM-139" value="gender ENUM(&#39;Male&#39;, &#39;Female&#39;, &#39;Other&#39;)&#x9;NOT NULL" style="shape=partialRectangle;overflow=hidden;connectable=0;fillColor=none;top=0;left=0;bottom=0;right=0;align=left;spacingLeft=6;" vertex="1" parent="Du5RT7D7e3bNgw9wHyrM-137">
          <mxGeometry x="50" width="310" height="30" as="geometry">
            <mxRectangle width="310" height="30" as="alternateBounds" />
          </mxGeometry>
        </mxCell>
        <mxCell id="Du5RT7D7e3bNgw9wHyrM-140" style="shape=partialRectangle;collapsible=0;dropTarget=0;pointerEvents=0;fillColor=none;points=[[0,0.5],[1,0.5]];portConstraint=eastwest;top=0;left=0;right=0;bottom=0;" vertex="1" parent="Du5RT7D7e3bNgw9wHyrM-130">
          <mxGeometry y="120" width="360" height="30" as="geometry" />
        </mxCell>
        <mxCell id="Du5RT7D7e3bNgw9wHyrM-141" style="shape=partialRectangle;overflow=hidden;connectable=0;fillColor=none;top=0;left=0;bottom=0;right=0;" vertex="1" parent="Du5RT7D7e3bNgw9wHyrM-140">
          <mxGeometry width="50" height="30" as="geometry">
            <mxRectangle width="50" height="30" as="alternateBounds" />
          </mxGeometry>
        </mxCell>
        <mxCell id="Du5RT7D7e3bNgw9wHyrM-142" value="country VARCHAR(60) NOT NULL" style="shape=partialRectangle;overflow=hidden;connectable=0;fillColor=none;top=0;left=0;bottom=0;right=0;align=left;spacingLeft=6;" vertex="1" parent="Du5RT7D7e3bNgw9wHyrM-140">
          <mxGeometry x="50" width="310" height="30" as="geometry">
            <mxRectangle width="310" height="30" as="alternateBounds" />
          </mxGeometry>
        </mxCell>
        <mxCell id="Du5RT7D7e3bNgw9wHyrM-143" style="shape=partialRectangle;collapsible=0;dropTarget=0;pointerEvents=0;fillColor=none;points=[[0,0.5],[1,0.5]];portConstraint=eastwest;top=0;left=0;right=0;bottom=0;" vertex="1" parent="Du5RT7D7e3bNgw9wHyrM-130">
          <mxGeometry y="150" width="360" height="30" as="geometry" />
        </mxCell>
        <mxCell id="Du5RT7D7e3bNgw9wHyrM-144" style="shape=partialRectangle;overflow=hidden;connectable=0;fillColor=none;top=0;left=0;bottom=0;right=0;" vertex="1" parent="Du5RT7D7e3bNgw9wHyrM-143">
          <mxGeometry width="50" height="30" as="geometry">
            <mxRectangle width="50" height="30" as="alternateBounds" />
          </mxGeometry>
        </mxCell>
        <mxCell id="Du5RT7D7e3bNgw9wHyrM-145" value="last_active DATETIME NOT NULL" style="shape=partialRectangle;overflow=hidden;connectable=0;fillColor=none;top=0;left=0;bottom=0;right=0;align=left;spacingLeft=6;" vertex="1" parent="Du5RT7D7e3bNgw9wHyrM-143">
          <mxGeometry x="50" width="310" height="30" as="geometry">
            <mxRectangle width="310" height="30" as="alternateBounds" />
          </mxGeometry>
        </mxCell>
        <mxCell id="Du5RT7D7e3bNgw9wHyrM-146" style="shape=partialRectangle;collapsible=0;dropTarget=0;pointerEvents=0;fillColor=none;points=[[0,0.5],[1,0.5]];portConstraint=eastwest;top=0;left=0;right=0;bottom=0;" vertex="1" parent="Du5RT7D7e3bNgw9wHyrM-130">
          <mxGeometry y="180" width="360" height="30" as="geometry" />
        </mxCell>
        <mxCell id="Du5RT7D7e3bNgw9wHyrM-147" value="FK" style="shape=partialRectangle;overflow=hidden;connectable=0;fillColor=none;top=0;left=0;bottom=0;right=0;" vertex="1" parent="Du5RT7D7e3bNgw9wHyrM-146">
          <mxGeometry width="50" height="30" as="geometry">
            <mxRectangle width="50" height="30" as="alternateBounds" />
          </mxGeometry>
        </mxCell>
        <mxCell id="Du5RT7D7e3bNgw9wHyrM-148" value="most_popular_service_id VARCHAR(50) NOT NULL" style="shape=partialRectangle;overflow=hidden;connectable=0;fillColor=none;top=0;left=0;bottom=0;right=0;align=left;spacingLeft=6;" vertex="1" parent="Du5RT7D7e3bNgw9wHyrM-146">
          <mxGeometry x="50" width="310" height="30" as="geometry">
            <mxRectangle width="310" height="30" as="alternateBounds" />
          </mxGeometry>
        </mxCell>
        <mxCell id="Du5RT7D7e3bNgw9wHyrM-149" style="shape=partialRectangle;collapsible=0;dropTarget=0;pointerEvents=0;fillColor=none;points=[[0,0.5],[1,0.5]];portConstraint=eastwest;top=0;left=0;right=0;bottom=0;" vertex="1" parent="Du5RT7D7e3bNgw9wHyrM-130">
          <mxGeometry y="210" width="360" height="30" as="geometry" />
        </mxCell>
        <mxCell id="Du5RT7D7e3bNgw9wHyrM-150" value="FK" style="shape=partialRectangle;overflow=hidden;connectable=0;fillColor=none;top=0;left=0;bottom=0;right=0;" vertex="1" parent="Du5RT7D7e3bNgw9wHyrM-149">
          <mxGeometry width="50" height="30" as="geometry">
            <mxRectangle width="50" height="30" as="alternateBounds" />
          </mxGeometry>
        </mxCell>
        <mxCell id="Du5RT7D7e3bNgw9wHyrM-151" value="least_popular_service_id VARCHAR(50) NOT NULL" style="shape=partialRectangle;overflow=hidden;connectable=0;fillColor=none;top=0;left=0;bottom=0;right=0;align=left;spacingLeft=6;" vertex="1" parent="Du5RT7D7e3bNgw9wHyrM-149">
          <mxGeometry x="50" width="310" height="30" as="geometry">
            <mxRectangle width="310" height="30" as="alternateBounds" />
          </mxGeometry>
        </mxCell>
        <mxCell id="Du5RT7D7e3bNgw9wHyrM-152" style="shape=partialRectangle;collapsible=0;dropTarget=0;pointerEvents=0;fillColor=none;points=[[0,0.5],[1,0.5]];portConstraint=eastwest;top=0;left=0;right=0;bottom=0;" vertex="1" parent="Du5RT7D7e3bNgw9wHyrM-130">
          <mxGeometry y="240" width="360" height="30" as="geometry" />
        </mxCell>
        <mxCell id="Du5RT7D7e3bNgw9wHyrM-153" style="shape=partialRectangle;overflow=hidden;connectable=0;fillColor=none;top=0;left=0;bottom=0;right=0;" vertex="1" parent="Du5RT7D7e3bNgw9wHyrM-152">
          <mxGeometry width="50" height="30" as="geometry">
            <mxRectangle width="50" height="30" as="alternateBounds" />
          </mxGeometry>
        </mxCell>
        <mxCell id="Du5RT7D7e3bNgw9wHyrM-154" value="feedback_score SMALLINT NOT NULL" style="shape=partialRectangle;overflow=hidden;connectable=0;fillColor=none;top=0;left=0;bottom=0;right=0;align=left;spacingLeft=6;" vertex="1" parent="Du5RT7D7e3bNgw9wHyrM-152">
          <mxGeometry x="50" width="310" height="30" as="geometry">
            <mxRectangle width="310" height="30" as="alternateBounds" />
          </mxGeometry>
        </mxCell>
        <mxCell id="Du5RT7D7e3bNgw9wHyrM-155" style="shape=partialRectangle;collapsible=0;dropTarget=0;pointerEvents=0;fillColor=none;points=[[0,0.5],[1,0.5]];portConstraint=eastwest;top=0;left=0;right=0;bottom=0;" vertex="1" parent="Du5RT7D7e3bNgw9wHyrM-130">
          <mxGeometry y="270" width="360" height="30" as="geometry" />
        </mxCell>
        <mxCell id="Du5RT7D7e3bNgw9wHyrM-156" style="shape=partialRectangle;overflow=hidden;connectable=0;fillColor=none;top=0;left=0;bottom=0;right=0;" vertex="1" parent="Du5RT7D7e3bNgw9wHyrM-155">
          <mxGeometry width="50" height="30" as="geometry">
            <mxRectangle width="50" height="30" as="alternateBounds" />
          </mxGeometry>
        </mxCell>
        <mxCell id="Du5RT7D7e3bNgw9wHyrM-157" value="feedback_praise TEXT NOT NULL" style="shape=partialRectangle;overflow=hidden;connectable=0;fillColor=none;top=0;left=0;bottom=0;right=0;align=left;spacingLeft=6;" vertex="1" parent="Du5RT7D7e3bNgw9wHyrM-155">
          <mxGeometry x="50" width="310" height="30" as="geometry">
            <mxRectangle width="310" height="30" as="alternateBounds" />
          </mxGeometry>
        </mxCell>
        <mxCell id="Du5RT7D7e3bNgw9wHyrM-158" style="shape=partialRectangle;collapsible=0;dropTarget=0;pointerEvents=0;fillColor=none;points=[[0,0.5],[1,0.5]];portConstraint=eastwest;top=0;left=0;right=0;bottom=0;" vertex="1" parent="Du5RT7D7e3bNgw9wHyrM-130">
          <mxGeometry y="300" width="360" height="30" as="geometry" />
        </mxCell>
        <mxCell id="Du5RT7D7e3bNgw9wHyrM-159" style="shape=partialRectangle;overflow=hidden;connectable=0;fillColor=none;top=0;left=0;bottom=0;right=0;" vertex="1" parent="Du5RT7D7e3bNgw9wHyrM-158">
          <mxGeometry width="50" height="30" as="geometry">
            <mxRectangle width="50" height="30" as="alternateBounds" />
          </mxGeometry>
        </mxCell>
        <mxCell id="Du5RT7D7e3bNgw9wHyrM-160" value="feedback_criticism TEXT NOT NULL" style="shape=partialRectangle;overflow=hidden;connectable=0;fillColor=none;top=0;left=0;bottom=0;right=0;align=left;spacingLeft=6;" vertex="1" parent="Du5RT7D7e3bNgw9wHyrM-158">
          <mxGeometry x="50" width="310" height="30" as="geometry">
            <mxRectangle width="310" height="30" as="alternateBounds" />
          </mxGeometry>
        </mxCell>
        <mxCell id="Du5RT7D7e3bNgw9wHyrM-161" value="organisation" style="shape=table;startSize=30;container=1;collapsible=1;childLayout=tableLayout;fixedRows=1;rowLines=0;fontStyle=1;align=center;resizeLast=1;" vertex="1" parent="1">
          <mxGeometry x="5020" y="1510" width="460" height="210" as="geometry" />
        </mxCell>
        <mxCell id="Du5RT7D7e3bNgw9wHyrM-162" value="" style="shape=partialRectangle;collapsible=0;dropTarget=0;pointerEvents=0;fillColor=none;points=[[0,0.5],[1,0.5]];portConstraint=eastwest;top=0;left=0;right=0;bottom=1;" vertex="1" parent="Du5RT7D7e3bNgw9wHyrM-161">
          <mxGeometry y="30" width="460" height="30" as="geometry" />
        </mxCell>
        <mxCell id="Du5RT7D7e3bNgw9wHyrM-163" value="PK" style="shape=partialRectangle;overflow=hidden;connectable=0;fillColor=none;top=0;left=0;bottom=0;right=0;fontStyle=1;" vertex="1" parent="Du5RT7D7e3bNgw9wHyrM-162">
          <mxGeometry width="30" height="30" as="geometry">
            <mxRectangle width="30" height="30" as="alternateBounds" />
          </mxGeometry>
        </mxCell>
        <mxCell id="Du5RT7D7e3bNgw9wHyrM-164" value="organisation_id INT AUTO_INCREMENTÂ " style="shape=partialRectangle;overflow=hidden;connectable=0;fillColor=none;top=0;left=0;bottom=0;right=0;align=left;spacingLeft=6;fontStyle=1;" vertex="1" parent="Du5RT7D7e3bNgw9wHyrM-162">
          <mxGeometry x="30" width="430" height="30" as="geometry">
            <mxRectangle width="430" height="30" as="alternateBounds" />
          </mxGeometry>
        </mxCell>
        <mxCell id="Du5RT7D7e3bNgw9wHyrM-165" style="shape=partialRectangle;collapsible=0;dropTarget=0;pointerEvents=0;fillColor=none;points=[[0,0.5],[1,0.5]];portConstraint=eastwest;top=0;left=0;right=0;bottom=0;" vertex="1" parent="Du5RT7D7e3bNgw9wHyrM-161">
          <mxGeometry y="60" width="460" height="30" as="geometry" />
        </mxCell>
        <mxCell id="Du5RT7D7e3bNgw9wHyrM-166" value="" style="shape=partialRectangle;overflow=hidden;connectable=0;fillColor=none;top=0;left=0;bottom=0;right=0;" vertex="1" parent="Du5RT7D7e3bNgw9wHyrM-165">
          <mxGeometry width="30" height="30" as="geometry">
            <mxRectangle width="30" height="30" as="alternateBounds" />
          </mxGeometry>
        </mxCell>
        <mxCell id="Du5RT7D7e3bNgw9wHyrM-167" value="organisation_name VARCHAR(50) NOT NULL" style="shape=partialRectangle;overflow=hidden;connectable=0;fillColor=none;top=0;left=0;bottom=0;right=0;align=left;spacingLeft=6;" vertex="1" parent="Du5RT7D7e3bNgw9wHyrM-165">
          <mxGeometry x="30" width="430" height="30" as="geometry">
            <mxRectangle width="430" height="30" as="alternateBounds" />
          </mxGeometry>
        </mxCell>
        <mxCell id="Du5RT7D7e3bNgw9wHyrM-168" style="shape=partialRectangle;collapsible=0;dropTarget=0;pointerEvents=0;fillColor=none;points=[[0,0.5],[1,0.5]];portConstraint=eastwest;top=0;left=0;right=0;bottom=0;" vertex="1" parent="Du5RT7D7e3bNgw9wHyrM-161">
          <mxGeometry y="90" width="460" height="30" as="geometry" />
        </mxCell>
        <mxCell id="Du5RT7D7e3bNgw9wHyrM-169" style="shape=partialRectangle;overflow=hidden;connectable=0;fillColor=none;top=0;left=0;bottom=0;right=0;" vertex="1" parent="Du5RT7D7e3bNgw9wHyrM-168">
          <mxGeometry width="30" height="30" as="geometry">
            <mxRectangle width="30" height="30" as="alternateBounds" />
          </mxGeometry>
        </mxCell>
        <mxCell id="Du5RT7D7e3bNgw9wHyrM-170" value="organisation_type ENUM(&#39;School&#39;, &#39;Community&#39;) NOT NULL" style="shape=partialRectangle;overflow=hidden;connectable=0;fillColor=none;top=0;left=0;bottom=0;right=0;align=left;spacingLeft=6;" vertex="1" parent="Du5RT7D7e3bNgw9wHyrM-168">
          <mxGeometry x="30" width="430" height="30" as="geometry">
            <mxRectangle width="430" height="30" as="alternateBounds" />
          </mxGeometry>
        </mxCell>
        <mxCell id="Du5RT7D7e3bNgw9wHyrM-171" value="" style="shape=partialRectangle;collapsible=0;dropTarget=0;pointerEvents=0;fillColor=none;points=[[0,0.5],[1,0.5]];portConstraint=eastwest;top=0;left=0;right=0;bottom=0;" vertex="1" parent="Du5RT7D7e3bNgw9wHyrM-161">
          <mxGeometry y="120" width="460" height="30" as="geometry" />
        </mxCell>
        <mxCell id="Du5RT7D7e3bNgw9wHyrM-172" value="" style="shape=partialRectangle;overflow=hidden;connectable=0;fillColor=none;top=0;left=0;bottom=0;right=0;" vertex="1" parent="Du5RT7D7e3bNgw9wHyrM-171">
          <mxGeometry width="30" height="30" as="geometry">
            <mxRectangle width="30" height="30" as="alternateBounds" />
          </mxGeometry>
        </mxCell>
        <mxCell id="Du5RT7D7e3bNgw9wHyrM-173" value="enrolled_date DATE NOT NULL" style="shape=partialRectangle;overflow=hidden;connectable=0;fillColor=none;top=0;left=0;bottom=0;right=0;align=left;spacingLeft=6;" vertex="1" parent="Du5RT7D7e3bNgw9wHyrM-171">
          <mxGeometry x="30" width="430" height="30" as="geometry">
            <mxRectangle width="430" height="30" as="alternateBounds" />
          </mxGeometry>
        </mxCell>
        <mxCell id="Du5RT7D7e3bNgw9wHyrM-174" value="" style="shape=partialRectangle;collapsible=0;dropTarget=0;pointerEvents=0;fillColor=none;points=[[0,0.5],[1,0.5]];portConstraint=eastwest;top=0;left=0;right=0;bottom=0;" vertex="1" parent="Du5RT7D7e3bNgw9wHyrM-161">
          <mxGeometry y="150" width="460" height="30" as="geometry" />
        </mxCell>
        <mxCell id="Du5RT7D7e3bNgw9wHyrM-175" value="" style="shape=partialRectangle;overflow=hidden;connectable=0;fillColor=none;top=0;left=0;bottom=0;right=0;" vertex="1" parent="Du5RT7D7e3bNgw9wHyrM-174">
          <mxGeometry width="30" height="30" as="geometry">
            <mxRectangle width="30" height="30" as="alternateBounds" />
          </mxGeometry>
        </mxCell>
        <mxCell id="Du5RT7D7e3bNgw9wHyrM-176" value="subscription_status ENUM(&#39;Active&#39;, &#39;Inactive&#39;, &#39;Pending&#39;, &#39;Expired&#39;) NOT NULL" style="shape=partialRectangle;overflow=hidden;connectable=0;fillColor=none;top=0;left=0;bottom=0;right=0;align=left;spacingLeft=6;" vertex="1" parent="Du5RT7D7e3bNgw9wHyrM-174">
          <mxGeometry x="30" width="430" height="30" as="geometry">
            <mxRectangle width="430" height="30" as="alternateBounds" />
          </mxGeometry>
        </mxCell>
        <mxCell id="Du5RT7D7e3bNgw9wHyrM-177" style="shape=partialRectangle;collapsible=0;dropTarget=0;pointerEvents=0;fillColor=none;points=[[0,0.5],[1,0.5]];portConstraint=eastwest;top=0;left=0;right=0;bottom=0;" vertex="1" parent="Du5RT7D7e3bNgw9wHyrM-161">
          <mxGeometry y="180" width="460" height="30" as="geometry" />
        </mxCell>
        <mxCell id="Du5RT7D7e3bNgw9wHyrM-178" style="shape=partialRectangle;overflow=hidden;connectable=0;fillColor=none;top=0;left=0;bottom=0;right=0;" vertex="1" parent="Du5RT7D7e3bNgw9wHyrM-177">
          <mxGeometry width="30" height="30" as="geometry">
            <mxRectangle width="30" height="30" as="alternateBounds" />
          </mxGeometry>
        </mxCell>
        <mxCell id="Du5RT7D7e3bNgw9wHyrM-179" value="expiry_date DATE NOT NULL" style="shape=partialRectangle;overflow=hidden;connectable=0;fillColor=none;top=0;left=0;bottom=0;right=0;align=left;spacingLeft=6;" vertex="1" parent="Du5RT7D7e3bNgw9wHyrM-177">
          <mxGeometry x="30" width="430" height="30" as="geometry">
            <mxRectangle width="430" height="30" as="alternateBounds" />
          </mxGeometry>
        </mxCell>
        <mxCell id="Du5RT7D7e3bNgw9wHyrM-180" value="" style="fontSize=12;html=1;endArrow=ERmany;startArrow=ERmandOne;rounded=0;edgeStyle=elbowEdgeStyle;endFill=0;entryX=-0.004;entryY=0.831;entryDx=0;entryDy=0;exitX=1;exitY=0.5;exitDx=0;exitDy=0;entryPerimeter=0;" edge="1" parent="1" source="Du5RT7D7e3bNgw9wHyrM-77" target="Du5RT7D7e3bNgw9wHyrM-31">
          <mxGeometry width="100" height="100" relative="1" as="geometry">
            <mxPoint x="4046" y="1825" as="sourcePoint" />
            <mxPoint x="3946" y="1825" as="targetPoint" />
          </mxGeometry>
        </mxCell>
        <mxCell id="Du5RT7D7e3bNgw9wHyrM-181" value="" style="fontSize=12;html=1;endArrow=ERmany;startArrow=ERmandOne;rounded=0;edgeStyle=elbowEdgeStyle;endFill=0;entryX=1;entryY=0.5;entryDx=0;entryDy=0;exitX=0;exitY=0.5;exitDx=0;exitDy=0;" edge="1" parent="1" source="Du5RT7D7e3bNgw9wHyrM-177" target="Du5RT7D7e3bNgw9wHyrM-80">
          <mxGeometry width="100" height="100" relative="1" as="geometry">
            <mxPoint x="4056" y="1835" as="sourcePoint" />
            <mxPoint x="3956" y="1835" as="targetPoint" />
            <Array as="points">
              <mxPoint x="4940" y="1790" />
            </Array>
          </mxGeometry>
        </mxCell>
        <mxCell id="Du5RT7D7e3bNgw9wHyrM-182" value="message" style="shape=table;startSize=30;container=1;collapsible=1;childLayout=tableLayout;fixedRows=1;rowLines=0;fontStyle=1;align=center;resizeLast=1;" vertex="1" parent="1">
          <mxGeometry x="3640" y="2210" width="340" height="210" as="geometry" />
        </mxCell>
        <mxCell id="Du5RT7D7e3bNgw9wHyrM-183" style="shape=partialRectangle;collapsible=0;dropTarget=0;pointerEvents=0;fillColor=none;points=[[0,0.5],[1,0.5]];portConstraint=eastwest;top=0;left=0;right=0;bottom=1;" vertex="1" parent="Du5RT7D7e3bNgw9wHyrM-182">
          <mxGeometry y="30" width="340" height="30" as="geometry" />
        </mxCell>
        <mxCell id="Du5RT7D7e3bNgw9wHyrM-184" value="PK" style="shape=partialRectangle;overflow=hidden;connectable=0;fillColor=none;top=0;left=0;bottom=0;right=0;fontStyle=1;" vertex="1" parent="Du5RT7D7e3bNgw9wHyrM-183">
          <mxGeometry width="30" height="30" as="geometry">
            <mxRectangle width="30" height="30" as="alternateBounds" />
          </mxGeometry>
        </mxCell>
        <mxCell id="Du5RT7D7e3bNgw9wHyrM-185" value="message_id BIGINT AUTO_INCREMENTÂ " style="shape=partialRectangle;overflow=hidden;connectable=0;fillColor=none;top=0;left=0;bottom=0;right=0;align=left;spacingLeft=6;fontStyle=1;" vertex="1" parent="Du5RT7D7e3bNgw9wHyrM-183">
          <mxGeometry x="30" width="310" height="30" as="geometry">
            <mxRectangle width="310" height="30" as="alternateBounds" />
          </mxGeometry>
        </mxCell>
        <mxCell id="Du5RT7D7e3bNgw9wHyrM-186" value="" style="shape=partialRectangle;collapsible=0;dropTarget=0;pointerEvents=0;fillColor=none;points=[[0,0.5],[1,0.5]];portConstraint=eastwest;top=0;left=0;right=0;bottom=0;" vertex="1" parent="Du5RT7D7e3bNgw9wHyrM-182">
          <mxGeometry y="60" width="340" height="30" as="geometry" />
        </mxCell>
        <mxCell id="Du5RT7D7e3bNgw9wHyrM-187" value="FK" style="shape=partialRectangle;overflow=hidden;connectable=0;fillColor=none;top=0;left=0;bottom=0;right=0;" vertex="1" parent="Du5RT7D7e3bNgw9wHyrM-186">
          <mxGeometry width="30" height="30" as="geometry">
            <mxRectangle width="30" height="30" as="alternateBounds" />
          </mxGeometry>
        </mxCell>
        <mxCell id="Du5RT7D7e3bNgw9wHyrM-188" value="sender_id BIGINT NOT NULL" style="shape=partialRectangle;overflow=hidden;connectable=0;fillColor=none;top=0;left=0;bottom=0;right=0;align=left;spacingLeft=6;" vertex="1" parent="Du5RT7D7e3bNgw9wHyrM-186">
          <mxGeometry x="30" width="310" height="30" as="geometry">
            <mxRectangle width="310" height="30" as="alternateBounds" />
          </mxGeometry>
        </mxCell>
        <mxCell id="Du5RT7D7e3bNgw9wHyrM-189" value="" style="shape=partialRectangle;collapsible=0;dropTarget=0;pointerEvents=0;fillColor=none;points=[[0,0.5],[1,0.5]];portConstraint=eastwest;top=0;left=0;right=0;bottom=0;" vertex="1" parent="Du5RT7D7e3bNgw9wHyrM-182">
          <mxGeometry y="90" width="340" height="30" as="geometry" />
        </mxCell>
        <mxCell id="Du5RT7D7e3bNgw9wHyrM-190" value="FK" style="shape=partialRectangle;overflow=hidden;connectable=0;fillColor=none;top=0;left=0;bottom=0;right=0;" vertex="1" parent="Du5RT7D7e3bNgw9wHyrM-189">
          <mxGeometry width="30" height="30" as="geometry">
            <mxRectangle width="30" height="30" as="alternateBounds" />
          </mxGeometry>
        </mxCell>
        <mxCell id="Du5RT7D7e3bNgw9wHyrM-191" value="recipient_id BIGINT NOT NULL" style="shape=partialRectangle;overflow=hidden;connectable=0;fillColor=none;top=0;left=0;bottom=0;right=0;align=left;spacingLeft=6;" vertex="1" parent="Du5RT7D7e3bNgw9wHyrM-189">
          <mxGeometry x="30" width="310" height="30" as="geometry">
            <mxRectangle width="310" height="30" as="alternateBounds" />
          </mxGeometry>
        </mxCell>
        <mxCell id="Du5RT7D7e3bNgw9wHyrM-192" style="shape=partialRectangle;collapsible=0;dropTarget=0;pointerEvents=0;fillColor=none;points=[[0,0.5],[1,0.5]];portConstraint=eastwest;top=0;left=0;right=0;bottom=0;" vertex="1" parent="Du5RT7D7e3bNgw9wHyrM-182">
          <mxGeometry y="120" width="340" height="30" as="geometry" />
        </mxCell>
        <mxCell id="Du5RT7D7e3bNgw9wHyrM-193" style="shape=partialRectangle;overflow=hidden;connectable=0;fillColor=none;top=0;left=0;bottom=0;right=0;" vertex="1" parent="Du5RT7D7e3bNgw9wHyrM-192">
          <mxGeometry width="30" height="30" as="geometry">
            <mxRectangle width="30" height="30" as="alternateBounds" />
          </mxGeometry>
        </mxCell>
        <mxCell id="Du5RT7D7e3bNgw9wHyrM-194" value="message_content TEXT NOT NULL" style="shape=partialRectangle;overflow=hidden;connectable=0;fillColor=none;top=0;left=0;bottom=0;right=0;align=left;spacingLeft=6;" vertex="1" parent="Du5RT7D7e3bNgw9wHyrM-192">
          <mxGeometry x="30" width="310" height="30" as="geometry">
            <mxRectangle width="310" height="30" as="alternateBounds" />
          </mxGeometry>
        </mxCell>
        <mxCell id="Du5RT7D7e3bNgw9wHyrM-195" style="shape=partialRectangle;collapsible=0;dropTarget=0;pointerEvents=0;fillColor=none;points=[[0,0.5],[1,0.5]];portConstraint=eastwest;top=0;left=0;right=0;bottom=0;" vertex="1" parent="Du5RT7D7e3bNgw9wHyrM-182">
          <mxGeometry y="150" width="340" height="30" as="geometry" />
        </mxCell>
        <mxCell id="Du5RT7D7e3bNgw9wHyrM-196" style="shape=partialRectangle;overflow=hidden;connectable=0;fillColor=none;top=0;left=0;bottom=0;right=0;" vertex="1" parent="Du5RT7D7e3bNgw9wHyrM-195">
          <mxGeometry width="30" height="30" as="geometry">
            <mxRectangle width="30" height="30" as="alternateBounds" />
          </mxGeometry>
        </mxCell>
        <mxCell id="Du5RT7D7e3bNgw9wHyrM-197" value="message_timestamp TIME NOT NULL" style="shape=partialRectangle;overflow=hidden;connectable=0;fillColor=none;top=0;left=0;bottom=0;right=0;align=left;spacingLeft=6;" vertex="1" parent="Du5RT7D7e3bNgw9wHyrM-195">
          <mxGeometry x="30" width="310" height="30" as="geometry">
            <mxRectangle width="310" height="30" as="alternateBounds" />
          </mxGeometry>
        </mxCell>
        <mxCell id="Du5RT7D7e3bNgw9wHyrM-198" style="shape=partialRectangle;collapsible=0;dropTarget=0;pointerEvents=0;fillColor=none;points=[[0,0.5],[1,0.5]];portConstraint=eastwest;top=0;left=0;right=0;bottom=0;" vertex="1" parent="Du5RT7D7e3bNgw9wHyrM-182">
          <mxGeometry y="180" width="340" height="30" as="geometry" />
        </mxCell>
        <mxCell id="Du5RT7D7e3bNgw9wHyrM-199" style="shape=partialRectangle;overflow=hidden;connectable=0;fillColor=none;top=0;left=0;bottom=0;right=0;" vertex="1" parent="Du5RT7D7e3bNgw9wHyrM-198">
          <mxGeometry width="30" height="30" as="geometry">
            <mxRectangle width="30" height="30" as="alternateBounds" />
          </mxGeometry>
        </mxCell>
        <mxCell id="Du5RT7D7e3bNgw9wHyrM-200" value="message_type ENUM(&#39;DM&#39;, &#39;Email&#39;, &#39;Notes&#39;) NOT NULL" style="shape=partialRectangle;overflow=hidden;connectable=0;fillColor=none;top=0;left=0;bottom=0;right=0;align=left;spacingLeft=6;" vertex="1" parent="Du5RT7D7e3bNgw9wHyrM-198">
          <mxGeometry x="30" width="310" height="30" as="geometry">
            <mxRectangle width="310" height="30" as="alternateBounds" />
          </mxGeometry>
        </mxCell>
        <mxCell id="Du5RT7D7e3bNgw9wHyrM-201" value="" style="fontSize=12;html=1;endArrow=ERzeroToMany;startArrow=ERmandOne;rounded=0;endFill=0;edgeStyle=elbowEdgeStyle;elbow=vertical;entryX=0.831;entryY=0.003;entryDx=0;entryDy=0;entryPerimeter=0;" edge="1" parent="1" target="Du5RT7D7e3bNgw9wHyrM-182">
          <mxGeometry width="100" height="100" relative="1" as="geometry">
            <mxPoint x="4060" y="2040" as="sourcePoint" />
            <mxPoint x="3940" y="2531" as="targetPoint" />
            <Array as="points">
              <mxPoint x="3930" y="2150" />
            </Array>
          </mxGeometry>
        </mxCell>
        <mxCell id="Du5RT7D7e3bNgw9wHyrM-202" value="" style="fontSize=12;html=1;endArrow=ERzeroToMany;startArrow=ERmandOne;rounded=0;edgeStyle=elbowEdgeStyle;endFill=0;exitX=1;exitY=0.5;exitDx=0;exitDy=0;entryX=-0.009;entryY=0.056;entryDx=0;entryDy=0;entryPerimeter=0;" edge="1" parent="1" source="Du5RT7D7e3bNgw9wHyrM-89" target="Du5RT7D7e3bNgw9wHyrM-105">
          <mxGeometry width="100" height="100" relative="1" as="geometry">
            <mxPoint x="4636" y="1990" as="sourcePoint" />
            <mxPoint x="4490" y="2110" as="targetPoint" />
            <Array as="points">
              <mxPoint x="4560" y="2060" />
            </Array>
          </mxGeometry>
        </mxCell>
        <mxCell id="Du5RT7D7e3bNgw9wHyrM-203" value="" style="fontSize=12;html=1;endArrow=ERzeroToMany;startArrow=ERmandOne;rounded=0;edgeStyle=elbowEdgeStyle;endFill=0;fontStyle=0;exitX=1;exitY=0.773;exitDx=0;exitDy=0;exitPerimeter=0;entryX=0;entryY=0.5;entryDx=0;entryDy=0;" edge="1" parent="1" source="Du5RT7D7e3bNgw9wHyrM-83" target="Du5RT7D7e3bNgw9wHyrM-288">
          <mxGeometry width="100" height="100" relative="1" as="geometry">
            <mxPoint x="5430" y="2300" as="sourcePoint" />
            <mxPoint x="4850" y="1900" as="targetPoint" />
            <Array as="points" />
          </mxGeometry>
        </mxCell>
        <mxCell id="Du5RT7D7e3bNgw9wHyrM-204" value="" style="fontSize=12;html=1;endArrow=ERzeroToMany;startArrow=ERmandOne;rounded=0;edgeStyle=orthogonalEdgeStyle;endFill=0;entryX=0.75;entryY=0;entryDx=0;entryDy=0;elbow=vertical;exitX=-0.011;exitY=0.3;exitDx=0;exitDy=0;exitPerimeter=0;" edge="1" parent="1" source="Du5RT7D7e3bNgw9wHyrM-241" target="Du5RT7D7e3bNgw9wHyrM-130">
          <mxGeometry width="100" height="100" relative="1" as="geometry">
            <mxPoint x="4530" y="2324.9300000000003" as="sourcePoint" />
            <mxPoint x="4341.92" y="2390.0600000000004" as="targetPoint" />
          </mxGeometry>
        </mxCell>
        <mxCell id="Du5RT7D7e3bNgw9wHyrM-205" value="user_account_logs" style="shape=table;startSize=30;container=1;collapsible=1;childLayout=tableLayout;fixedRows=1;rowLines=0;fontStyle=1;align=center;resizeLast=1;" vertex="1" parent="1">
          <mxGeometry x="3970" y="900" width="360" height="280.0000000000002" as="geometry" />
        </mxCell>
        <mxCell id="Du5RT7D7e3bNgw9wHyrM-206" value="" style="shape=partialRectangle;collapsible=0;dropTarget=0;pointerEvents=0;fillColor=none;points=[[0,0.5],[1,0.5]];portConstraint=eastwest;top=0;left=0;right=0;bottom=1;" vertex="1" parent="Du5RT7D7e3bNgw9wHyrM-205">
          <mxGeometry y="30" width="360" height="30" as="geometry" />
        </mxCell>
        <mxCell id="Du5RT7D7e3bNgw9wHyrM-207" value="PK" style="shape=partialRectangle;overflow=hidden;connectable=0;fillColor=none;top=0;left=0;bottom=0;right=0;fontStyle=1;" vertex="1" parent="Du5RT7D7e3bNgw9wHyrM-206">
          <mxGeometry width="30" height="30" as="geometry">
            <mxRectangle width="30" height="30" as="alternateBounds" />
          </mxGeometry>
        </mxCell>
        <mxCell id="Du5RT7D7e3bNgw9wHyrM-208" value="log_id BIGINT AUTO_INCREMENT" style="shape=partialRectangle;overflow=hidden;connectable=0;fillColor=none;top=0;left=0;bottom=0;right=0;align=left;spacingLeft=6;fontStyle=1;" vertex="1" parent="Du5RT7D7e3bNgw9wHyrM-206">
          <mxGeometry x="30" width="330" height="30" as="geometry">
            <mxRectangle width="330" height="30" as="alternateBounds" />
          </mxGeometry>
        </mxCell>
        <mxCell id="Du5RT7D7e3bNgw9wHyrM-209" style="shape=partialRectangle;collapsible=0;dropTarget=0;pointerEvents=0;fillColor=none;points=[[0,0.5],[1,0.5]];portConstraint=eastwest;top=0;left=0;right=0;bottom=0;" vertex="1" parent="Du5RT7D7e3bNgw9wHyrM-205">
          <mxGeometry y="60" width="360" height="30" as="geometry" />
        </mxCell>
        <mxCell id="Du5RT7D7e3bNgw9wHyrM-210" value="FK" style="shape=partialRectangle;overflow=hidden;connectable=0;fillColor=none;top=0;left=0;bottom=0;right=0;" vertex="1" parent="Du5RT7D7e3bNgw9wHyrM-209">
          <mxGeometry width="30" height="30" as="geometry">
            <mxRectangle width="30" height="30" as="alternateBounds" />
          </mxGeometry>
        </mxCell>
        <mxCell id="Du5RT7D7e3bNgw9wHyrM-211" value="user_id BIGINT NOT NULL" style="shape=partialRectangle;overflow=hidden;connectable=0;fillColor=none;top=0;left=0;bottom=0;right=0;align=left;spacingLeft=6;" vertex="1" parent="Du5RT7D7e3bNgw9wHyrM-209">
          <mxGeometry x="30" width="330" height="30" as="geometry">
            <mxRectangle width="330" height="30" as="alternateBounds" />
          </mxGeometry>
        </mxCell>
        <mxCell id="Du5RT7D7e3bNgw9wHyrM-212" style="shape=partialRectangle;collapsible=0;dropTarget=0;pointerEvents=0;fillColor=none;points=[[0,0.5],[1,0.5]];portConstraint=eastwest;top=0;left=0;right=0;bottom=0;" vertex="1" parent="Du5RT7D7e3bNgw9wHyrM-205">
          <mxGeometry y="90" width="360" height="30" as="geometry" />
        </mxCell>
        <mxCell id="Du5RT7D7e3bNgw9wHyrM-213" style="shape=partialRectangle;overflow=hidden;connectable=0;fillColor=none;top=0;left=0;bottom=0;right=0;" vertex="1" parent="Du5RT7D7e3bNgw9wHyrM-212">
          <mxGeometry width="30" height="30" as="geometry">
            <mxRectangle width="30" height="30" as="alternateBounds" />
          </mxGeometry>
        </mxCell>
        <mxCell id="Du5RT7D7e3bNgw9wHyrM-214" value="action_type ENUM (&#39;Login&#39;, &#39;Logout&#39;,Â &#39;Other&#39;)) NOT NULL" style="shape=partialRectangle;overflow=hidden;connectable=0;fillColor=none;top=0;left=0;bottom=0;right=0;align=left;spacingLeft=6;" vertex="1" parent="Du5RT7D7e3bNgw9wHyrM-212">
          <mxGeometry x="30" width="330" height="30" as="geometry">
            <mxRectangle width="330" height="30" as="alternateBounds" />
          </mxGeometry>
        </mxCell>
        <mxCell id="Du5RT7D7e3bNgw9wHyrM-215" style="shape=partialRectangle;collapsible=0;dropTarget=0;pointerEvents=0;fillColor=none;points=[[0,0.5],[1,0.5]];portConstraint=eastwest;top=0;left=0;right=0;bottom=0;" vertex="1" parent="Du5RT7D7e3bNgw9wHyrM-205">
          <mxGeometry y="120" width="360" height="30" as="geometry" />
        </mxCell>
        <mxCell id="Du5RT7D7e3bNgw9wHyrM-216" value="" style="shape=partialRectangle;overflow=hidden;connectable=0;fillColor=none;top=0;left=0;bottom=0;right=0;" vertex="1" parent="Du5RT7D7e3bNgw9wHyrM-215">
          <mxGeometry width="30" height="30" as="geometry">
            <mxRectangle width="30" height="30" as="alternateBounds" />
          </mxGeometry>
        </mxCell>
        <mxCell id="Du5RT7D7e3bNgw9wHyrM-217" value="timestamp DATETIME NOT NULLÂ " style="shape=partialRectangle;overflow=hidden;connectable=0;fillColor=none;top=0;left=0;bottom=0;right=0;align=left;spacingLeft=6;" vertex="1" parent="Du5RT7D7e3bNgw9wHyrM-215">
          <mxGeometry x="30" width="330" height="30" as="geometry">
            <mxRectangle width="330" height="30" as="alternateBounds" />
          </mxGeometry>
        </mxCell>
        <mxCell id="Du5RT7D7e3bNgw9wHyrM-218" style="shape=partialRectangle;collapsible=0;dropTarget=0;pointerEvents=0;fillColor=none;points=[[0,0.5],[1,0.5]];portConstraint=eastwest;top=0;left=0;right=0;bottom=0;" vertex="1" parent="Du5RT7D7e3bNgw9wHyrM-205">
          <mxGeometry y="150" width="360" height="30" as="geometry" />
        </mxCell>
        <mxCell id="Du5RT7D7e3bNgw9wHyrM-219" style="shape=partialRectangle;overflow=hidden;connectable=0;fillColor=none;top=0;left=0;bottom=0;right=0;" vertex="1" parent="Du5RT7D7e3bNgw9wHyrM-218">
          <mxGeometry width="30" height="30" as="geometry">
            <mxRectangle width="30" height="30" as="alternateBounds" />
          </mxGeometry>
        </mxCell>
        <mxCell id="Du5RT7D7e3bNgw9wHyrM-220" value="ip_address VARCHAR(60) NOT NULL" style="shape=partialRectangle;overflow=hidden;connectable=0;fillColor=none;top=0;left=0;bottom=0;right=0;align=left;spacingLeft=6;" vertex="1" parent="Du5RT7D7e3bNgw9wHyrM-218">
          <mxGeometry x="30" width="330" height="30" as="geometry">
            <mxRectangle width="330" height="30" as="alternateBounds" />
          </mxGeometry>
        </mxCell>
        <mxCell id="Du5RT7D7e3bNgw9wHyrM-221" style="shape=partialRectangle;collapsible=0;dropTarget=0;pointerEvents=0;fillColor=none;points=[[0,0.5],[1,0.5]];portConstraint=eastwest;top=0;left=0;right=0;bottom=0;" vertex="1" parent="Du5RT7D7e3bNgw9wHyrM-205">
          <mxGeometry y="180" width="360" height="30" as="geometry" />
        </mxCell>
        <mxCell id="Du5RT7D7e3bNgw9wHyrM-222" style="shape=partialRectangle;overflow=hidden;connectable=0;fillColor=none;top=0;left=0;bottom=0;right=0;" vertex="1" parent="Du5RT7D7e3bNgw9wHyrM-221">
          <mxGeometry width="30" height="30" as="geometry">
            <mxRectangle width="30" height="30" as="alternateBounds" />
          </mxGeometry>
        </mxCell>
        <mxCell id="Du5RT7D7e3bNgw9wHyrM-223" value="device_info TEXT NOT NULL" style="shape=partialRectangle;overflow=hidden;connectable=0;fillColor=none;top=0;left=0;bottom=0;right=0;align=left;spacingLeft=6;" vertex="1" parent="Du5RT7D7e3bNgw9wHyrM-221">
          <mxGeometry x="30" width="330" height="30" as="geometry">
            <mxRectangle width="330" height="30" as="alternateBounds" />
          </mxGeometry>
        </mxCell>
        <mxCell id="Du5RT7D7e3bNgw9wHyrM-224" style="shape=partialRectangle;collapsible=0;dropTarget=0;pointerEvents=0;fillColor=none;points=[[0,0.5],[1,0.5]];portConstraint=eastwest;top=0;left=0;right=0;bottom=0;" vertex="1" parent="Du5RT7D7e3bNgw9wHyrM-205">
          <mxGeometry y="210" width="360" height="30" as="geometry" />
        </mxCell>
        <mxCell id="Du5RT7D7e3bNgw9wHyrM-225" style="shape=partialRectangle;overflow=hidden;connectable=0;fillColor=none;top=0;left=0;bottom=0;right=0;" vertex="1" parent="Du5RT7D7e3bNgw9wHyrM-224">
          <mxGeometry width="30" height="30" as="geometry">
            <mxRectangle width="30" height="30" as="alternateBounds" />
          </mxGeometry>
        </mxCell>
        <mxCell id="Du5RT7D7e3bNgw9wHyrM-226" value="action_status ENUM (&#39;Success&#39;, &#39;Failure&#39;) NOT NULL" style="shape=partialRectangle;overflow=hidden;connectable=0;fillColor=none;top=0;left=0;bottom=0;right=0;align=left;spacingLeft=6;" vertex="1" parent="Du5RT7D7e3bNgw9wHyrM-224">
          <mxGeometry x="30" width="330" height="30" as="geometry">
            <mxRectangle width="330" height="30" as="alternateBounds" />
          </mxGeometry>
        </mxCell>
        <mxCell id="Du5RT7D7e3bNgw9wHyrM-227" style="shape=partialRectangle;collapsible=0;dropTarget=0;pointerEvents=0;fillColor=none;points=[[0,0.5],[1,0.5]];portConstraint=eastwest;top=0;left=0;right=0;bottom=0;" vertex="1" parent="Du5RT7D7e3bNgw9wHyrM-205">
          <mxGeometry y="240" width="360" height="40" as="geometry" />
        </mxCell>
        <mxCell id="Du5RT7D7e3bNgw9wHyrM-228" style="shape=partialRectangle;overflow=hidden;connectable=0;fillColor=none;top=0;left=0;bottom=0;right=0;" vertex="1" parent="Du5RT7D7e3bNgw9wHyrM-227">
          <mxGeometry width="30" height="40" as="geometry">
            <mxRectangle width="30" height="40" as="alternateBounds" />
          </mxGeometry>
        </mxCell>
        <mxCell id="Du5RT7D7e3bNgw9wHyrM-229" value="failure_reason ENUM (&#39;Wrong password&#39;,Â &#39;Locked account&#39;,&#xa;Â &#39;Wrong access code&#39;, &#39;Maintenance&#39;&#39;)Â NOT NULL" style="shape=partialRectangle;overflow=hidden;connectable=0;fillColor=none;top=0;left=0;bottom=0;right=0;align=left;spacingLeft=6;" vertex="1" parent="Du5RT7D7e3bNgw9wHyrM-227">
          <mxGeometry x="30" width="330" height="40" as="geometry">
            <mxRectangle width="330" height="40" as="alternateBounds" />
          </mxGeometry>
        </mxCell>
        <mxCell id="Du5RT7D7e3bNgw9wHyrM-230" value="" style="fontSize=12;html=1;endArrow=ERzeroToMany;startArrow=ERmandOne;rounded=0;exitX=0.43;exitY=-0.002;exitDx=0;exitDy=0;edgeStyle=elbowEdgeStyle;endFill=0;elbow=vertical;exitPerimeter=0;entryX=0.547;entryY=1;entryDx=0;entryDy=0;entryPerimeter=0;" edge="1" parent="1" source="Du5RT7D7e3bNgw9wHyrM-70" target="Du5RT7D7e3bNgw9wHyrM-227">
          <mxGeometry width="100" height="100" relative="1" as="geometry">
            <mxPoint x="4264.916" y="1672.03" as="sourcePoint" />
            <mxPoint x="4167" y="1190" as="targetPoint" />
            <Array as="points">
              <mxPoint x="4205.05" y="1549.44" />
            </Array>
          </mxGeometry>
        </mxCell>
        <mxCell id="Du5RT7D7e3bNgw9wHyrM-231" value="user_activity_logs" style="shape=table;startSize=30;container=1;collapsible=1;childLayout=tableLayout;fixedRows=1;rowLines=0;fontStyle=1;align=center;resizeLast=1;" vertex="1" parent="1">
          <mxGeometry x="4540" y="2190" width="260" height="240.0000000000025" as="geometry" />
        </mxCell>
        <mxCell id="Du5RT7D7e3bNgw9wHyrM-232" value="" style="shape=partialRectangle;collapsible=0;dropTarget=0;pointerEvents=0;fillColor=none;points=[[0,0.5],[1,0.5]];portConstraint=eastwest;top=0;left=0;right=0;bottom=1;" vertex="1" parent="Du5RT7D7e3bNgw9wHyrM-231">
          <mxGeometry y="30" width="260" height="30" as="geometry" />
        </mxCell>
        <mxCell id="Du5RT7D7e3bNgw9wHyrM-233" value="PK" style="shape=partialRectangle;overflow=hidden;connectable=0;fillColor=none;top=0;left=0;bottom=0;right=0;fontStyle=1;" vertex="1" parent="Du5RT7D7e3bNgw9wHyrM-232">
          <mxGeometry width="30" height="30" as="geometry">
            <mxRectangle width="30" height="30" as="alternateBounds" />
          </mxGeometry>
        </mxCell>
        <mxCell id="Du5RT7D7e3bNgw9wHyrM-234" value="log_id BIGINT AUTO_INCREMENT" style="shape=partialRectangle;overflow=hidden;connectable=0;fillColor=none;top=0;left=0;bottom=0;right=0;align=left;spacingLeft=6;fontStyle=1;" vertex="1" parent="Du5RT7D7e3bNgw9wHyrM-232">
          <mxGeometry x="30" width="230" height="30" as="geometry">
            <mxRectangle width="230" height="30" as="alternateBounds" />
          </mxGeometry>
        </mxCell>
        <mxCell id="Du5RT7D7e3bNgw9wHyrM-235" style="shape=partialRectangle;collapsible=0;dropTarget=0;pointerEvents=0;fillColor=none;points=[[0,0.5],[1,0.5]];portConstraint=eastwest;top=0;left=0;right=0;bottom=0;" vertex="1" parent="Du5RT7D7e3bNgw9wHyrM-231">
          <mxGeometry y="60" width="260" height="25" as="geometry" />
        </mxCell>
        <mxCell id="Du5RT7D7e3bNgw9wHyrM-236" value="FK" style="shape=partialRectangle;overflow=hidden;connectable=0;fillColor=none;top=0;left=0;bottom=0;right=0;" vertex="1" parent="Du5RT7D7e3bNgw9wHyrM-235">
          <mxGeometry width="30" height="25" as="geometry">
            <mxRectangle width="30" height="25" as="alternateBounds" />
          </mxGeometry>
        </mxCell>
        <mxCell id="Du5RT7D7e3bNgw9wHyrM-237" value="user_id BIGINT NOT NULL" style="shape=partialRectangle;overflow=hidden;connectable=0;fillColor=none;top=0;left=0;bottom=0;right=0;align=left;spacingLeft=6;" vertex="1" parent="Du5RT7D7e3bNgw9wHyrM-235">
          <mxGeometry x="30" width="230" height="25" as="geometry">
            <mxRectangle width="230" height="25" as="alternateBounds" />
          </mxGeometry>
        </mxCell>
        <mxCell id="Du5RT7D7e3bNgw9wHyrM-238" style="shape=partialRectangle;collapsible=0;dropTarget=0;pointerEvents=0;fillColor=none;points=[[0,0.5],[1,0.5]];portConstraint=eastwest;top=0;left=0;right=0;bottom=0;" vertex="1" parent="Du5RT7D7e3bNgw9wHyrM-231">
          <mxGeometry y="85" width="260" height="35" as="geometry" />
        </mxCell>
        <mxCell id="Du5RT7D7e3bNgw9wHyrM-239" style="shape=partialRectangle;overflow=hidden;connectable=0;fillColor=none;top=0;left=0;bottom=0;right=0;" vertex="1" parent="Du5RT7D7e3bNgw9wHyrM-238">
          <mxGeometry width="30" height="35" as="geometry">
            <mxRectangle width="30" height="35" as="alternateBounds" />
          </mxGeometry>
        </mxCell>
        <mxCell id="Du5RT7D7e3bNgw9wHyrM-240" value="action_type ENUM (&#39;Clicked, &#39;Started&#39;,Â &#xa;&#39;Paused&#39;, &#39;Finished&#39;))Â NOT NULL" style="shape=partialRectangle;overflow=hidden;connectable=0;fillColor=none;top=0;left=0;bottom=0;right=0;align=left;spacingLeft=6;" vertex="1" parent="Du5RT7D7e3bNgw9wHyrM-238">
          <mxGeometry x="30" width="230" height="35" as="geometry">
            <mxRectangle width="230" height="35" as="alternateBounds" />
          </mxGeometry>
        </mxCell>
        <mxCell id="Du5RT7D7e3bNgw9wHyrM-241" style="shape=partialRectangle;collapsible=0;dropTarget=0;pointerEvents=0;fillColor=none;points=[[0,0.5],[1,0.5]];portConstraint=eastwest;top=0;left=0;right=0;bottom=0;" vertex="1" parent="Du5RT7D7e3bNgw9wHyrM-231">
          <mxGeometry y="120" width="260" height="30" as="geometry" />
        </mxCell>
        <mxCell id="Du5RT7D7e3bNgw9wHyrM-242" value="FK" style="shape=partialRectangle;overflow=hidden;connectable=0;fillColor=none;top=0;left=0;bottom=0;right=0;" vertex="1" parent="Du5RT7D7e3bNgw9wHyrM-241">
          <mxGeometry width="30" height="30" as="geometry">
            <mxRectangle width="30" height="30" as="alternateBounds" />
          </mxGeometry>
        </mxCell>
        <mxCell id="Du5RT7D7e3bNgw9wHyrM-243" value="service_Id NOT NULL" style="shape=partialRectangle;overflow=hidden;connectable=0;fillColor=none;top=0;left=0;bottom=0;right=0;align=left;spacingLeft=6;" vertex="1" parent="Du5RT7D7e3bNgw9wHyrM-241">
          <mxGeometry x="30" width="230" height="30" as="geometry">
            <mxRectangle width="230" height="30" as="alternateBounds" />
          </mxGeometry>
        </mxCell>
        <mxCell id="Du5RT7D7e3bNgw9wHyrM-244" style="shape=partialRectangle;collapsible=0;dropTarget=0;pointerEvents=0;fillColor=none;points=[[0,0.5],[1,0.5]];portConstraint=eastwest;top=0;left=0;right=0;bottom=0;" vertex="1" parent="Du5RT7D7e3bNgw9wHyrM-231">
          <mxGeometry y="150" width="260" height="30" as="geometry" />
        </mxCell>
        <mxCell id="Du5RT7D7e3bNgw9wHyrM-245" style="shape=partialRectangle;overflow=hidden;connectable=0;fillColor=none;top=0;left=0;bottom=0;right=0;" vertex="1" parent="Du5RT7D7e3bNgw9wHyrM-244">
          <mxGeometry width="30" height="30" as="geometry">
            <mxRectangle width="30" height="30" as="alternateBounds" />
          </mxGeometry>
        </mxCell>
        <mxCell id="Du5RT7D7e3bNgw9wHyrM-246" value="timestamp DATETIME NOT NULL" style="shape=partialRectangle;overflow=hidden;connectable=0;fillColor=none;top=0;left=0;bottom=0;right=0;align=left;spacingLeft=6;" vertex="1" parent="Du5RT7D7e3bNgw9wHyrM-244">
          <mxGeometry x="30" width="230" height="30" as="geometry">
            <mxRectangle width="230" height="30" as="alternateBounds" />
          </mxGeometry>
        </mxCell>
        <mxCell id="Du5RT7D7e3bNgw9wHyrM-247" style="shape=partialRectangle;collapsible=0;dropTarget=0;pointerEvents=0;fillColor=none;points=[[0,0.5],[1,0.5]];portConstraint=eastwest;top=0;left=0;right=0;bottom=0;" vertex="1" parent="Du5RT7D7e3bNgw9wHyrM-231">
          <mxGeometry y="180" width="260" height="30" as="geometry" />
        </mxCell>
        <mxCell id="Du5RT7D7e3bNgw9wHyrM-248" style="shape=partialRectangle;overflow=hidden;connectable=0;fillColor=none;top=0;left=0;bottom=0;right=0;" vertex="1" parent="Du5RT7D7e3bNgw9wHyrM-247">
          <mxGeometry width="30" height="30" as="geometry">
            <mxRectangle width="30" height="30" as="alternateBounds" />
          </mxGeometry>
        </mxCell>
        <mxCell id="Du5RT7D7e3bNgw9wHyrM-249" value="ip_address VARCHAR(60) NOT NULL" style="shape=partialRectangle;overflow=hidden;connectable=0;fillColor=none;top=0;left=0;bottom=0;right=0;align=left;spacingLeft=6;" vertex="1" parent="Du5RT7D7e3bNgw9wHyrM-247">
          <mxGeometry x="30" width="230" height="30" as="geometry">
            <mxRectangle width="230" height="30" as="alternateBounds" />
          </mxGeometry>
        </mxCell>
        <mxCell id="Du5RT7D7e3bNgw9wHyrM-250" style="shape=partialRectangle;collapsible=0;dropTarget=0;pointerEvents=0;fillColor=none;points=[[0,0.5],[1,0.5]];portConstraint=eastwest;top=0;left=0;right=0;bottom=0;" vertex="1" parent="Du5RT7D7e3bNgw9wHyrM-231">
          <mxGeometry y="210" width="260" height="30" as="geometry" />
        </mxCell>
        <mxCell id="Du5RT7D7e3bNgw9wHyrM-251" style="shape=partialRectangle;overflow=hidden;connectable=0;fillColor=none;top=0;left=0;bottom=0;right=0;" vertex="1" parent="Du5RT7D7e3bNgw9wHyrM-250">
          <mxGeometry width="30" height="30" as="geometry">
            <mxRectangle width="30" height="30" as="alternateBounds" />
          </mxGeometry>
        </mxCell>
        <mxCell id="Du5RT7D7e3bNgw9wHyrM-252" value="device_info TEXT NOT NULL" style="shape=partialRectangle;overflow=hidden;connectable=0;fillColor=none;top=0;left=0;bottom=0;right=0;align=left;spacingLeft=6;" vertex="1" parent="Du5RT7D7e3bNgw9wHyrM-250">
          <mxGeometry x="30" width="230" height="30" as="geometry">
            <mxRectangle width="230" height="30" as="alternateBounds" />
          </mxGeometry>
        </mxCell>
        <mxCell id="Du5RT7D7e3bNgw9wHyrM-253" value="class_logs" style="shape=table;startSize=30;container=1;collapsible=1;childLayout=tableLayout;fixedRows=1;rowLines=0;fontStyle=1;align=center;resizeLast=1;" vertex="1" parent="1">
          <mxGeometry x="4370" y="920" width="360" height="340.0000000000002" as="geometry" />
        </mxCell>
        <mxCell id="Du5RT7D7e3bNgw9wHyrM-254" value="" style="shape=partialRectangle;collapsible=0;dropTarget=0;pointerEvents=0;fillColor=none;points=[[0,0.5],[1,0.5]];portConstraint=eastwest;top=0;left=0;right=0;bottom=1;" vertex="1" parent="Du5RT7D7e3bNgw9wHyrM-253">
          <mxGeometry y="30" width="360" height="30" as="geometry" />
        </mxCell>
        <mxCell id="Du5RT7D7e3bNgw9wHyrM-255" value="PK" style="shape=partialRectangle;overflow=hidden;connectable=0;fillColor=none;top=0;left=0;bottom=0;right=0;fontStyle=1;" vertex="1" parent="Du5RT7D7e3bNgw9wHyrM-254">
          <mxGeometry width="30" height="30" as="geometry">
            <mxRectangle width="30" height="30" as="alternateBounds" />
          </mxGeometry>
        </mxCell>
        <mxCell id="Du5RT7D7e3bNgw9wHyrM-256" value="log_id BIGINT AUTO_INCREMENT" style="shape=partialRectangle;overflow=hidden;connectable=0;fillColor=none;top=0;left=0;bottom=0;right=0;align=left;spacingLeft=6;fontStyle=1;" vertex="1" parent="Du5RT7D7e3bNgw9wHyrM-254">
          <mxGeometry x="30" width="330" height="30" as="geometry">
            <mxRectangle width="330" height="30" as="alternateBounds" />
          </mxGeometry>
        </mxCell>
        <mxCell id="Du5RT7D7e3bNgw9wHyrM-257" style="shape=partialRectangle;collapsible=0;dropTarget=0;pointerEvents=0;fillColor=none;points=[[0,0.5],[1,0.5]];portConstraint=eastwest;top=0;left=0;right=0;bottom=0;" vertex="1" parent="Du5RT7D7e3bNgw9wHyrM-253">
          <mxGeometry y="60" width="360" height="30" as="geometry" />
        </mxCell>
        <mxCell id="Du5RT7D7e3bNgw9wHyrM-258" value="FK" style="shape=partialRectangle;overflow=hidden;connectable=0;fillColor=none;top=0;left=0;bottom=0;right=0;" vertex="1" parent="Du5RT7D7e3bNgw9wHyrM-257">
          <mxGeometry width="30" height="30" as="geometry">
            <mxRectangle width="30" height="30" as="alternateBounds" />
          </mxGeometry>
        </mxCell>
        <mxCell id="Du5RT7D7e3bNgw9wHyrM-259" value="user_id BIGINT NOT NULL" style="shape=partialRectangle;overflow=hidden;connectable=0;fillColor=none;top=0;left=0;bottom=0;right=0;align=left;spacingLeft=6;" vertex="1" parent="Du5RT7D7e3bNgw9wHyrM-257">
          <mxGeometry x="30" width="330" height="30" as="geometry">
            <mxRectangle width="330" height="30" as="alternateBounds" />
          </mxGeometry>
        </mxCell>
        <mxCell id="Du5RT7D7e3bNgw9wHyrM-260" style="shape=partialRectangle;collapsible=0;dropTarget=0;pointerEvents=0;fillColor=none;points=[[0,0.5],[1,0.5]];portConstraint=eastwest;top=0;left=0;right=0;bottom=0;" vertex="1" parent="Du5RT7D7e3bNgw9wHyrM-253">
          <mxGeometry y="90" width="360" height="30" as="geometry" />
        </mxCell>
        <mxCell id="Du5RT7D7e3bNgw9wHyrM-261" style="shape=partialRectangle;overflow=hidden;connectable=0;fillColor=none;top=0;left=0;bottom=0;right=0;" vertex="1" parent="Du5RT7D7e3bNgw9wHyrM-260">
          <mxGeometry width="30" height="30" as="geometry">
            <mxRectangle width="30" height="30" as="alternateBounds" />
          </mxGeometry>
        </mxCell>
        <mxCell id="Du5RT7D7e3bNgw9wHyrM-262" value="action_type ENUM (&#39;Add&#39;, &#39;Edit&#39;, &#39;Remove&#39; )) NOT NULL" style="shape=partialRectangle;overflow=hidden;connectable=0;fillColor=none;top=0;left=0;bottom=0;right=0;align=left;spacingLeft=6;" vertex="1" parent="Du5RT7D7e3bNgw9wHyrM-260">
          <mxGeometry x="30" width="330" height="30" as="geometry">
            <mxRectangle width="330" height="30" as="alternateBounds" />
          </mxGeometry>
        </mxCell>
        <mxCell id="Du5RT7D7e3bNgw9wHyrM-263" style="shape=partialRectangle;collapsible=0;dropTarget=0;pointerEvents=0;fillColor=none;points=[[0,0.5],[1,0.5]];portConstraint=eastwest;top=0;left=0;right=0;bottom=0;" vertex="1" parent="Du5RT7D7e3bNgw9wHyrM-253">
          <mxGeometry y="120" width="360" height="30" as="geometry" />
        </mxCell>
        <mxCell id="Du5RT7D7e3bNgw9wHyrM-264" value="FK" style="shape=partialRectangle;overflow=hidden;connectable=0;fillColor=none;top=0;left=0;bottom=0;right=0;" vertex="1" parent="Du5RT7D7e3bNgw9wHyrM-263">
          <mxGeometry width="30" height="30" as="geometry">
            <mxRectangle width="30" height="30" as="alternateBounds" />
          </mxGeometry>
        </mxCell>
        <mxCell id="Du5RT7D7e3bNgw9wHyrM-265" value="class_id BIGINT NOT NULL" style="shape=partialRectangle;overflow=hidden;connectable=0;fillColor=none;top=0;left=0;bottom=0;right=0;align=left;spacingLeft=6;" vertex="1" parent="Du5RT7D7e3bNgw9wHyrM-263">
          <mxGeometry x="30" width="330" height="30" as="geometry">
            <mxRectangle width="330" height="30" as="alternateBounds" />
          </mxGeometry>
        </mxCell>
        <mxCell id="Du5RT7D7e3bNgw9wHyrM-266" style="shape=partialRectangle;collapsible=0;dropTarget=0;pointerEvents=0;fillColor=none;points=[[0,0.5],[1,0.5]];portConstraint=eastwest;top=0;left=0;right=0;bottom=0;" vertex="1" parent="Du5RT7D7e3bNgw9wHyrM-253">
          <mxGeometry y="150" width="360" height="40" as="geometry" />
        </mxCell>
        <mxCell id="Du5RT7D7e3bNgw9wHyrM-267" style="shape=partialRectangle;overflow=hidden;connectable=0;fillColor=none;top=0;left=0;bottom=0;right=0;" vertex="1" parent="Du5RT7D7e3bNgw9wHyrM-266">
          <mxGeometry width="30" height="40" as="geometry">
            <mxRectangle width="30" height="40" as="alternateBounds" />
          </mxGeometry>
        </mxCell>
        <mxCell id="Du5RT7D7e3bNgw9wHyrM-268" value="class_info ENUM (&#39;Class schedule&#39;,Â &#xa;&#39;Learning content&#39;) NOT NULL" style="shape=partialRectangle;overflow=hidden;connectable=0;fillColor=none;top=0;left=0;bottom=0;right=0;align=left;spacingLeft=6;" vertex="1" parent="Du5RT7D7e3bNgw9wHyrM-266">
          <mxGeometry x="30" width="330" height="40" as="geometry">
            <mxRectangle width="330" height="40" as="alternateBounds" />
          </mxGeometry>
        </mxCell>
        <mxCell id="Du5RT7D7e3bNgw9wHyrM-269" style="shape=partialRectangle;collapsible=0;dropTarget=0;pointerEvents=0;fillColor=none;points=[[0,0.5],[1,0.5]];portConstraint=eastwest;top=0;left=0;right=0;bottom=0;" vertex="1" parent="Du5RT7D7e3bNgw9wHyrM-253">
          <mxGeometry y="190" width="360" height="30" as="geometry" />
        </mxCell>
        <mxCell id="Du5RT7D7e3bNgw9wHyrM-270" style="shape=partialRectangle;overflow=hidden;connectable=0;fillColor=none;top=0;left=0;bottom=0;right=0;" vertex="1" parent="Du5RT7D7e3bNgw9wHyrM-269">
          <mxGeometry width="30" height="30" as="geometry">
            <mxRectangle width="30" height="30" as="alternateBounds" />
          </mxGeometry>
        </mxCell>
        <mxCell id="Du5RT7D7e3bNgw9wHyrM-271" value="timestamp DATETIME NOT NULL" style="shape=partialRectangle;overflow=hidden;connectable=0;fillColor=none;top=0;left=0;bottom=0;right=0;align=left;spacingLeft=6;" vertex="1" parent="Du5RT7D7e3bNgw9wHyrM-269">
          <mxGeometry x="30" width="330" height="30" as="geometry">
            <mxRectangle width="330" height="30" as="alternateBounds" />
          </mxGeometry>
        </mxCell>
        <mxCell id="Du5RT7D7e3bNgw9wHyrM-272" style="shape=partialRectangle;collapsible=0;dropTarget=0;pointerEvents=0;fillColor=none;points=[[0,0.5],[1,0.5]];portConstraint=eastwest;top=0;left=0;right=0;bottom=0;" vertex="1" parent="Du5RT7D7e3bNgw9wHyrM-253">
          <mxGeometry y="220" width="360" height="30" as="geometry" />
        </mxCell>
        <mxCell id="Du5RT7D7e3bNgw9wHyrM-273" style="shape=partialRectangle;overflow=hidden;connectable=0;fillColor=none;top=0;left=0;bottom=0;right=0;" vertex="1" parent="Du5RT7D7e3bNgw9wHyrM-272">
          <mxGeometry width="30" height="30" as="geometry">
            <mxRectangle width="30" height="30" as="alternateBounds" />
          </mxGeometry>
        </mxCell>
        <mxCell id="Du5RT7D7e3bNgw9wHyrM-274" value="ip_address VARCHAR(60) NOT NULL" style="shape=partialRectangle;overflow=hidden;connectable=0;fillColor=none;top=0;left=0;bottom=0;right=0;align=left;spacingLeft=6;" vertex="1" parent="Du5RT7D7e3bNgw9wHyrM-272">
          <mxGeometry x="30" width="330" height="30" as="geometry">
            <mxRectangle width="330" height="30" as="alternateBounds" />
          </mxGeometry>
        </mxCell>
        <mxCell id="Du5RT7D7e3bNgw9wHyrM-275" style="shape=partialRectangle;collapsible=0;dropTarget=0;pointerEvents=0;fillColor=none;points=[[0,0.5],[1,0.5]];portConstraint=eastwest;top=0;left=0;right=0;bottom=0;" vertex="1" parent="Du5RT7D7e3bNgw9wHyrM-253">
          <mxGeometry y="250" width="360" height="30" as="geometry" />
        </mxCell>
        <mxCell id="Du5RT7D7e3bNgw9wHyrM-276" style="shape=partialRectangle;overflow=hidden;connectable=0;fillColor=none;top=0;left=0;bottom=0;right=0;" vertex="1" parent="Du5RT7D7e3bNgw9wHyrM-275">
          <mxGeometry width="30" height="30" as="geometry">
            <mxRectangle width="30" height="30" as="alternateBounds" />
          </mxGeometry>
        </mxCell>
        <mxCell id="Du5RT7D7e3bNgw9wHyrM-277" value="device_info TEXT NOT NULL" style="shape=partialRectangle;overflow=hidden;connectable=0;fillColor=none;top=0;left=0;bottom=0;right=0;align=left;spacingLeft=6;" vertex="1" parent="Du5RT7D7e3bNgw9wHyrM-275">
          <mxGeometry x="30" width="330" height="30" as="geometry">
            <mxRectangle width="330" height="30" as="alternateBounds" />
          </mxGeometry>
        </mxCell>
        <mxCell id="Du5RT7D7e3bNgw9wHyrM-278" style="shape=partialRectangle;collapsible=0;dropTarget=0;pointerEvents=0;fillColor=none;points=[[0,0.5],[1,0.5]];portConstraint=eastwest;top=0;left=0;right=0;bottom=0;" vertex="1" parent="Du5RT7D7e3bNgw9wHyrM-253">
          <mxGeometry y="280" width="360" height="30" as="geometry" />
        </mxCell>
        <mxCell id="Du5RT7D7e3bNgw9wHyrM-279" style="shape=partialRectangle;overflow=hidden;connectable=0;fillColor=none;top=0;left=0;bottom=0;right=0;" vertex="1" parent="Du5RT7D7e3bNgw9wHyrM-278">
          <mxGeometry width="30" height="30" as="geometry">
            <mxRectangle width="30" height="30" as="alternateBounds" />
          </mxGeometry>
        </mxCell>
        <mxCell id="Du5RT7D7e3bNgw9wHyrM-280" value="action_status ENUM (&#39;Success&#39;, &#39;Failure&#39;) NOT NULL" style="shape=partialRectangle;overflow=hidden;connectable=0;fillColor=none;top=0;left=0;bottom=0;right=0;align=left;spacingLeft=6;" vertex="1" parent="Du5RT7D7e3bNgw9wHyrM-278">
          <mxGeometry x="30" width="330" height="30" as="geometry">
            <mxRectangle width="330" height="30" as="alternateBounds" />
          </mxGeometry>
        </mxCell>
        <mxCell id="Du5RT7D7e3bNgw9wHyrM-281" style="shape=partialRectangle;collapsible=0;dropTarget=0;pointerEvents=0;fillColor=none;points=[[0,0.5],[1,0.5]];portConstraint=eastwest;top=0;left=0;right=0;bottom=0;" vertex="1" parent="Du5RT7D7e3bNgw9wHyrM-253">
          <mxGeometry y="310" width="360" height="30" as="geometry" />
        </mxCell>
        <mxCell id="Du5RT7D7e3bNgw9wHyrM-282" style="shape=partialRectangle;overflow=hidden;connectable=0;fillColor=none;top=0;left=0;bottom=0;right=0;" vertex="1" parent="Du5RT7D7e3bNgw9wHyrM-281">
          <mxGeometry width="30" height="30" as="geometry">
            <mxRectangle width="30" height="30" as="alternateBounds" />
          </mxGeometry>
        </mxCell>
        <mxCell id="Du5RT7D7e3bNgw9wHyrM-283" value="failure_reasonÂ ENUM (&#39;Permission denied&#39;) NOT NULL" style="shape=partialRectangle;overflow=hidden;connectable=0;fillColor=none;top=0;left=0;bottom=0;right=0;align=left;spacingLeft=6;" vertex="1" parent="Du5RT7D7e3bNgw9wHyrM-281">
          <mxGeometry x="30" width="330" height="30" as="geometry">
            <mxRectangle width="330" height="30" as="alternateBounds" />
          </mxGeometry>
        </mxCell>
        <mxCell id="Du5RT7D7e3bNgw9wHyrM-284" value="user_digital_library_logs" style="shape=table;startSize=30;container=1;collapsible=1;childLayout=tableLayout;fixedRows=1;rowLines=0;fontStyle=1;align=center;resizeLast=1;" vertex="1" parent="1">
          <mxGeometry x="5210" y="1770" width="340" height="300.0000000000002" as="geometry" />
        </mxCell>
        <mxCell id="Du5RT7D7e3bNgw9wHyrM-285" value="" style="shape=partialRectangle;collapsible=0;dropTarget=0;pointerEvents=0;fillColor=none;points=[[0,0.5],[1,0.5]];portConstraint=eastwest;top=0;left=0;right=0;bottom=1;" vertex="1" parent="Du5RT7D7e3bNgw9wHyrM-284">
          <mxGeometry y="30" width="340" height="30" as="geometry" />
        </mxCell>
        <mxCell id="Du5RT7D7e3bNgw9wHyrM-286" value="PK" style="shape=partialRectangle;overflow=hidden;connectable=0;fillColor=none;top=0;left=0;bottom=0;right=0;fontStyle=1;" vertex="1" parent="Du5RT7D7e3bNgw9wHyrM-285">
          <mxGeometry width="30" height="30" as="geometry">
            <mxRectangle width="30" height="30" as="alternateBounds" />
          </mxGeometry>
        </mxCell>
        <mxCell id="Du5RT7D7e3bNgw9wHyrM-287" value="log_id BIGINT AUTO_INCREMENT" style="shape=partialRectangle;overflow=hidden;connectable=0;fillColor=none;top=0;left=0;bottom=0;right=0;align=left;spacingLeft=6;fontStyle=1;" vertex="1" parent="Du5RT7D7e3bNgw9wHyrM-285">
          <mxGeometry x="30" width="310" height="30" as="geometry">
            <mxRectangle width="310" height="30" as="alternateBounds" />
          </mxGeometry>
        </mxCell>
        <mxCell id="Du5RT7D7e3bNgw9wHyrM-288" style="shape=partialRectangle;collapsible=0;dropTarget=0;pointerEvents=0;fillColor=none;points=[[0,0.5],[1,0.5]];portConstraint=eastwest;top=0;left=0;right=0;bottom=0;" vertex="1" parent="Du5RT7D7e3bNgw9wHyrM-284">
          <mxGeometry y="60" width="340" height="25" as="geometry" />
        </mxCell>
        <mxCell id="Du5RT7D7e3bNgw9wHyrM-289" value="FK" style="shape=partialRectangle;overflow=hidden;connectable=0;fillColor=none;top=0;left=0;bottom=0;right=0;" vertex="1" parent="Du5RT7D7e3bNgw9wHyrM-288">
          <mxGeometry width="30" height="25" as="geometry">
            <mxRectangle width="30" height="25" as="alternateBounds" />
          </mxGeometry>
        </mxCell>
        <mxCell id="Du5RT7D7e3bNgw9wHyrM-290" value="user_id BIGINT NOT NULL" style="shape=partialRectangle;overflow=hidden;connectable=0;fillColor=none;top=0;left=0;bottom=0;right=0;align=left;spacingLeft=6;" vertex="1" parent="Du5RT7D7e3bNgw9wHyrM-288">
          <mxGeometry x="30" width="310" height="25" as="geometry">
            <mxRectangle width="310" height="25" as="alternateBounds" />
          </mxGeometry>
        </mxCell>
        <mxCell id="Du5RT7D7e3bNgw9wHyrM-291" style="shape=partialRectangle;collapsible=0;dropTarget=0;pointerEvents=0;fillColor=none;points=[[0,0.5],[1,0.5]];portConstraint=eastwest;top=0;left=0;right=0;bottom=0;" vertex="1" parent="Du5RT7D7e3bNgw9wHyrM-284">
          <mxGeometry y="85" width="340" height="35" as="geometry" />
        </mxCell>
        <mxCell id="Du5RT7D7e3bNgw9wHyrM-292" style="shape=partialRectangle;overflow=hidden;connectable=0;fillColor=none;top=0;left=0;bottom=0;right=0;" vertex="1" parent="Du5RT7D7e3bNgw9wHyrM-291">
          <mxGeometry width="30" height="35" as="geometry">
            <mxRectangle width="30" height="35" as="alternateBounds" />
          </mxGeometry>
        </mxCell>
        <mxCell id="Du5RT7D7e3bNgw9wHyrM-293" value="action_type ENUM (&#39;Uploaded&#39;, &#39;Downloaded&#39;,Â &#xa;&#39;Edited&#39;, &#39;Viewed&#39;, &#39;Removed&#39;)) NOT NULL" style="shape=partialRectangle;overflow=hidden;connectable=0;fillColor=none;top=0;left=0;bottom=0;right=0;align=left;spacingLeft=6;" vertex="1" parent="Du5RT7D7e3bNgw9wHyrM-291">
          <mxGeometry x="30" width="310" height="35" as="geometry">
            <mxRectangle width="310" height="35" as="alternateBounds" />
          </mxGeometry>
        </mxCell>
        <mxCell id="Du5RT7D7e3bNgw9wHyrM-294" style="shape=partialRectangle;collapsible=0;dropTarget=0;pointerEvents=0;fillColor=none;points=[[0,0.5],[1,0.5]];portConstraint=eastwest;top=0;left=0;right=0;bottom=0;" vertex="1" parent="Du5RT7D7e3bNgw9wHyrM-284">
          <mxGeometry y="120" width="340" height="30" as="geometry" />
        </mxCell>
        <mxCell id="Du5RT7D7e3bNgw9wHyrM-295" value="" style="shape=partialRectangle;overflow=hidden;connectable=0;fillColor=none;top=0;left=0;bottom=0;right=0;" vertex="1" parent="Du5RT7D7e3bNgw9wHyrM-294">
          <mxGeometry width="30" height="30" as="geometry">
            <mxRectangle width="30" height="30" as="alternateBounds" />
          </mxGeometry>
        </mxCell>
        <mxCell id="Du5RT7D7e3bNgw9wHyrM-296" value="content_id BIGINT NOT NULL" style="shape=partialRectangle;overflow=hidden;connectable=0;fillColor=none;top=0;left=0;bottom=0;right=0;align=left;spacingLeft=6;" vertex="1" parent="Du5RT7D7e3bNgw9wHyrM-294">
          <mxGeometry x="30" width="310" height="30" as="geometry">
            <mxRectangle width="310" height="30" as="alternateBounds" />
          </mxGeometry>
        </mxCell>
        <mxCell id="Du5RT7D7e3bNgw9wHyrM-297" style="shape=partialRectangle;collapsible=0;dropTarget=0;pointerEvents=0;fillColor=none;points=[[0,0.5],[1,0.5]];portConstraint=eastwest;top=0;left=0;right=0;bottom=0;" vertex="1" parent="Du5RT7D7e3bNgw9wHyrM-284">
          <mxGeometry y="150" width="340" height="30" as="geometry" />
        </mxCell>
        <mxCell id="Du5RT7D7e3bNgw9wHyrM-298" style="shape=partialRectangle;overflow=hidden;connectable=0;fillColor=none;top=0;left=0;bottom=0;right=0;" vertex="1" parent="Du5RT7D7e3bNgw9wHyrM-297">
          <mxGeometry width="30" height="30" as="geometry">
            <mxRectangle width="30" height="30" as="alternateBounds" />
          </mxGeometry>
        </mxCell>
        <mxCell id="Du5RT7D7e3bNgw9wHyrM-299" value="timestamp DATETIME NOT NULL" style="shape=partialRectangle;overflow=hidden;connectable=0;fillColor=none;top=0;left=0;bottom=0;right=0;align=left;spacingLeft=6;" vertex="1" parent="Du5RT7D7e3bNgw9wHyrM-297">
          <mxGeometry x="30" width="310" height="30" as="geometry">
            <mxRectangle width="310" height="30" as="alternateBounds" />
          </mxGeometry>
        </mxCell>
        <mxCell id="Du5RT7D7e3bNgw9wHyrM-300" style="shape=partialRectangle;collapsible=0;dropTarget=0;pointerEvents=0;fillColor=none;points=[[0,0.5],[1,0.5]];portConstraint=eastwest;top=0;left=0;right=0;bottom=0;" vertex="1" parent="Du5RT7D7e3bNgw9wHyrM-284">
          <mxGeometry y="180" width="340" height="30" as="geometry" />
        </mxCell>
        <mxCell id="Du5RT7D7e3bNgw9wHyrM-301" style="shape=partialRectangle;overflow=hidden;connectable=0;fillColor=none;top=0;left=0;bottom=0;right=0;" vertex="1" parent="Du5RT7D7e3bNgw9wHyrM-300">
          <mxGeometry width="30" height="30" as="geometry">
            <mxRectangle width="30" height="30" as="alternateBounds" />
          </mxGeometry>
        </mxCell>
        <mxCell id="Du5RT7D7e3bNgw9wHyrM-302" value="ip_address VARCHAR(60) NOT NULL" style="shape=partialRectangle;overflow=hidden;connectable=0;fillColor=none;top=0;left=0;bottom=0;right=0;align=left;spacingLeft=6;" vertex="1" parent="Du5RT7D7e3bNgw9wHyrM-300">
          <mxGeometry x="30" width="310" height="30" as="geometry">
            <mxRectangle width="310" height="30" as="alternateBounds" />
          </mxGeometry>
        </mxCell>
        <mxCell id="Du5RT7D7e3bNgw9wHyrM-303" style="shape=partialRectangle;collapsible=0;dropTarget=0;pointerEvents=0;fillColor=none;points=[[0,0.5],[1,0.5]];portConstraint=eastwest;top=0;left=0;right=0;bottom=0;" vertex="1" parent="Du5RT7D7e3bNgw9wHyrM-284">
          <mxGeometry y="210" width="340" height="30" as="geometry" />
        </mxCell>
        <mxCell id="Du5RT7D7e3bNgw9wHyrM-304" style="shape=partialRectangle;overflow=hidden;connectable=0;fillColor=none;top=0;left=0;bottom=0;right=0;" vertex="1" parent="Du5RT7D7e3bNgw9wHyrM-303">
          <mxGeometry width="30" height="30" as="geometry">
            <mxRectangle width="30" height="30" as="alternateBounds" />
          </mxGeometry>
        </mxCell>
        <mxCell id="Du5RT7D7e3bNgw9wHyrM-305" value="device_info TEXT NOT NULL" style="shape=partialRectangle;overflow=hidden;connectable=0;fillColor=none;top=0;left=0;bottom=0;right=0;align=left;spacingLeft=6;" vertex="1" parent="Du5RT7D7e3bNgw9wHyrM-303">
          <mxGeometry x="30" width="310" height="30" as="geometry">
            <mxRectangle width="310" height="30" as="alternateBounds" />
          </mxGeometry>
        </mxCell>
        <mxCell id="Du5RT7D7e3bNgw9wHyrM-306" style="shape=partialRectangle;collapsible=0;dropTarget=0;pointerEvents=0;fillColor=none;points=[[0,0.5],[1,0.5]];portConstraint=eastwest;top=0;left=0;right=0;bottom=0;" vertex="1" parent="Du5RT7D7e3bNgw9wHyrM-284">
          <mxGeometry y="240" width="340" height="30" as="geometry" />
        </mxCell>
        <mxCell id="Du5RT7D7e3bNgw9wHyrM-307" style="shape=partialRectangle;overflow=hidden;connectable=0;fillColor=none;top=0;left=0;bottom=0;right=0;" vertex="1" parent="Du5RT7D7e3bNgw9wHyrM-306">
          <mxGeometry width="30" height="30" as="geometry">
            <mxRectangle width="30" height="30" as="alternateBounds" />
          </mxGeometry>
        </mxCell>
        <mxCell id="Du5RT7D7e3bNgw9wHyrM-308" value="action_status ENUM (&#39;Success&#39;, &#39;Failure&#39;) NOT NULL" style="shape=partialRectangle;overflow=hidden;connectable=0;fillColor=none;top=0;left=0;bottom=0;right=0;align=left;spacingLeft=6;" vertex="1" parent="Du5RT7D7e3bNgw9wHyrM-306">
          <mxGeometry x="30" width="310" height="30" as="geometry">
            <mxRectangle width="310" height="30" as="alternateBounds" />
          </mxGeometry>
        </mxCell>
        <mxCell id="Du5RT7D7e3bNgw9wHyrM-309" style="shape=partialRectangle;collapsible=0;dropTarget=0;pointerEvents=0;fillColor=none;points=[[0,0.5],[1,0.5]];portConstraint=eastwest;top=0;left=0;right=0;bottom=0;" vertex="1" parent="Du5RT7D7e3bNgw9wHyrM-284">
          <mxGeometry y="270" width="340" height="30" as="geometry" />
        </mxCell>
        <mxCell id="Du5RT7D7e3bNgw9wHyrM-310" style="shape=partialRectangle;overflow=hidden;connectable=0;fillColor=none;top=0;left=0;bottom=0;right=0;" vertex="1" parent="Du5RT7D7e3bNgw9wHyrM-309">
          <mxGeometry width="30" height="30" as="geometry">
            <mxRectangle width="30" height="30" as="alternateBounds" />
          </mxGeometry>
        </mxCell>
        <mxCell id="Du5RT7D7e3bNgw9wHyrM-311" value="failure_reasonÂ ENUM (&#39;Permission denied&#39;) NOT NULL" style="shape=partialRectangle;overflow=hidden;connectable=0;fillColor=none;top=0;left=0;bottom=0;right=0;align=left;spacingLeft=6;" vertex="1" parent="Du5RT7D7e3bNgw9wHyrM-309">
          <mxGeometry x="30" width="310" height="30" as="geometry">
            <mxRectangle width="310" height="30" as="alternateBounds" />
          </mxGeometry>
        </mxCell>
        <mxCell id="Du5RT7D7e3bNgw9wHyrM-312" value="students_assessment_logs" style="shape=table;startSize=30;container=1;collapsible=1;childLayout=tableLayout;fixedRows=1;rowLines=0;fontStyle=1;align=center;resizeLast=1;" vertex="1" parent="1">
          <mxGeometry x="3700" y="1275" width="340" height="320.0000000000002" as="geometry" />
        </mxCell>
        <mxCell id="Du5RT7D7e3bNgw9wHyrM-313" value="" style="shape=partialRectangle;collapsible=0;dropTarget=0;pointerEvents=0;fillColor=none;points=[[0,0.5],[1,0.5]];portConstraint=eastwest;top=0;left=0;right=0;bottom=1;" vertex="1" parent="Du5RT7D7e3bNgw9wHyrM-312">
          <mxGeometry y="30" width="340" height="30" as="geometry" />
        </mxCell>
        <mxCell id="Du5RT7D7e3bNgw9wHyrM-314" value="PK" style="shape=partialRectangle;overflow=hidden;connectable=0;fillColor=none;top=0;left=0;bottom=0;right=0;fontStyle=1;" vertex="1" parent="Du5RT7D7e3bNgw9wHyrM-313">
          <mxGeometry width="30" height="30" as="geometry">
            <mxRectangle width="30" height="30" as="alternateBounds" />
          </mxGeometry>
        </mxCell>
        <mxCell id="Du5RT7D7e3bNgw9wHyrM-315" value="log_id BIGINT AUTO_INCREMENT" style="shape=partialRectangle;overflow=hidden;connectable=0;fillColor=none;top=0;left=0;bottom=0;right=0;align=left;spacingLeft=6;fontStyle=1;" vertex="1" parent="Du5RT7D7e3bNgw9wHyrM-313">
          <mxGeometry x="30" width="310" height="30" as="geometry">
            <mxRectangle width="310" height="30" as="alternateBounds" />
          </mxGeometry>
        </mxCell>
        <mxCell id="Du5RT7D7e3bNgw9wHyrM-316" style="shape=partialRectangle;collapsible=0;dropTarget=0;pointerEvents=0;fillColor=none;points=[[0,0.5],[1,0.5]];portConstraint=eastwest;top=0;left=0;right=0;bottom=0;" vertex="1" parent="Du5RT7D7e3bNgw9wHyrM-312">
          <mxGeometry y="60" width="340" height="30" as="geometry" />
        </mxCell>
        <mxCell id="Du5RT7D7e3bNgw9wHyrM-317" value="FK" style="shape=partialRectangle;overflow=hidden;connectable=0;fillColor=none;top=0;left=0;bottom=0;right=0;" vertex="1" parent="Du5RT7D7e3bNgw9wHyrM-316">
          <mxGeometry width="30" height="30" as="geometry">
            <mxRectangle width="30" height="30" as="alternateBounds" />
          </mxGeometry>
        </mxCell>
        <mxCell id="Du5RT7D7e3bNgw9wHyrM-318" value="user_id BIGINT NOT NULL" style="shape=partialRectangle;overflow=hidden;connectable=0;fillColor=none;top=0;left=0;bottom=0;right=0;align=left;spacingLeft=6;" vertex="1" parent="Du5RT7D7e3bNgw9wHyrM-316">
          <mxGeometry x="30" width="310" height="30" as="geometry">
            <mxRectangle width="310" height="30" as="alternateBounds" />
          </mxGeometry>
        </mxCell>
        <mxCell id="Du5RT7D7e3bNgw9wHyrM-319" style="shape=partialRectangle;collapsible=0;dropTarget=0;pointerEvents=0;fillColor=none;points=[[0,0.5],[1,0.5]];portConstraint=eastwest;top=0;left=0;right=0;bottom=0;" vertex="1" parent="Du5RT7D7e3bNgw9wHyrM-312">
          <mxGeometry y="90" width="340" height="40" as="geometry" />
        </mxCell>
        <mxCell id="Du5RT7D7e3bNgw9wHyrM-320" style="shape=partialRectangle;overflow=hidden;connectable=0;fillColor=none;top=0;left=0;bottom=0;right=0;" vertex="1" parent="Du5RT7D7e3bNgw9wHyrM-319">
          <mxGeometry width="30" height="40" as="geometry">
            <mxRectangle width="30" height="40" as="alternateBounds" />
          </mxGeometry>
        </mxCell>
        <mxCell id="Du5RT7D7e3bNgw9wHyrM-321" value="action_type ENUM (&#39;Clicked, &#39;Started&#39;, &#39;Paused&#39;,Â &#xa;&#39;Finished&#39;, &#39;Submitted&#39;)) NOT NULL" style="shape=partialRectangle;overflow=hidden;connectable=0;fillColor=none;top=0;left=0;bottom=0;right=0;align=left;spacingLeft=6;" vertex="1" parent="Du5RT7D7e3bNgw9wHyrM-319">
          <mxGeometry x="30" width="310" height="40" as="geometry">
            <mxRectangle width="310" height="40" as="alternateBounds" />
          </mxGeometry>
        </mxCell>
        <mxCell id="Du5RT7D7e3bNgw9wHyrM-322" style="shape=partialRectangle;collapsible=0;dropTarget=0;pointerEvents=0;fillColor=none;points=[[0,0.5],[1,0.5]];portConstraint=eastwest;top=0;left=0;right=0;bottom=0;" vertex="1" parent="Du5RT7D7e3bNgw9wHyrM-312">
          <mxGeometry y="130" width="340" height="30" as="geometry" />
        </mxCell>
        <mxCell id="Du5RT7D7e3bNgw9wHyrM-323" style="shape=partialRectangle;overflow=hidden;connectable=0;fillColor=none;top=0;left=0;bottom=0;right=0;" vertex="1" parent="Du5RT7D7e3bNgw9wHyrM-322">
          <mxGeometry width="30" height="30" as="geometry">
            <mxRectangle width="30" height="30" as="alternateBounds" />
          </mxGeometry>
        </mxCell>
        <mxCell id="Du5RT7D7e3bNgw9wHyrM-324" value="assignment_id BIGINT NOT NULL" style="shape=partialRectangle;overflow=hidden;connectable=0;fillColor=none;top=0;left=0;bottom=0;right=0;align=left;spacingLeft=6;" vertex="1" parent="Du5RT7D7e3bNgw9wHyrM-322">
          <mxGeometry x="30" width="310" height="30" as="geometry">
            <mxRectangle width="310" height="30" as="alternateBounds" />
          </mxGeometry>
        </mxCell>
        <mxCell id="Du5RT7D7e3bNgw9wHyrM-325" style="shape=partialRectangle;collapsible=0;dropTarget=0;pointerEvents=0;fillColor=none;points=[[0,0.5],[1,0.5]];portConstraint=eastwest;top=0;left=0;right=0;bottom=0;" vertex="1" parent="Du5RT7D7e3bNgw9wHyrM-312">
          <mxGeometry y="160" width="340" height="30" as="geometry" />
        </mxCell>
        <mxCell id="Du5RT7D7e3bNgw9wHyrM-326" value="" style="shape=partialRectangle;overflow=hidden;connectable=0;fillColor=none;top=0;left=0;bottom=0;right=0;" vertex="1" parent="Du5RT7D7e3bNgw9wHyrM-325">
          <mxGeometry width="30" height="30" as="geometry">
            <mxRectangle width="30" height="30" as="alternateBounds" />
          </mxGeometry>
        </mxCell>
        <mxCell id="Du5RT7D7e3bNgw9wHyrM-327" value="timestamp DATETIME NOT NULL" style="shape=partialRectangle;overflow=hidden;connectable=0;fillColor=none;top=0;left=0;bottom=0;right=0;align=left;spacingLeft=6;" vertex="1" parent="Du5RT7D7e3bNgw9wHyrM-325">
          <mxGeometry x="30" width="310" height="30" as="geometry">
            <mxRectangle width="310" height="30" as="alternateBounds" />
          </mxGeometry>
        </mxCell>
        <mxCell id="Du5RT7D7e3bNgw9wHyrM-328" style="shape=partialRectangle;collapsible=0;dropTarget=0;pointerEvents=0;fillColor=none;points=[[0,0.5],[1,0.5]];portConstraint=eastwest;top=0;left=0;right=0;bottom=0;" vertex="1" parent="Du5RT7D7e3bNgw9wHyrM-312">
          <mxGeometry y="190" width="340" height="30" as="geometry" />
        </mxCell>
        <mxCell id="Du5RT7D7e3bNgw9wHyrM-329" style="shape=partialRectangle;overflow=hidden;connectable=0;fillColor=none;top=0;left=0;bottom=0;right=0;" vertex="1" parent="Du5RT7D7e3bNgw9wHyrM-328">
          <mxGeometry width="30" height="30" as="geometry">
            <mxRectangle width="30" height="30" as="alternateBounds" />
          </mxGeometry>
        </mxCell>
        <mxCell id="Du5RT7D7e3bNgw9wHyrM-330" value="ip_address VARCHAR(60) NOT NULL" style="shape=partialRectangle;overflow=hidden;connectable=0;fillColor=none;top=0;left=0;bottom=0;right=0;align=left;spacingLeft=6;" vertex="1" parent="Du5RT7D7e3bNgw9wHyrM-328">
          <mxGeometry x="30" width="310" height="30" as="geometry">
            <mxRectangle width="310" height="30" as="alternateBounds" />
          </mxGeometry>
        </mxCell>
        <mxCell id="Du5RT7D7e3bNgw9wHyrM-331" style="shape=partialRectangle;collapsible=0;dropTarget=0;pointerEvents=0;fillColor=none;points=[[0,0.5],[1,0.5]];portConstraint=eastwest;top=0;left=0;right=0;bottom=0;" vertex="1" parent="Du5RT7D7e3bNgw9wHyrM-312">
          <mxGeometry y="220" width="340" height="30" as="geometry" />
        </mxCell>
        <mxCell id="Du5RT7D7e3bNgw9wHyrM-332" style="shape=partialRectangle;overflow=hidden;connectable=0;fillColor=none;top=0;left=0;bottom=0;right=0;" vertex="1" parent="Du5RT7D7e3bNgw9wHyrM-331">
          <mxGeometry width="30" height="30" as="geometry">
            <mxRectangle width="30" height="30" as="alternateBounds" />
          </mxGeometry>
        </mxCell>
        <mxCell id="Du5RT7D7e3bNgw9wHyrM-333" value="device_info TEXT NOT NULL" style="shape=partialRectangle;overflow=hidden;connectable=0;fillColor=none;top=0;left=0;bottom=0;right=0;align=left;spacingLeft=6;" vertex="1" parent="Du5RT7D7e3bNgw9wHyrM-331">
          <mxGeometry x="30" width="310" height="30" as="geometry">
            <mxRectangle width="310" height="30" as="alternateBounds" />
          </mxGeometry>
        </mxCell>
        <mxCell id="Du5RT7D7e3bNgw9wHyrM-334" style="shape=partialRectangle;collapsible=0;dropTarget=0;pointerEvents=0;fillColor=none;points=[[0,0.5],[1,0.5]];portConstraint=eastwest;top=0;left=0;right=0;bottom=0;" vertex="1" parent="Du5RT7D7e3bNgw9wHyrM-312">
          <mxGeometry y="250" width="340" height="30" as="geometry" />
        </mxCell>
        <mxCell id="Du5RT7D7e3bNgw9wHyrM-335" style="shape=partialRectangle;overflow=hidden;connectable=0;fillColor=none;top=0;left=0;bottom=0;right=0;" vertex="1" parent="Du5RT7D7e3bNgw9wHyrM-334">
          <mxGeometry width="30" height="30" as="geometry">
            <mxRectangle width="30" height="30" as="alternateBounds" />
          </mxGeometry>
        </mxCell>
        <mxCell id="Du5RT7D7e3bNgw9wHyrM-336" value="answers ENUM (&#39;Correct&#39;, &#39;Incorrect&#39;, &#39;N/A&#39;) NOT NULL" style="shape=partialRectangle;overflow=hidden;connectable=0;fillColor=none;top=0;left=0;bottom=0;right=0;align=left;spacingLeft=6;" vertex="1" parent="Du5RT7D7e3bNgw9wHyrM-334">
          <mxGeometry x="30" width="310" height="30" as="geometry">
            <mxRectangle width="310" height="30" as="alternateBounds" />
          </mxGeometry>
        </mxCell>
        <mxCell id="Du5RT7D7e3bNgw9wHyrM-337" style="shape=partialRectangle;collapsible=0;dropTarget=0;pointerEvents=0;fillColor=none;points=[[0,0.5],[1,0.5]];portConstraint=eastwest;top=0;left=0;right=0;bottom=0;" vertex="1" parent="Du5RT7D7e3bNgw9wHyrM-312">
          <mxGeometry y="280" width="340" height="40" as="geometry" />
        </mxCell>
        <mxCell id="Du5RT7D7e3bNgw9wHyrM-338" style="shape=partialRectangle;overflow=hidden;connectable=0;fillColor=none;top=0;left=0;bottom=0;right=0;" vertex="1" parent="Du5RT7D7e3bNgw9wHyrM-337">
          <mxGeometry width="30" height="40" as="geometry">
            <mxRectangle width="30" height="40" as="alternateBounds" />
          </mxGeometry>
        </mxCell>
        <mxCell id="Du5RT7D7e3bNgw9wHyrM-339" value="answers_reasons NOT NULL" style="shape=partialRectangle;overflow=hidden;connectable=0;fillColor=none;top=0;left=0;bottom=0;right=0;align=left;spacingLeft=6;" vertex="1" parent="Du5RT7D7e3bNgw9wHyrM-337">
          <mxGeometry x="30" width="310" height="40" as="geometry">
            <mxRectangle width="310" height="40" as="alternateBounds" />
          </mxGeometry>
        </mxCell>
        <mxCell id="Du5RT7D7e3bNgw9wHyrM-340" value="teachers_assessment_logs" style="shape=table;startSize=30;container=1;collapsible=1;childLayout=tableLayout;fixedRows=1;rowLines=0;fontStyle=1;align=center;resizeLast=1;" vertex="1" parent="1">
          <mxGeometry x="3320" y="1140" width="340" height="280.0000000000002" as="geometry" />
        </mxCell>
        <mxCell id="Du5RT7D7e3bNgw9wHyrM-341" value="" style="shape=partialRectangle;collapsible=0;dropTarget=0;pointerEvents=0;fillColor=none;points=[[0,0.5],[1,0.5]];portConstraint=eastwest;top=0;left=0;right=0;bottom=1;" vertex="1" parent="Du5RT7D7e3bNgw9wHyrM-340">
          <mxGeometry y="30" width="340" height="30" as="geometry" />
        </mxCell>
        <mxCell id="Du5RT7D7e3bNgw9wHyrM-342" value="PK" style="shape=partialRectangle;overflow=hidden;connectable=0;fillColor=none;top=0;left=0;bottom=0;right=0;fontStyle=1;" vertex="1" parent="Du5RT7D7e3bNgw9wHyrM-341">
          <mxGeometry width="30" height="30" as="geometry">
            <mxRectangle width="30" height="30" as="alternateBounds" />
          </mxGeometry>
        </mxCell>
        <mxCell id="Du5RT7D7e3bNgw9wHyrM-343" value="log_id BIGINT AUTO_INCREMENT" style="shape=partialRectangle;overflow=hidden;connectable=0;fillColor=none;top=0;left=0;bottom=0;right=0;align=left;spacingLeft=6;fontStyle=1;" vertex="1" parent="Du5RT7D7e3bNgw9wHyrM-341">
          <mxGeometry x="30" width="310" height="30" as="geometry">
            <mxRectangle width="310" height="30" as="alternateBounds" />
          </mxGeometry>
        </mxCell>
        <mxCell id="Du5RT7D7e3bNgw9wHyrM-344" style="shape=partialRectangle;collapsible=0;dropTarget=0;pointerEvents=0;fillColor=none;points=[[0,0.5],[1,0.5]];portConstraint=eastwest;top=0;left=0;right=0;bottom=0;" vertex="1" parent="Du5RT7D7e3bNgw9wHyrM-340">
          <mxGeometry y="60" width="340" height="30" as="geometry" />
        </mxCell>
        <mxCell id="Du5RT7D7e3bNgw9wHyrM-345" value="FK" style="shape=partialRectangle;overflow=hidden;connectable=0;fillColor=none;top=0;left=0;bottom=0;right=0;" vertex="1" parent="Du5RT7D7e3bNgw9wHyrM-344">
          <mxGeometry width="30" height="30" as="geometry">
            <mxRectangle width="30" height="30" as="alternateBounds" />
          </mxGeometry>
        </mxCell>
        <mxCell id="Du5RT7D7e3bNgw9wHyrM-346" value="user_id BIGINT NOT NULL" style="shape=partialRectangle;overflow=hidden;connectable=0;fillColor=none;top=0;left=0;bottom=0;right=0;align=left;spacingLeft=6;" vertex="1" parent="Du5RT7D7e3bNgw9wHyrM-344">
          <mxGeometry x="30" width="310" height="30" as="geometry">
            <mxRectangle width="310" height="30" as="alternateBounds" />
          </mxGeometry>
        </mxCell>
        <mxCell id="Du5RT7D7e3bNgw9wHyrM-347" style="shape=partialRectangle;collapsible=0;dropTarget=0;pointerEvents=0;fillColor=none;points=[[0,0.5],[1,0.5]];portConstraint=eastwest;top=0;left=0;right=0;bottom=0;" vertex="1" parent="Du5RT7D7e3bNgw9wHyrM-340">
          <mxGeometry y="90" width="340" height="30" as="geometry" />
        </mxCell>
        <mxCell id="Du5RT7D7e3bNgw9wHyrM-348" style="shape=partialRectangle;overflow=hidden;connectable=0;fillColor=none;top=0;left=0;bottom=0;right=0;" vertex="1" parent="Du5RT7D7e3bNgw9wHyrM-347">
          <mxGeometry width="30" height="30" as="geometry">
            <mxRectangle width="30" height="30" as="alternateBounds" />
          </mxGeometry>
        </mxCell>
        <mxCell id="Du5RT7D7e3bNgw9wHyrM-349" value="action_type ENUM (&#39;Create, &#39;Edit&#39;, &#39;Set&#39;, &#39;Remove&#39;))Â &#xa;NOT NULL" style="shape=partialRectangle;overflow=hidden;connectable=0;fillColor=none;top=0;left=0;bottom=0;right=0;align=left;spacingLeft=6;" vertex="1" parent="Du5RT7D7e3bNgw9wHyrM-347">
          <mxGeometry x="30" width="310" height="30" as="geometry">
            <mxRectangle width="310" height="30" as="alternateBounds" />
          </mxGeometry>
        </mxCell>
        <mxCell id="Du5RT7D7e3bNgw9wHyrM-350" style="shape=partialRectangle;collapsible=0;dropTarget=0;pointerEvents=0;fillColor=none;points=[[0,0.5],[1,0.5]];portConstraint=eastwest;top=0;left=0;right=0;bottom=0;" vertex="1" parent="Du5RT7D7e3bNgw9wHyrM-340">
          <mxGeometry y="120" width="340" height="40" as="geometry" />
        </mxCell>
        <mxCell id="Du5RT7D7e3bNgw9wHyrM-351" style="shape=partialRectangle;overflow=hidden;connectable=0;fillColor=none;top=0;left=0;bottom=0;right=0;" vertex="1" parent="Du5RT7D7e3bNgw9wHyrM-350">
          <mxGeometry width="30" height="40" as="geometry">
            <mxRectangle width="30" height="40" as="alternateBounds" />
          </mxGeometry>
        </mxCell>
        <mxCell id="Du5RT7D7e3bNgw9wHyrM-352" value="assignment_parts ENUM (&#39;Assignment name,Â &#xa;&#39;Asssignment details&#39;,Â &#39;Questions&#39;, Deadline) NOT NULL" style="shape=partialRectangle;overflow=hidden;connectable=0;fillColor=none;top=0;left=0;bottom=0;right=0;align=left;spacingLeft=6;" vertex="1" parent="Du5RT7D7e3bNgw9wHyrM-350">
          <mxGeometry x="30" width="310" height="40" as="geometry">
            <mxRectangle width="310" height="40" as="alternateBounds" />
          </mxGeometry>
        </mxCell>
        <mxCell id="Du5RT7D7e3bNgw9wHyrM-353" style="shape=partialRectangle;collapsible=0;dropTarget=0;pointerEvents=0;fillColor=none;points=[[0,0.5],[1,0.5]];portConstraint=eastwest;top=0;left=0;right=0;bottom=0;" vertex="1" parent="Du5RT7D7e3bNgw9wHyrM-340">
          <mxGeometry y="160" width="340" height="30" as="geometry" />
        </mxCell>
        <mxCell id="Du5RT7D7e3bNgw9wHyrM-354" value="FK" style="shape=partialRectangle;overflow=hidden;connectable=0;fillColor=none;top=0;left=0;bottom=0;right=0;" vertex="1" parent="Du5RT7D7e3bNgw9wHyrM-353">
          <mxGeometry width="30" height="30" as="geometry">
            <mxRectangle width="30" height="30" as="alternateBounds" />
          </mxGeometry>
        </mxCell>
        <mxCell id="Du5RT7D7e3bNgw9wHyrM-355" value="assingment_id NOT NULL" style="shape=partialRectangle;overflow=hidden;connectable=0;fillColor=none;top=0;left=0;bottom=0;right=0;align=left;spacingLeft=6;" vertex="1" parent="Du5RT7D7e3bNgw9wHyrM-353">
          <mxGeometry x="30" width="310" height="30" as="geometry">
            <mxRectangle width="310" height="30" as="alternateBounds" />
          </mxGeometry>
        </mxCell>
        <mxCell id="Du5RT7D7e3bNgw9wHyrM-356" style="shape=partialRectangle;collapsible=0;dropTarget=0;pointerEvents=0;fillColor=none;points=[[0,0.5],[1,0.5]];portConstraint=eastwest;top=0;left=0;right=0;bottom=0;" vertex="1" parent="Du5RT7D7e3bNgw9wHyrM-340">
          <mxGeometry y="190" width="340" height="30" as="geometry" />
        </mxCell>
        <mxCell id="Du5RT7D7e3bNgw9wHyrM-357" style="shape=partialRectangle;overflow=hidden;connectable=0;fillColor=none;top=0;left=0;bottom=0;right=0;" vertex="1" parent="Du5RT7D7e3bNgw9wHyrM-356">
          <mxGeometry width="30" height="30" as="geometry">
            <mxRectangle width="30" height="30" as="alternateBounds" />
          </mxGeometry>
        </mxCell>
        <mxCell id="Du5RT7D7e3bNgw9wHyrM-358" value="timestamp DATETIME NOT NULL" style="shape=partialRectangle;overflow=hidden;connectable=0;fillColor=none;top=0;left=0;bottom=0;right=0;align=left;spacingLeft=6;" vertex="1" parent="Du5RT7D7e3bNgw9wHyrM-356">
          <mxGeometry x="30" width="310" height="30" as="geometry">
            <mxRectangle width="310" height="30" as="alternateBounds" />
          </mxGeometry>
        </mxCell>
        <mxCell id="Du5RT7D7e3bNgw9wHyrM-359" style="shape=partialRectangle;collapsible=0;dropTarget=0;pointerEvents=0;fillColor=none;points=[[0,0.5],[1,0.5]];portConstraint=eastwest;top=0;left=0;right=0;bottom=0;" vertex="1" parent="Du5RT7D7e3bNgw9wHyrM-340">
          <mxGeometry y="220" width="340" height="30" as="geometry" />
        </mxCell>
        <mxCell id="Du5RT7D7e3bNgw9wHyrM-360" style="shape=partialRectangle;overflow=hidden;connectable=0;fillColor=none;top=0;left=0;bottom=0;right=0;" vertex="1" parent="Du5RT7D7e3bNgw9wHyrM-359">
          <mxGeometry width="30" height="30" as="geometry">
            <mxRectangle width="30" height="30" as="alternateBounds" />
          </mxGeometry>
        </mxCell>
        <mxCell id="Du5RT7D7e3bNgw9wHyrM-361" value="ip_address VARCHAR(60) NOT NULL" style="shape=partialRectangle;overflow=hidden;connectable=0;fillColor=none;top=0;left=0;bottom=0;right=0;align=left;spacingLeft=6;" vertex="1" parent="Du5RT7D7e3bNgw9wHyrM-359">
          <mxGeometry x="30" width="310" height="30" as="geometry">
            <mxRectangle width="310" height="30" as="alternateBounds" />
          </mxGeometry>
        </mxCell>
        <mxCell id="Du5RT7D7e3bNgw9wHyrM-362" style="shape=partialRectangle;collapsible=0;dropTarget=0;pointerEvents=0;fillColor=none;points=[[0,0.5],[1,0.5]];portConstraint=eastwest;top=0;left=0;right=0;bottom=0;" vertex="1" parent="Du5RT7D7e3bNgw9wHyrM-340">
          <mxGeometry y="250" width="340" height="30" as="geometry" />
        </mxCell>
        <mxCell id="Du5RT7D7e3bNgw9wHyrM-363" style="shape=partialRectangle;overflow=hidden;connectable=0;fillColor=none;top=0;left=0;bottom=0;right=0;" vertex="1" parent="Du5RT7D7e3bNgw9wHyrM-362">
          <mxGeometry width="30" height="30" as="geometry">
            <mxRectangle width="30" height="30" as="alternateBounds" />
          </mxGeometry>
        </mxCell>
        <mxCell id="Du5RT7D7e3bNgw9wHyrM-364" value="device_info TEXT NOT NULL" style="shape=partialRectangle;overflow=hidden;connectable=0;fillColor=none;top=0;left=0;bottom=0;right=0;align=left;spacingLeft=6;" vertex="1" parent="Du5RT7D7e3bNgw9wHyrM-362">
          <mxGeometry x="30" width="310" height="30" as="geometry">
            <mxRectangle width="310" height="30" as="alternateBounds" />
          </mxGeometry>
        </mxCell>
        <mxCell id="Du5RT7D7e3bNgw9wHyrM-365" value="teachers_feedback_logs" style="shape=table;startSize=30;container=1;collapsible=1;childLayout=tableLayout;fixedRows=1;rowLines=0;fontStyle=1;align=center;resizeLast=1;" vertex="1" parent="1">
          <mxGeometry x="3270" y="2250" width="330" height="300.0000000000002" as="geometry" />
        </mxCell>
        <mxCell id="Du5RT7D7e3bNgw9wHyrM-366" value="" style="shape=partialRectangle;collapsible=0;dropTarget=0;pointerEvents=0;fillColor=none;points=[[0,0.5],[1,0.5]];portConstraint=eastwest;top=0;left=0;right=0;bottom=1;" vertex="1" parent="Du5RT7D7e3bNgw9wHyrM-365">
          <mxGeometry y="30" width="330" height="30" as="geometry" />
        </mxCell>
        <mxCell id="Du5RT7D7e3bNgw9wHyrM-367" value="PK" style="shape=partialRectangle;overflow=hidden;connectable=0;fillColor=none;top=0;left=0;bottom=0;right=0;fontStyle=1;" vertex="1" parent="Du5RT7D7e3bNgw9wHyrM-366">
          <mxGeometry width="30" height="30" as="geometry">
            <mxRectangle width="30" height="30" as="alternateBounds" />
          </mxGeometry>
        </mxCell>
        <mxCell id="Du5RT7D7e3bNgw9wHyrM-368" value="log_id BIGINT AUTO_INCREMENT" style="shape=partialRectangle;overflow=hidden;connectable=0;fillColor=none;top=0;left=0;bottom=0;right=0;align=left;spacingLeft=6;fontStyle=1;" vertex="1" parent="Du5RT7D7e3bNgw9wHyrM-366">
          <mxGeometry x="30" width="300" height="30" as="geometry">
            <mxRectangle width="300" height="30" as="alternateBounds" />
          </mxGeometry>
        </mxCell>
        <mxCell id="Du5RT7D7e3bNgw9wHyrM-369" style="shape=partialRectangle;collapsible=0;dropTarget=0;pointerEvents=0;fillColor=none;points=[[0,0.5],[1,0.5]];portConstraint=eastwest;top=0;left=0;right=0;bottom=0;" vertex="1" parent="Du5RT7D7e3bNgw9wHyrM-365">
          <mxGeometry y="60" width="330" height="30" as="geometry" />
        </mxCell>
        <mxCell id="Du5RT7D7e3bNgw9wHyrM-370" value="FK" style="shape=partialRectangle;overflow=hidden;connectable=0;fillColor=none;top=0;left=0;bottom=0;right=0;" vertex="1" parent="Du5RT7D7e3bNgw9wHyrM-369">
          <mxGeometry width="30" height="30" as="geometry">
            <mxRectangle width="30" height="30" as="alternateBounds" />
          </mxGeometry>
        </mxCell>
        <mxCell id="Du5RT7D7e3bNgw9wHyrM-371" value="Teacher_id BIGINT NOT NULL" style="shape=partialRectangle;overflow=hidden;connectable=0;fillColor=none;top=0;left=0;bottom=0;right=0;align=left;spacingLeft=6;" vertex="1" parent="Du5RT7D7e3bNgw9wHyrM-369">
          <mxGeometry x="30" width="300" height="30" as="geometry">
            <mxRectangle width="300" height="30" as="alternateBounds" />
          </mxGeometry>
        </mxCell>
        <mxCell id="Du5RT7D7e3bNgw9wHyrM-372" style="shape=partialRectangle;collapsible=0;dropTarget=0;pointerEvents=0;fillColor=none;points=[[0,0.5],[1,0.5]];portConstraint=eastwest;top=0;left=0;right=0;bottom=0;" vertex="1" parent="Du5RT7D7e3bNgw9wHyrM-365">
          <mxGeometry y="90" width="330" height="30" as="geometry" />
        </mxCell>
        <mxCell id="Du5RT7D7e3bNgw9wHyrM-373" value="FK" style="shape=partialRectangle;overflow=hidden;connectable=0;fillColor=none;top=0;left=0;bottom=0;right=0;" vertex="1" parent="Du5RT7D7e3bNgw9wHyrM-372">
          <mxGeometry width="30" height="30" as="geometry">
            <mxRectangle width="30" height="30" as="alternateBounds" />
          </mxGeometry>
        </mxCell>
        <mxCell id="Du5RT7D7e3bNgw9wHyrM-374" value="student_id BIGINT NOT NULL" style="shape=partialRectangle;overflow=hidden;connectable=0;fillColor=none;top=0;left=0;bottom=0;right=0;align=left;spacingLeft=6;" vertex="1" parent="Du5RT7D7e3bNgw9wHyrM-372">
          <mxGeometry x="30" width="300" height="30" as="geometry">
            <mxRectangle width="300" height="30" as="alternateBounds" />
          </mxGeometry>
        </mxCell>
        <mxCell id="Du5RT7D7e3bNgw9wHyrM-375" style="shape=partialRectangle;collapsible=0;dropTarget=0;pointerEvents=0;fillColor=none;points=[[0,0.5],[1,0.5]];portConstraint=eastwest;top=0;left=0;right=0;bottom=0;" vertex="1" parent="Du5RT7D7e3bNgw9wHyrM-365">
          <mxGeometry y="120" width="330" height="30" as="geometry" />
        </mxCell>
        <mxCell id="Du5RT7D7e3bNgw9wHyrM-376" value="FK" style="shape=partialRectangle;overflow=hidden;connectable=0;fillColor=none;top=0;left=0;bottom=0;right=0;" vertex="1" parent="Du5RT7D7e3bNgw9wHyrM-375">
          <mxGeometry width="30" height="30" as="geometry">
            <mxRectangle width="30" height="30" as="alternateBounds" />
          </mxGeometry>
        </mxCell>
        <mxCell id="Du5RT7D7e3bNgw9wHyrM-377" value="assignment_id BIGINT NOT NULL" style="shape=partialRectangle;overflow=hidden;connectable=0;fillColor=none;top=0;left=0;bottom=0;right=0;align=left;spacingLeft=6;" vertex="1" parent="Du5RT7D7e3bNgw9wHyrM-375">
          <mxGeometry x="30" width="300" height="30" as="geometry">
            <mxRectangle width="300" height="30" as="alternateBounds" />
          </mxGeometry>
        </mxCell>
        <mxCell id="Du5RT7D7e3bNgw9wHyrM-378" style="shape=partialRectangle;collapsible=0;dropTarget=0;pointerEvents=0;fillColor=none;points=[[0,0.5],[1,0.5]];portConstraint=eastwest;top=0;left=0;right=0;bottom=0;" vertex="1" parent="Du5RT7D7e3bNgw9wHyrM-365">
          <mxGeometry y="150" width="330" height="30" as="geometry" />
        </mxCell>
        <mxCell id="Du5RT7D7e3bNgw9wHyrM-379" style="shape=partialRectangle;overflow=hidden;connectable=0;fillColor=none;top=0;left=0;bottom=0;right=0;" vertex="1" parent="Du5RT7D7e3bNgw9wHyrM-378">
          <mxGeometry width="30" height="30" as="geometry">
            <mxRectangle width="30" height="30" as="alternateBounds" />
          </mxGeometry>
        </mxCell>
        <mxCell id="Du5RT7D7e3bNgw9wHyrM-380" value="action_type ENUM (&#39;Add, &#39;Edit; &#39;Remove&#39;) NOT NULL" style="shape=partialRectangle;overflow=hidden;connectable=0;fillColor=none;top=0;left=0;bottom=0;right=0;align=left;spacingLeft=6;" vertex="1" parent="Du5RT7D7e3bNgw9wHyrM-378">
          <mxGeometry x="30" width="300" height="30" as="geometry">
            <mxRectangle width="300" height="30" as="alternateBounds" />
          </mxGeometry>
        </mxCell>
        <mxCell id="Du5RT7D7e3bNgw9wHyrM-381" style="shape=partialRectangle;collapsible=0;dropTarget=0;pointerEvents=0;fillColor=none;points=[[0,0.5],[1,0.5]];portConstraint=eastwest;top=0;left=0;right=0;bottom=0;" vertex="1" parent="Du5RT7D7e3bNgw9wHyrM-365">
          <mxGeometry y="180" width="330" height="30" as="geometry" />
        </mxCell>
        <mxCell id="Du5RT7D7e3bNgw9wHyrM-382" value="" style="shape=partialRectangle;overflow=hidden;connectable=0;fillColor=none;top=0;left=0;bottom=0;right=0;" vertex="1" parent="Du5RT7D7e3bNgw9wHyrM-381">
          <mxGeometry width="30" height="30" as="geometry">
            <mxRectangle width="30" height="30" as="alternateBounds" />
          </mxGeometry>
        </mxCell>
        <mxCell id="Du5RT7D7e3bNgw9wHyrM-383" value="results ENUM (&#39;Grade&#39;, &#39;Feedback&#39;)) NOT NULL" style="shape=partialRectangle;overflow=hidden;connectable=0;fillColor=none;top=0;left=0;bottom=0;right=0;align=left;spacingLeft=6;" vertex="1" parent="Du5RT7D7e3bNgw9wHyrM-381">
          <mxGeometry x="30" width="300" height="30" as="geometry">
            <mxRectangle width="300" height="30" as="alternateBounds" />
          </mxGeometry>
        </mxCell>
        <mxCell id="Du5RT7D7e3bNgw9wHyrM-384" style="shape=partialRectangle;collapsible=0;dropTarget=0;pointerEvents=0;fillColor=none;points=[[0,0.5],[1,0.5]];portConstraint=eastwest;top=0;left=0;right=0;bottom=0;" vertex="1" parent="Du5RT7D7e3bNgw9wHyrM-365">
          <mxGeometry y="210" width="330" height="30" as="geometry" />
        </mxCell>
        <mxCell id="Du5RT7D7e3bNgw9wHyrM-385" style="shape=partialRectangle;overflow=hidden;connectable=0;fillColor=none;top=0;left=0;bottom=0;right=0;" vertex="1" parent="Du5RT7D7e3bNgw9wHyrM-384">
          <mxGeometry width="30" height="30" as="geometry">
            <mxRectangle width="30" height="30" as="alternateBounds" />
          </mxGeometry>
        </mxCell>
        <mxCell id="Du5RT7D7e3bNgw9wHyrM-386" value="timestamp DATETIME NOT NULL" style="shape=partialRectangle;overflow=hidden;connectable=0;fillColor=none;top=0;left=0;bottom=0;right=0;align=left;spacingLeft=6;" vertex="1" parent="Du5RT7D7e3bNgw9wHyrM-384">
          <mxGeometry x="30" width="300" height="30" as="geometry">
            <mxRectangle width="300" height="30" as="alternateBounds" />
          </mxGeometry>
        </mxCell>
        <mxCell id="Du5RT7D7e3bNgw9wHyrM-387" style="shape=partialRectangle;collapsible=0;dropTarget=0;pointerEvents=0;fillColor=none;points=[[0,0.5],[1,0.5]];portConstraint=eastwest;top=0;left=0;right=0;bottom=0;" vertex="1" parent="Du5RT7D7e3bNgw9wHyrM-365">
          <mxGeometry y="240" width="330" height="30" as="geometry" />
        </mxCell>
        <mxCell id="Du5RT7D7e3bNgw9wHyrM-388" style="shape=partialRectangle;overflow=hidden;connectable=0;fillColor=none;top=0;left=0;bottom=0;right=0;" vertex="1" parent="Du5RT7D7e3bNgw9wHyrM-387">
          <mxGeometry width="30" height="30" as="geometry">
            <mxRectangle width="30" height="30" as="alternateBounds" />
          </mxGeometry>
        </mxCell>
        <mxCell id="Du5RT7D7e3bNgw9wHyrM-389" value="ip_address VARCHAR(60) NOT NULL" style="shape=partialRectangle;overflow=hidden;connectable=0;fillColor=none;top=0;left=0;bottom=0;right=0;align=left;spacingLeft=6;" vertex="1" parent="Du5RT7D7e3bNgw9wHyrM-387">
          <mxGeometry x="30" width="300" height="30" as="geometry">
            <mxRectangle width="300" height="30" as="alternateBounds" />
          </mxGeometry>
        </mxCell>
        <mxCell id="Du5RT7D7e3bNgw9wHyrM-390" style="shape=partialRectangle;collapsible=0;dropTarget=0;pointerEvents=0;fillColor=none;points=[[0,0.5],[1,0.5]];portConstraint=eastwest;top=0;left=0;right=0;bottom=0;" vertex="1" parent="Du5RT7D7e3bNgw9wHyrM-365">
          <mxGeometry y="270" width="330" height="30" as="geometry" />
        </mxCell>
        <mxCell id="Du5RT7D7e3bNgw9wHyrM-391" style="shape=partialRectangle;overflow=hidden;connectable=0;fillColor=none;top=0;left=0;bottom=0;right=0;" vertex="1" parent="Du5RT7D7e3bNgw9wHyrM-390">
          <mxGeometry width="30" height="30" as="geometry">
            <mxRectangle width="30" height="30" as="alternateBounds" />
          </mxGeometry>
        </mxCell>
        <mxCell id="Du5RT7D7e3bNgw9wHyrM-392" value="device_info TEXT NOT NULL" style="shape=partialRectangle;overflow=hidden;connectable=0;fillColor=none;top=0;left=0;bottom=0;right=0;align=left;spacingLeft=6;" vertex="1" parent="Du5RT7D7e3bNgw9wHyrM-390">
          <mxGeometry x="30" width="300" height="30" as="geometry">
            <mxRectangle width="300" height="30" as="alternateBounds" />
          </mxGeometry>
        </mxCell>
        <mxCell id="Du5RT7D7e3bNgw9wHyrM-393" value="services" style="shape=table;startSize=30;container=1;collapsible=1;childLayout=tableLayout;fixedRows=1;rowLines=0;fontStyle=1;align=center;resizeLast=1;" vertex="1" parent="1">
          <mxGeometry x="4918" y="2180" width="370" height="85" as="geometry" />
        </mxCell>
        <mxCell id="Du5RT7D7e3bNgw9wHyrM-394" value="" style="shape=partialRectangle;collapsible=0;dropTarget=0;pointerEvents=0;fillColor=none;points=[[0,0.5],[1,0.5]];portConstraint=eastwest;top=0;left=0;right=0;bottom=1;" vertex="1" parent="Du5RT7D7e3bNgw9wHyrM-393">
          <mxGeometry y="30" width="370" height="30" as="geometry" />
        </mxCell>
        <mxCell id="Du5RT7D7e3bNgw9wHyrM-395" value="PK" style="shape=partialRectangle;overflow=hidden;connectable=0;fillColor=none;top=0;left=0;bottom=0;right=0;fontStyle=1;" vertex="1" parent="Du5RT7D7e3bNgw9wHyrM-394">
          <mxGeometry width="30" height="30" as="geometry">
            <mxRectangle width="30" height="30" as="alternateBounds" />
          </mxGeometry>
        </mxCell>
        <mxCell id="Du5RT7D7e3bNgw9wHyrM-396" value="service_id AUTO_INCREMENT" style="shape=partialRectangle;overflow=hidden;connectable=0;fillColor=none;top=0;left=0;bottom=0;right=0;align=left;spacingLeft=6;fontStyle=1;" vertex="1" parent="Du5RT7D7e3bNgw9wHyrM-394">
          <mxGeometry x="30" width="340" height="30" as="geometry">
            <mxRectangle width="340" height="30" as="alternateBounds" />
          </mxGeometry>
        </mxCell>
        <mxCell id="Du5RT7D7e3bNgw9wHyrM-397" style="shape=partialRectangle;collapsible=0;dropTarget=0;pointerEvents=0;fillColor=none;points=[[0,0.5],[1,0.5]];portConstraint=eastwest;top=0;left=0;right=0;bottom=0;" vertex="1" parent="Du5RT7D7e3bNgw9wHyrM-393">
          <mxGeometry y="60" width="370" height="25" as="geometry" />
        </mxCell>
        <mxCell id="Du5RT7D7e3bNgw9wHyrM-398" value="" style="shape=partialRectangle;overflow=hidden;connectable=0;fillColor=none;top=0;left=0;bottom=0;right=0;" vertex="1" parent="Du5RT7D7e3bNgw9wHyrM-397">
          <mxGeometry width="30" height="25" as="geometry">
            <mxRectangle width="30" height="25" as="alternateBounds" />
          </mxGeometry>
        </mxCell>
        <mxCell id="Du5RT7D7e3bNgw9wHyrM-399" value="service_name VARCHAR(30) NOT NULL" style="shape=partialRectangle;overflow=hidden;connectable=0;fillColor=none;top=0;left=0;bottom=0;right=0;align=left;spacingLeft=6;" vertex="1" parent="Du5RT7D7e3bNgw9wHyrM-397">
          <mxGeometry x="30" width="340" height="25" as="geometry">
            <mxRectangle width="340" height="25" as="alternateBounds" />
          </mxGeometry>
        </mxCell>
        <mxCell id="Du5RT7D7e3bNgw9wHyrM-400" value="" style="fontSize=12;html=1;endArrow=ERzeroToMany;startArrow=ERmandOne;rounded=0;edgeStyle=orthogonalEdgeStyle;endFill=0;entryX=0.365;entryY=0.013;entryDx=0;entryDy=0;exitX=0;exitY=0;exitDx=0;exitDy=0;entryPerimeter=0;" edge="1" parent="1" source="Du5RT7D7e3bNgw9wHyrM-65" target="Du5RT7D7e3bNgw9wHyrM-365">
          <mxGeometry width="100" height="100" relative="1" as="geometry">
            <mxPoint x="3430" y="2020" as="sourcePoint" />
            <mxPoint x="3350" y="2212.5" as="targetPoint" />
            <Array as="points">
              <mxPoint x="3390" y="2020" />
            </Array>
          </mxGeometry>
        </mxCell>
        <mxCell id="Du5RT7D7e3bNgw9wHyrM-401" value="" style="fontSize=12;html=1;endArrow=ERzeroToMany;startArrow=ERmandOne;rounded=0;edgeStyle=elbowEdgeStyle;endFill=0;elbow=vertical;entryX=0.879;entryY=0.007;entryDx=0;entryDy=0;entryPerimeter=0;" edge="1" parent="1" target="Du5RT7D7e3bNgw9wHyrM-365">
          <mxGeometry width="100" height="100" relative="1" as="geometry">
            <mxPoint x="3970" y="2040" as="sourcePoint" />
            <mxPoint x="3560" y="2270" as="targetPoint" />
            <Array as="points">
              <mxPoint x="3710" y="2110" />
            </Array>
          </mxGeometry>
        </mxCell>
        <mxCell id="Du5RT7D7e3bNgw9wHyrM-402" value="" style="fontSize=12;html=1;endArrow=ERzeroToMany;startArrow=ERmandOne;rounded=0;exitX=0.25;exitY=0;exitDx=0;exitDy=0;edgeStyle=elbowEdgeStyle;endFill=0;elbow=vertical;entryX=0.735;entryY=1.054;entryDx=0;entryDy=0;entryPerimeter=0;" edge="1" parent="1" source="Du5RT7D7e3bNgw9wHyrM-70" target="Du5RT7D7e3bNgw9wHyrM-337">
          <mxGeometry width="100" height="100" relative="1" as="geometry">
            <mxPoint x="4189.95" y="1645" as="sourcePoint" />
            <mxPoint x="4188.95" y="1330" as="targetPoint" />
          </mxGeometry>
        </mxCell>
        <mxCell id="Du5RT7D7e3bNgw9wHyrM-403" value="" style="fontSize=12;html=1;endArrow=ERmany;startArrow=ERmandOne;rounded=0;edgeStyle=elbowEdgeStyle;endFill=0;elbow=vertical;entryX=1;entryY=0.5;entryDx=0;entryDy=0;exitX=-0.007;exitY=0.861;exitDx=0;exitDy=0;exitPerimeter=0;" edge="1" parent="1" source="Du5RT7D7e3bNgw9wHyrM-74" target="Du5RT7D7e3bNgw9wHyrM-46">
          <mxGeometry width="100" height="100" relative="1" as="geometry">
            <mxPoint x="3930" y="1755" as="sourcePoint" />
            <mxPoint x="3830" y="1760" as="targetPoint" />
          </mxGeometry>
        </mxCell>
        <mxCell id="Du5RT7D7e3bNgw9wHyrM-404" value="" style="fontSize=12;html=1;endArrow=ERzeroToMany;startArrow=ERmandOne;rounded=0;exitX=0.114;exitY=0;exitDx=0;exitDy=0;edgeStyle=elbowEdgeStyle;endFill=0;elbow=vertical;exitPerimeter=0;entryX=0.554;entryY=1.008;entryDx=0;entryDy=0;entryPerimeter=0;" edge="1" parent="1" source="Du5RT7D7e3bNgw9wHyrM-42" target="Du5RT7D7e3bNgw9wHyrM-362">
          <mxGeometry width="100" height="100" relative="1" as="geometry">
            <mxPoint x="3701" y="1865" as="sourcePoint" />
            <mxPoint x="3507" y="1440" as="targetPoint" />
          </mxGeometry>
        </mxCell>
        <mxCell id="Du5RT7D7e3bNgw9wHyrM-405" value="" style="fontSize=12;html=1;endArrow=ERzeroToMany;startArrow=ERmandOne;rounded=0;edgeStyle=elbowEdgeStyle;endFill=0;elbow=vertical;entryX=0.194;entryY=1.013;entryDx=0;entryDy=0;entryPerimeter=0;exitX=0.403;exitY=0.009;exitDx=0;exitDy=0;exitPerimeter=0;" edge="1" parent="1" source="Du5RT7D7e3bNgw9wHyrM-42" target="Du5RT7D7e3bNgw9wHyrM-337">
          <mxGeometry width="100" height="100" relative="1" as="geometry">
            <mxPoint x="3637" y="1680" as="sourcePoint" />
            <mxPoint x="3550" y="1480.0800000000002" as="targetPoint" />
          </mxGeometry>
        </mxCell>
        <mxCell id="Du5RT7D7e3bNgw9wHyrM-406" value="" style="fontSize=12;html=1;endArrow=ERzeroToMany;startArrow=ERmandOne;rounded=0;exitX=0.309;exitY=0.002;exitDx=0;exitDy=0;edgeStyle=elbowEdgeStyle;endFill=0;elbow=vertical;exitPerimeter=0;entryX=1.011;entryY=0.851;entryDx=0;entryDy=0;entryPerimeter=0;" edge="1" parent="1" source="Du5RT7D7e3bNgw9wHyrM-70" target="Du5RT7D7e3bNgw9wHyrM-344">
          <mxGeometry width="100" height="100" relative="1" as="geometry">
            <mxPoint x="4180.002" y="1663" as="sourcePoint" />
            <mxPoint x="3710" y="1230" as="targetPoint" />
            <Array as="points">
              <mxPoint x="3880" y="1225" />
            </Array>
          </mxGeometry>
        </mxCell>
        <mxCell id="Du5RT7D7e3bNgw9wHyrM-407" value="" style="fontSize=12;html=1;endArrow=ERzeroToMany;startArrow=ERmandOne;rounded=0;exitX=0.544;exitY=0.005;exitDx=0;exitDy=0;edgeStyle=orthogonalEdgeStyle;endFill=0;exitPerimeter=0;entryX=0;entryY=0.5;entryDx=0;entryDy=0;" edge="1" parent="1" source="Du5RT7D7e3bNgw9wHyrM-70" target="Du5RT7D7e3bNgw9wHyrM-278">
          <mxGeometry width="100" height="100" relative="1" as="geometry">
            <mxPoint x="4293" y="1619" as="sourcePoint" />
            <mxPoint x="4410" y="1260" as="targetPoint" />
          </mxGeometry>
        </mxCell>
        <mxCell id="Du5RT7D7e3bNgw9wHyrM-408" value="" style="fontSize=12;html=1;endArrow=ERzeroToMany;startArrow=ERmandOne;rounded=0;exitX=0.668;exitY=0.001;exitDx=0;exitDy=0;edgeStyle=orthogonalEdgeStyle;endFill=0;entryX=1.002;entryY=0.85;entryDx=0;entryDy=0;entryPerimeter=0;exitPerimeter=0;" edge="1" parent="1" source="Du5RT7D7e3bNgw9wHyrM-1" target="Du5RT7D7e3bNgw9wHyrM-263">
          <mxGeometry width="100" height="100" relative="1" as="geometry">
            <mxPoint x="4830" y="1467" as="sourcePoint" />
            <mxPoint x="5054" y="1030" as="targetPoint" />
          </mxGeometry>
        </mxCell>
        <mxCell id="Du5RT7D7e3bNgw9wHyrM-409" value="" style="fontSize=12;html=1;endArrow=ERzeroToMany;startArrow=ERmandOne;rounded=0;edgeStyle=elbowEdgeStyle;endFill=0;fontStyle=0;exitX=0;exitY=0.5;exitDx=0;exitDy=0;entryX=1;entryY=0.5;entryDx=0;entryDy=0;" edge="1" parent="1" source="Du5RT7D7e3bNgw9wHyrM-303" target="Du5RT7D7e3bNgw9wHyrM-106">
          <mxGeometry width="100" height="100" relative="1" as="geometry">
            <mxPoint x="4720" y="2180" as="sourcePoint" />
            <mxPoint x="5470" y="2180" as="targetPoint" />
            <Array as="points" />
          </mxGeometry>
        </mxCell>
        <mxCell id="Du5RT7D7e3bNgw9wHyrM-410" value="" style="fontSize=12;html=1;endArrow=ERzeroToMany;startArrow=ERmandOne;rounded=0;edgeStyle=orthogonalEdgeStyle;endFill=0;exitX=1;exitY=0.5;exitDx=0;exitDy=0;entryX=0.25;entryY=0;entryDx=0;entryDy=0;" edge="1" parent="1" source="Du5RT7D7e3bNgw9wHyrM-95" target="Du5RT7D7e3bNgw9wHyrM-231">
          <mxGeometry width="100" height="100" relative="1" as="geometry">
            <mxPoint x="4419.5" y="2080" as="sourcePoint" />
            <mxPoint x="4670.5" y="2095" as="targetPoint" />
          </mxGeometry>
        </mxCell>
        <mxCell id="Du5RT7D7e3bNgw9wHyrM-411" value="" style="fontSize=12;html=1;endArrow=ERmandOne;startArrow=ERzeroToMany;rounded=0;edgeStyle=elbowEdgeStyle;endFill=0;elbow=vertical;exitX=0.5;exitY=0;exitDx=0;exitDy=0;entryX=0.75;entryY=1;entryDx=0;entryDy=0;startFill=0;" edge="1" parent="1" source="Du5RT7D7e3bNgw9wHyrM-130" target="Du5RT7D7e3bNgw9wHyrM-70">
          <mxGeometry width="100" height="100" relative="1" as="geometry">
            <mxPoint x="4300" y="2360" as="sourcePoint" />
            <mxPoint x="4300" y="2290" as="targetPoint" />
            <Array as="points">
              <mxPoint x="4270" y="2280" />
            </Array>
          </mxGeometry>
        </mxCell>
        <mxCell id="Du5RT7D7e3bNgw9wHyrM-412" value="customisation_logs" style="shape=table;startSize=30;container=1;collapsible=1;childLayout=tableLayout;fixedRows=1;rowLines=0;fontStyle=1;align=center;resizeLast=1;" vertex="1" parent="1">
          <mxGeometry x="4020" y="2270" width="280" height="246" as="geometry" />
        </mxCell>
        <mxCell id="Du5RT7D7e3bNgw9wHyrM-413" value="" style="shape=partialRectangle;collapsible=0;dropTarget=0;pointerEvents=0;fillColor=none;points=[[0,0.5],[1,0.5]];portConstraint=eastwest;top=0;left=0;right=0;bottom=1;" vertex="1" parent="Du5RT7D7e3bNgw9wHyrM-412">
          <mxGeometry y="30" width="280" height="30" as="geometry" />
        </mxCell>
        <mxCell id="Du5RT7D7e3bNgw9wHyrM-414" value="PK" style="shape=partialRectangle;overflow=hidden;connectable=0;fillColor=none;top=0;left=0;bottom=0;right=0;fontStyle=1;" vertex="1" parent="Du5RT7D7e3bNgw9wHyrM-413">
          <mxGeometry width="30" height="30" as="geometry">
            <mxRectangle width="30" height="30" as="alternateBounds" />
          </mxGeometry>
        </mxCell>
        <mxCell id="Du5RT7D7e3bNgw9wHyrM-415" value="log_id BIGINT AUTO_INCREMENT" style="shape=partialRectangle;overflow=hidden;connectable=0;fillColor=none;top=0;left=0;bottom=0;right=0;align=left;spacingLeft=6;fontStyle=1;" vertex="1" parent="Du5RT7D7e3bNgw9wHyrM-413">
          <mxGeometry x="30" width="250" height="30" as="geometry">
            <mxRectangle width="250" height="30" as="alternateBounds" />
          </mxGeometry>
        </mxCell>
        <mxCell id="Du5RT7D7e3bNgw9wHyrM-416" style="shape=partialRectangle;collapsible=0;dropTarget=0;pointerEvents=0;fillColor=none;points=[[0,0.5],[1,0.5]];portConstraint=eastwest;top=0;left=0;right=0;bottom=0;" vertex="1" parent="Du5RT7D7e3bNgw9wHyrM-412">
          <mxGeometry y="60" width="280" height="25" as="geometry" />
        </mxCell>
        <mxCell id="Du5RT7D7e3bNgw9wHyrM-417" value="FK" style="shape=partialRectangle;overflow=hidden;connectable=0;fillColor=none;top=0;left=0;bottom=0;right=0;" vertex="1" parent="Du5RT7D7e3bNgw9wHyrM-416">
          <mxGeometry width="30" height="25" as="geometry">
            <mxRectangle width="30" height="25" as="alternateBounds" />
          </mxGeometry>
        </mxCell>
        <mxCell id="Du5RT7D7e3bNgw9wHyrM-418" value="user_id BIGINT NOT NULL" style="shape=partialRectangle;overflow=hidden;connectable=0;fillColor=none;top=0;left=0;bottom=0;right=0;align=left;spacingLeft=6;" vertex="1" parent="Du5RT7D7e3bNgw9wHyrM-416">
          <mxGeometry x="30" width="250" height="25" as="geometry">
            <mxRectangle width="250" height="25" as="alternateBounds" />
          </mxGeometry>
        </mxCell>
        <mxCell id="Du5RT7D7e3bNgw9wHyrM-419" style="shape=partialRectangle;collapsible=0;dropTarget=0;pointerEvents=0;fillColor=none;points=[[0,0.5],[1,0.5]];portConstraint=eastwest;top=0;left=0;right=0;bottom=0;" vertex="1" parent="Du5RT7D7e3bNgw9wHyrM-412">
          <mxGeometry y="85" width="280" height="35" as="geometry" />
        </mxCell>
        <mxCell id="Du5RT7D7e3bNgw9wHyrM-420" style="shape=partialRectangle;overflow=hidden;connectable=0;fillColor=none;top=0;left=0;bottom=0;right=0;" vertex="1" parent="Du5RT7D7e3bNgw9wHyrM-419">
          <mxGeometry width="30" height="35" as="geometry">
            <mxRectangle width="30" height="35" as="alternateBounds" />
          </mxGeometry>
        </mxCell>
        <mxCell id="Du5RT7D7e3bNgw9wHyrM-421" value="action_type ENUM (&#39;Customise&#39;,Â &#xa;&#39;Remove&#39;)) NOT NULL" style="shape=partialRectangle;overflow=hidden;connectable=0;fillColor=none;top=0;left=0;bottom=0;right=0;align=left;spacingLeft=6;" vertex="1" parent="Du5RT7D7e3bNgw9wHyrM-419">
          <mxGeometry x="30" width="250" height="35" as="geometry">
            <mxRectangle width="250" height="35" as="alternateBounds" />
          </mxGeometry>
        </mxCell>
        <mxCell id="Du5RT7D7e3bNgw9wHyrM-422" style="shape=partialRectangle;collapsible=0;dropTarget=0;pointerEvents=0;fillColor=none;points=[[0,0.5],[1,0.5]];portConstraint=eastwest;top=0;left=0;right=0;bottom=0;" vertex="1" parent="Du5RT7D7e3bNgw9wHyrM-412">
          <mxGeometry y="120" width="280" height="36" as="geometry" />
        </mxCell>
        <mxCell id="Du5RT7D7e3bNgw9wHyrM-423" value="" style="shape=partialRectangle;overflow=hidden;connectable=0;fillColor=none;top=0;left=0;bottom=0;right=0;" vertex="1" parent="Du5RT7D7e3bNgw9wHyrM-422">
          <mxGeometry width="30" height="36" as="geometry">
            <mxRectangle width="30" height="36" as="alternateBounds" />
          </mxGeometry>
        </mxCell>
        <mxCell id="Du5RT7D7e3bNgw9wHyrM-424" value="customise_which ENUM (&#39;Profile pic&#39;, &#39;Bio&#39;,Â &#xa;&#39;Background image&#39;) NOT NULL" style="shape=partialRectangle;overflow=hidden;connectable=0;fillColor=none;top=0;left=0;bottom=0;right=0;align=left;spacingLeft=6;" vertex="1" parent="Du5RT7D7e3bNgw9wHyrM-422">
          <mxGeometry x="30" width="250" height="36" as="geometry">
            <mxRectangle width="250" height="36" as="alternateBounds" />
          </mxGeometry>
        </mxCell>
        <mxCell id="Du5RT7D7e3bNgw9wHyrM-425" style="shape=partialRectangle;collapsible=0;dropTarget=0;pointerEvents=0;fillColor=none;points=[[0,0.5],[1,0.5]];portConstraint=eastwest;top=0;left=0;right=0;bottom=0;" vertex="1" parent="Du5RT7D7e3bNgw9wHyrM-412">
          <mxGeometry y="156" width="280" height="30" as="geometry" />
        </mxCell>
        <mxCell id="Du5RT7D7e3bNgw9wHyrM-426" style="shape=partialRectangle;overflow=hidden;connectable=0;fillColor=none;top=0;left=0;bottom=0;right=0;" vertex="1" parent="Du5RT7D7e3bNgw9wHyrM-425">
          <mxGeometry width="30" height="30" as="geometry">
            <mxRectangle width="30" height="30" as="alternateBounds" />
          </mxGeometry>
        </mxCell>
        <mxCell id="Du5RT7D7e3bNgw9wHyrM-427" value="timestamp DATETIME NOT NULL" style="shape=partialRectangle;overflow=hidden;connectable=0;fillColor=none;top=0;left=0;bottom=0;right=0;align=left;spacingLeft=6;" vertex="1" parent="Du5RT7D7e3bNgw9wHyrM-425">
          <mxGeometry x="30" width="250" height="30" as="geometry">
            <mxRectangle width="250" height="30" as="alternateBounds" />
          </mxGeometry>
        </mxCell>
        <mxCell id="Du5RT7D7e3bNgw9wHyrM-428" style="shape=partialRectangle;collapsible=0;dropTarget=0;pointerEvents=0;fillColor=none;points=[[0,0.5],[1,0.5]];portConstraint=eastwest;top=0;left=0;right=0;bottom=0;" vertex="1" parent="Du5RT7D7e3bNgw9wHyrM-412">
          <mxGeometry y="186" width="280" height="30" as="geometry" />
        </mxCell>
        <mxCell id="Du5RT7D7e3bNgw9wHyrM-429" style="shape=partialRectangle;overflow=hidden;connectable=0;fillColor=none;top=0;left=0;bottom=0;right=0;" vertex="1" parent="Du5RT7D7e3bNgw9wHyrM-428">
          <mxGeometry width="30" height="30" as="geometry">
            <mxRectangle width="30" height="30" as="alternateBounds" />
          </mxGeometry>
        </mxCell>
        <mxCell id="Du5RT7D7e3bNgw9wHyrM-430" value="ip_address VARCHAR(60) NOT NULL" style="shape=partialRectangle;overflow=hidden;connectable=0;fillColor=none;top=0;left=0;bottom=0;right=0;align=left;spacingLeft=6;" vertex="1" parent="Du5RT7D7e3bNgw9wHyrM-428">
          <mxGeometry x="30" width="250" height="30" as="geometry">
            <mxRectangle width="250" height="30" as="alternateBounds" />
          </mxGeometry>
        </mxCell>
        <mxCell id="Du5RT7D7e3bNgw9wHyrM-431" style="shape=partialRectangle;collapsible=0;dropTarget=0;pointerEvents=0;fillColor=none;points=[[0,0.5],[1,0.5]];portConstraint=eastwest;top=0;left=0;right=0;bottom=0;" vertex="1" parent="Du5RT7D7e3bNgw9wHyrM-412">
          <mxGeometry y="216" width="280" height="30" as="geometry" />
        </mxCell>
        <mxCell id="Du5RT7D7e3bNgw9wHyrM-432" style="shape=partialRectangle;overflow=hidden;connectable=0;fillColor=none;top=0;left=0;bottom=0;right=0;" vertex="1" parent="Du5RT7D7e3bNgw9wHyrM-431">
          <mxGeometry width="30" height="30" as="geometry">
            <mxRectangle width="30" height="30" as="alternateBounds" />
          </mxGeometry>
        </mxCell>
        <mxCell id="Du5RT7D7e3bNgw9wHyrM-433" value="device_info TEXT NOT NULL" style="shape=partialRectangle;overflow=hidden;connectable=0;fillColor=none;top=0;left=0;bottom=0;right=0;align=left;spacingLeft=6;" vertex="1" parent="Du5RT7D7e3bNgw9wHyrM-431">
          <mxGeometry x="30" width="250" height="30" as="geometry">
            <mxRectangle width="250" height="30" as="alternateBounds" />
          </mxGeometry>
        </mxCell>
        <mxCell id="Du5RT7D7e3bNgw9wHyrM-434" value="" style="fontSize=12;html=1;endArrow=ERzeroToMany;startArrow=ERmandOne;rounded=0;endFill=0;edgeStyle=elbowEdgeStyle;elbow=vertical;entryX=0.5;entryY=0;entryDx=0;entryDy=0;" edge="1" parent="1" target="Du5RT7D7e3bNgw9wHyrM-412">
          <mxGeometry width="100" height="100" relative="1" as="geometry">
            <mxPoint x="4160" y="2040" as="sourcePoint" />
            <mxPoint x="4023" y="2301" as="targetPoint" />
            <Array as="points">
              <mxPoint x="4060" y="2200" />
              <mxPoint x="4030" y="2240" />
            </Array>
          </mxGeometry>
        </mxCell>
        <mxCell id="Du5RT7D7e3bNgw9wHyrM-435" value="" style="fontSize=12;html=1;endArrow=ERmandOne;startArrow=ERzeroToMany;rounded=0;edgeStyle=orthogonalEdgeStyle;endFill=0;elbow=vertical;exitX=0;exitY=-0.144;exitDx=0;exitDy=0;exitPerimeter=0;startFill=0;" edge="1" parent="1" source="Du5RT7D7e3bNgw9wHyrM-232">
          <mxGeometry width="100" height="100" relative="1" as="geometry">
            <mxPoint x="4530" y="2230" as="sourcePoint" />
            <mxPoint x="4402" y="2040" as="targetPoint" />
          </mxGeometry>
        </mxCell>
        <mxCell id="Du5RT7D7e3bNgw9wHyrM-436" value="" style="fontSize=12;html=1;endArrow=ERzeroToMany;startArrow=ERmandOne;rounded=0;edgeStyle=orthogonalEdgeStyle;endFill=0;entryX=0;entryY=0.5;entryDx=0;entryDy=0;elbow=vertical;exitX=0.987;exitY=0.086;exitDx=0;exitDy=0;exitPerimeter=0;" edge="1" parent="1" source="Du5RT7D7e3bNgw9wHyrM-241" target="Du5RT7D7e3bNgw9wHyrM-394">
          <mxGeometry width="100" height="100" relative="1" as="geometry">
            <mxPoint x="4988.5" y="2318.5" as="sourcePoint" />
            <mxPoint x="4921.5" y="2535.5" as="targetPoint" />
          </mxGeometry>
        </mxCell>
      </root>
    </mxGraphModel>
  </diagram>
</mxfile>
